BorgSansMono.sfdir
StartChar: exclam
Encoding: 33 33 4
Width: 1229
GlyphClass: 2
Flags: W
LayerCount: 2
Back
Fore
SplineSet
676 414 m 1,0,-1
 555 414 l 1,1,-1
 504 1462 l 1,2,-1
 727 1462 l 1,3,-1
 676 414 l 1,0,-1
614 250 m 256,4,5
 741 250 741 250 741 111 c 0,6,7
 741 -29 741 -29 614 -29 c 256,8,9
 487 -29 487 -29 487 111 c 0,10,11
 487 250 487 250 614 250 c 256,4,5
EndSplineSet
Validated: 1
Substitution2: "Single Substitution lookup 1 subtable" exclam.equal
EndChar
StartChar: quotedbl
Encoding: 34 34 5
Width: 600
GlyphClass: 2
Flags: W
LayerCount: 2
Fore
SplineSet
255 714 m 1,0,-1
 235 456 l 1,1,-1
 159 456 l 1,2,-1
 139 714 l 1,3,-1
 255 714 l 1,0,-1
461 714 m 1,4,-1
 441 456 l 1,5,-1
 365 456 l 1,6,-1
 345 714 l 1,7,-1
 461 714 l 1,4,-1
EndSplineSet
Validated: 1
EndChar
StartChar: numbersign
Encoding: 35 35 6
Width: 600
GlyphClass: 2
Flags: W
LayerCount: 2
Fore
SplineSet
457 436 m 1,0,-1
 426 276 l 1,1,-1
 543 276 l 1,2,-1
 543 209 l 1,3,-1
 413 209 l 1,4,-1
 373 0 l 1,5,-1
 301 0 l 1,6,-1
 342 209 l 1,7,-1
 200 209 l 1,8,-1
 160 0 l 1,9,-1
 90 0 l 1,10,-1
 128 209 l 1,11,-1
 22 209 l 1,12,-1
 22 276 l 1,13,-1
 141 276 l 1,14,-1
 173 436 l 1,15,-1
 59 436 l 1,16,-1
 59 503 l 1,17,-1
 185 503 l 1,18,-1
 225 714 l 1,19,-1
 297 714 l 1,20,-1
 257 503 l 1,21,-1
 400 503 l 1,22,-1
 441 714 l 1,23,-1
 511 714 l 1,24,-1
 470 503 l 1,25,-1
 578 503 l 1,26,-1
 578 436 l 1,27,-1
 457 436 l 1,0,-1
213 276 m 1,28,-1
 355 276 l 1,29,-1
 386 436 l 1,30,-1
 244 436 l 1,31,-1
 213 276 l 1,28,-1
EndSplineSet
Validated: 1
EndChar
StartChar: dollar
Encoding: 36 36 7
Width: 600
GlyphClass: 2
Flags: W
LayerCount: 2
Fore
SplineSet
334 54 m 1,0,-1
 334 -58 l 1,1,-1
 267 -58 l 1,2,-1
 267 50 l 1,3,4
 156 50 156 50 89 84 c 1,5,-1
 89 168 l 1,6,7
 185 123 185 123 267 123 c 1,8,-1
 267 335 l 1,9,10
 173 366 173 366 135 406 c 128,-1,11
 97 446 97 446 97 513 c 0,12,13
 97 577 97 577 142 619 c 128,-1,14
 187 661 187 661 267 671 c 1,15,-1
 267 759 l 1,16,-1
 334 759 l 1,17,-1
 334 673 l 1,18,19
 425 669 425 669 498 635 c 1,20,-1
 466 564 l 1,21,22
 398 594 398 594 334 599 c 1,23,-1
 334 393 l 1,24,25
 431 360 431 360 470.5 320.5 c 128,-1,26
 510 281 510 281 510 218 c 0,27,28
 510 81 510 81 334 54 c 1,0,-1
267 417 m 1,29,-1
 267 597 l 1,30,31
 183 583 183 583 183 512 c 0,32,33
 183 474 183 474 203 453 c 128,-1,34
 223 432 223 432 267 417 c 1,29,-1
334 310 m 1,35,-1
 334 128 l 1,36,37
 424 142 424 142 424 218 c 0,38,39
 424 280 424 280 334 310 c 1,35,-1
EndSplineSet
Validated: 1
EndChar
StartChar: percent
Encoding: 37 37 8
Width: 600
GlyphClass: 2
Flags: W
LayerCount: 2
Fore
SplineSet
142 383 m 0,0,1
 78 383 78 383 39 429 c 128,-1,2
 0 475 0 475 0 553 c 0,3,4
 0 633 0 633 38.5 677.5 c 128,-1,5
 77 722 77 722 144 722 c 0,6,7
 207 722 207 722 246.5 676.5 c 128,-1,8
 286 631 286 631 286 553 c 0,9,10
 286 474 286 474 247.5 428.5 c 128,-1,11
 209 383 209 383 142 383 c 0,0,1
143 441 m 0,12,13
 211 441 211 441 211 553 c 0,14,15
 211 663 211 663 143 663 c 0,16,17
 74 663 74 663 74 553 c 0,18,19
 74 441 74 441 143 441 c 0,12,13
516 714 m 1,20,-1
 160 0 l 1,21,-1
 83 0 l 1,22,-1
 439 714 l 1,23,-1
 516 714 l 1,20,-1
456 -9 m 0,24,25
 393 -9 393 -9 353.5 37 c 128,-1,26
 314 83 314 83 314 161 c 0,27,28
 314 241 314 241 352.5 285.5 c 128,-1,29
 391 330 391 330 458 330 c 0,30,31
 521 330 521 330 560.5 284.5 c 128,-1,32
 600 239 600 239 600 161 c 0,33,34
 600 82 600 82 561.5 36.5 c 128,-1,35
 523 -9 523 -9 456 -9 c 0,24,25
457 49 m 0,36,37
 525 49 525 49 525 161 c 0,38,39
 525 271 525 271 457 271 c 0,40,41
 388 271 388 271 388 161 c 0,42,43
 388 49 388 49 457 49 c 0,36,37
EndSplineSet
Validated: 1
EndChar
StartChar: ampersand
Encoding: 38 38 9
Width: 600
GlyphClass: 2
Flags: W
LayerCount: 2
Fore
SplineSet
294 379 m 1,0,-1
 431 209 l 1,1,2
 466 268 466 268 482 339 c 1,3,-1
 572 339 l 1,4,5
 546 225 546 225 485 142 c 1,6,-1
 599 0 l 1,7,-1
 493 0 l 1,8,-1
 429 81 l 1,9,10
 344 -10 344 -10 228 -10 c 0,11,12
 136 -10 136 -10 83 42.5 c 128,-1,13
 30 95 30 95 30 186 c 0,14,15
 30 250 30 250 61 297.5 c 128,-1,16
 92 345 92 345 176 395 c 1,17,18
 96 489 96 489 96 569 c 0,19,20
 96 641 96 641 142.5 683 c 128,-1,21
 189 725 189 725 277 725 c 0,22,23
 359 725 359 725 404 683.5 c 128,-1,24
 449 642 449 642 449 569 c 0,25,26
 449 470 449 470 294 379 c 1,0,-1
248 438 m 1,27,28
 313 477 313 477 337.5 506 c 128,-1,29
 362 535 362 535 362 571 c 256,30,31
 362 607 362 607 337.5 629.5 c 128,-1,32
 313 652 313 652 274 652 c 0,33,34
 232 652 232 652 207.5 630 c 128,-1,35
 183 608 183 608 183 569 c 0,36,37
 183 511 183 511 248 438 c 1,27,28
380 140 m 1,38,-1
 222 336 l 1,39,40
 123 276 123 276 123 189 c 0,41,42
 123 138 123 138 155.5 103.5 c 128,-1,43
 188 69 188 69 234 69 c 0,44,45
 312 69 312 69 380 140 c 1,38,-1
EndSplineSet
Validated: 1
EndChar
StartChar: quotesingle
Encoding: 39 39 10
Width: 1229
GlyphClass: 2
Flags: W
LayerCount: 2
Back
Fore
SplineSet
733 1462 m 1,0,-1
 692 934 l 1,1,-1
 537 934 l 1,2,-1
 496 1462 l 1,3,-1
 733 1462 l 1,0,-1
EndSplineSet
EndChar
StartChar: parenleft
Encoding: 40 40 11
Width: 600
GlyphClass: 2
Flags: W
LayerCount: 2
Fore
SplineSet
361 714 m 1,0,-1
 455 714 l 1,1,2
 236 530 236 530 236 278 c 0,3,4
 236 24 236 24 454 -158 c 1,5,-1
 361 -158 l 1,6,7
 144 14 144 14 144 277 c 0,8,9
 144 537 144 537 361 714 c 1,0,-1
EndSplineSet
Validated: 1
EndChar
StartChar: parenright
Encoding: 41 41 12
Width: 1229
GlyphClass: 2
Flags: W
LayerCount: 2
Back
Fore
SplineSet
489 -324 m 1,0,-1
 299 -324 l 1,1,2
 745 47 745 47 745 569 c 0,3,4
 745 1087 745 1087 297 1462 c 1,5,-1
 489 1462 l 1,6,7
 934 1101 934 1101 934 567 c 0,8,9
 934 27 934 27 489 -324 c 1,0,-1
EndSplineSet
EndChar
StartChar: asterisk
Encoding: 42 42 13
Width: 1229
GlyphClass: 2
Flags: W
LayerCount: 2
Back
Fore
SplineSet
715 1556 m 1,0,-1
 672 1163 l 1,1,-1
 1069 1274 l 1,2,-1
 1096 1081 l 1,3,-1
 717 1053 l 1,4,-1
 963 727 l 1,5,-1
 784 631 l 1,6,-1
 608 989 l 1,7,-1
 451 631 l 1,8,-1
 266 727 l 1,9,-1
 508 1053 l 1,10,-1
 133 1081 l 1,11,-1
 162 1274 l 1,12,-1
 553 1163 l 1,13,-1
 510 1556 l 1,14,-1
 715 1556 l 1,0,-1
EndSplineSet
EndChar
StartChar: plus
Encoding: 43 43 14
Width: 600
GlyphClass: 2
Flags: W
LayerCount: 2
Fore
SplineSet
263 316 m 1,0,-1
 74 316 l 1,1,-1
 74 389 l 1,2,-1
 263 389 l 1,3,-1
 263 579 l 1,4,-1
 336 579 l 1,5,-1
 336 389 l 1,6,-1
 525 389 l 1,7,-1
 525 316 l 1,8,-1
 336 316 l 1,9,-1
 336 128 l 1,10,-1
 263 128 l 1,11,-1
 263 316 l 1,0,-1
EndSplineSet
Validated: 1
EndChar
StartChar: comma
Encoding: 44 44 15
Width: 600
GlyphClass: 2
Flags: W
LayerCount: 2
Fore
SplineSet
376 128 m 1,0,-1
 384 116 l 1,1,2
 356 7 356 7 289 -141 c 1,3,-1
 215 -141 l 1,4,5
 252 17 252 17 269 128 c 1,6,-1
 376 128 l 1,0,-1
EndSplineSet
Validated: 1
EndChar
StartChar: hyphen
Encoding: 45 45 16
Width: 600
GlyphClass: 2
Flags: W
LayerCount: 2
Fore
SplineSet
139 227 m 1,0,-1
 139 309 l 1,1,-1
 461 309 l 1,2,-1
 461 227 l 1,3,-1
 139 227 l 1,0,-1
EndSplineSet
Validated: 1
Substitution2: "sub space-1" space
Substitution2: "lig arrow right single-1" arrow_right_single
EndChar
StartChar: period
Encoding: 46 46 17
Width: 600
GlyphClass: 2
Flags: W
LayerCount: 2
Fore
SplineSet
300 147 m 256,0,1
 374 147 374 147 374 66 c 256,2,3
 374 -15 374 -15 300 -15 c 256,4,5
 226 -15 226 -15 226 66 c 256,6,7
 226 147 226 147 300 147 c 256,0,1
EndSplineSet
Validated: 1
EndChar
StartChar: slash
Encoding: 47 47 18
Width: 1229
GlyphClass: 2
Flags: W
LayerCount: 2
Back
Fore
SplineSet
1016 1462 m 1,0,-1
 389 0 l 1,1,-1
 211 0 l 1,2,-1
 838 1462 l 1,3,-1
 1016 1462 l 1,0,-1
EndSplineSet
Validated: 1
Substitution2: "Single Substitution lookup 3 subtable" slash.equal
EndChar
StartChar: zero
Encoding: 48 48 19
Width: 600
GlyphClass: 2
Flags: W
LayerCount: 2
Fore
SplineSet
299 66 m 0,0,1
 371 66 371 66 404.5 134.5 c 128,-1,2
 438 203 438 203 438 358 c 0,3,4
 438 433 438 433 430 487 c 1,5,-1
 205 117 l 1,6,7
 238 66 238 66 299 66 c 0,0,1
299 -10 m 0,8,9
 187 -10 187 -10 129 85 c 0,10,11
 71.9830508475 177.406779661 71.9830508475 177.406779661 71.9830508475 351.95662166 c 0,12,13
 71.9830508475 354.966101695 71.9830508475 354.966101695 72 358 c 0,14,15
 72 725 72 725 299 725 c 0,16,17
 412 725 412 725 470 630.5 c 128,-1,18
 528 536 528 536 528 358 c 0,19,20
 528 -10 528 -10 299 -10 c 0,8,9
172 215 m 1,21,-1
 397 594 l 1,22,23
 363 649 363 649 299 649 c 0,24,25
 228 649 228 649 195 581 c 128,-1,26
 162 513 162 513 162 358 c 0,27,28
 162 274 162 274 172 215 c 1,21,-1
EndSplineSet
Validated: 1
EndChar
StartChar: one
Encoding: 49 49 20
Width: 600
GlyphClass: 2
Flags: W
LayerCount: 2
Fore
SplineSet
370 0 m 1,0,-1
 284 0 l 1,1,-1
 284 446 l 2,2,3
 284 506 284 506 288 622 c 1,4,5
 269 601 269 601 229 567 c 2,6,-1
 157 508 l 1,7,-1
 110 568 l 1,8,-1
 297 714 l 1,9,-1
 370 714 l 1,10,-1
 370 0 l 1,0,-1
EndSplineSet
Validated: 1
EndChar
StartChar: two
Encoding: 50 50 21
Width: 600
GlyphClass: 2
Flags: W
LayerCount: 2
Fore
SplineSet
522 0 m 1,0,-1
 77 0 l 1,1,-1
 77 76 l 1,2,-1
 248 262 l 2,3,4
 343 366 343 366 373.5 417 c 128,-1,5
 404 468 404 468 404 530 c 0,6,7
 404 585 404 585 373 617 c 128,-1,8
 342 649 342 649 289 649 c 0,9,10
 211 649 211 649 134 582 c 1,11,-1
 84 640 l 1,12,13
 178 724 178 724 290 724 c 0,14,15
 385 724 385 724 439.5 672.5 c 128,-1,16
 494 621 494 621 494 533 c 0,17,18
 494 475 494 475 465.5 414 c 128,-1,19
 437 353 437 353 323 231 c 2,20,-1
 186 85 l 1,21,-1
 186 81 l 1,22,-1
 522 81 l 1,23,-1
 522 0 l 1,0,-1
EndSplineSet
Validated: 1
EndChar
StartChar: three
Encoding: 51 51 22
Width: 600
GlyphClass: 2
Flags: W
LayerCount: 2
Fore
SplineSet
339 376 m 1,0,-1
 339 373 l 1,1,2
 515 350 515 350 515 203 c 0,3,4
 515 104 515 104 447.5 47 c 128,-1,5
 380 -10 380 -10 253 -10 c 0,6,7
 135 -10 135 -10 64 29 c 1,8,-1
 64 112 l 1,9,10
 154 65 154 65 251 65 c 0,11,12
 424 65 424 65 424 206 c 0,13,14
 424 332 424 332 238 332 c 2,15,-1
 173 332 l 1,16,-1
 173 406 l 1,17,-1
 238 406 l 2,18,19
 316 406 316 406 359 443 c 128,-1,20
 402 480 402 480 402 541 c 0,21,22
 402 591 402 591 368.5 620 c 128,-1,23
 335 649 335 649 280 649 c 0,24,25
 193 649 193 649 112 590 c 1,26,-1
 67 651 l 1,27,28
 158 724 158 724 280 724 c 0,29,30
 381 724 381 724 437 675.5 c 128,-1,31
 493 627 493 627 493 547 c 0,32,33
 493 480 493 480 453 434.5 c 128,-1,34
 413 389 413 389 339 376 c 1,0,-1
EndSplineSet
Validated: 1
EndChar
StartChar: four
Encoding: 52 52 23
Width: 600
GlyphClass: 2
Flags: W
LayerCount: 2
Fore
SplineSet
550 160 m 1,0,-1
 446 160 l 1,1,-1
 446 0 l 1,2,-1
 360 0 l 1,3,-1
 360 160 l 1,4,-1
 30 160 l 1,5,-1
 30 238 l 1,6,-1
 354 718 l 1,7,-1
 446 718 l 1,8,-1
 446 241 l 1,9,-1
 550 241 l 1,10,-1
 550 160 l 1,0,-1
360 241 m 1,11,-1
 360 415 l 2,12,13
 360 501 360 501 366 626 c 1,14,-1
 362 626 l 1,15,16
 344 576 344 576 318 538 c 2,17,-1
 117 241 l 1,18,-1
 360 241 l 1,11,-1
EndSplineSet
Validated: 1
EndChar
StartChar: five
Encoding: 53 53 24
Width: 1229
GlyphClass: 2
Flags: W
LayerCount: 2
Back
Fore
SplineSet
172 59 m 1,0,-1
 172 231 l 1,1,2
 316 135 316 135 532 135 c 0,3,4
 868 135 868 135 868 449 c 0,5,6
 868 743 868 743 524 743 c 0,7,8
 435 743 435 743 293 717 c 1,9,-1
 203 774 l 1,10,-1
 258 1462 l 1,11,-1
 948 1462 l 1,12,-1
 948 1296 l 1,13,-1
 416 1296 l 1,14,-1
 377 877 l 1,15,16
 484 897 484 897 586 897 c 0,17,18
 796 897 796 897 925.5 782.5 c 128,-1,19
 1055 668 1055 668 1055 469 c 0,20,21
 1055 235 1055 235 917 107.5 c 128,-1,22
 779 -20 779 -20 528 -20 c 0,23,24
 304 -20 304 -20 172 59 c 1,0,-1
EndSplineSet
Validated: 1
EndChar
StartChar: six
Encoding: 54 54 25
Width: 600
GlyphClass: 2
Flags: W
LayerCount: 2
Fore
SplineSet
471 715 m 1,0,-1
 471 639 l 1,1,2
 436 651 436 651 390 651 c 0,3,4
 281 651 281 651 226 582 c 128,-1,5
 171 513 171 513 166 364 c 1,6,-1
 172 364 l 1,7,8
 218 447 218 447 322 447 c 0,9,10
 417 447 417 447 471 389 c 128,-1,11
 525 331 525 331 525 230 c 0,12,13
 525 119 525 119 466 54.5 c 128,-1,14
 407 -10 407 -10 308 -10 c 0,15,16
 202 -10 202 -10 138.5 72.5 c 128,-1,17
 75 155 75 155 75 305 c 0,18,19
 75 724 75 724 387 724 c 0,20,21
 438 724 438 724 471 715 c 1,0,-1
439 230 m 0,22,23
 439 301 439 301 405.5 339 c 128,-1,24
 372 377 372 377 310 377 c 256,25,26
 248 377 248 377 206 337.5 c 128,-1,27
 164 298 164 298 164 247 c 0,28,29
 164 173 164 173 203.5 119 c 128,-1,30
 243 65 243 65 307 65 c 0,31,32
 369 65 369 65 404 108 c 128,-1,33
 439 151 439 151 439 230 c 0,22,23
EndSplineSet
Validated: 1
EndChar
StartChar: seven
Encoding: 55 55 26
Width: 600
GlyphClass: 2
Flags: W
LayerCount: 2
Fore
SplineSet
163 0 m 1,0,-1
 438 633 l 1,1,-1
 70 633 l 1,2,-1
 70 714 l 1,3,-1
 529 714 l 1,4,-1
 529 643 l 1,5,-1
 258 0 l 1,6,-1
 163 0 l 1,0,-1
EndSplineSet
Validated: 1
EndChar
StartChar: eight
Encoding: 56 56 27
Width: 600
GlyphClass: 2
Flags: W
LayerCount: 2
Fore
SplineSet
373 378 m 1,0,1
 524 300 524 300 524 186 c 0,2,3
 524 98 524 98 462.5 44 c 128,-1,4
 401 -10 401 -10 300 -10 c 0,5,6
 195 -10 195 -10 135.5 40.5 c 128,-1,7
 76 91 76 91 76 182 c 0,8,9
 76 307 76 307 214 374 c 1,10,11
 99 445 99 445 99 554 c 0,12,13
 99 633 99 633 156 679 c 128,-1,14
 213 725 213 725 300 725 c 0,15,16
 390 725 390 725 445.5 678.5 c 128,-1,17
 501 632 501 632 501 553 c 0,18,19
 501 441 501 441 373 378 c 1,0,1
301 414 m 1,20,21
 414 464 414 464 414 550 c 0,22,23
 414 599 414 599 383.5 625 c 128,-1,24
 353 651 353 651 299 651 c 0,25,26
 247 651 247 651 216.5 625 c 128,-1,27
 186 599 186 599 186 550 c 0,28,29
 186 506 186 506 210.5 475.5 c 128,-1,30
 235 445 235 445 301 414 c 1,20,21
287 340 m 1,31,32
 163 281 163 281 163 181 c 0,33,34
 163 64 163 64 298 64 c 0,35,36
 364 64 364 64 400.5 96 c 128,-1,37
 437 128 437 128 437 185 c 0,38,39
 437 229 437 229 406 263 c 128,-1,40
 375 297 375 297 302 333 c 2,41,-1
 287 340 l 1,31,32
EndSplineSet
Validated: 1
EndChar
StartChar: nine
Encoding: 57 57 28
Width: 1229
GlyphClass: 2
Flags: W
LayerCount: 2
Back
Fore
SplineSet
264 -2 m 1,0,-1
 264 154 l 1,1,2
 331 129 331 129 430 129 c 0,3,4
 654 129 654 129 766.5 270 c 128,-1,5
 879 411 879 411 889 717 c 1,6,-1
 877 717 l 1,7,8
 781 547 781 547 569 547 c 0,9,10
 375 547 375 547 264.5 665 c 128,-1,11
 154 783 154 783 154 991 c 0,12,13
 154 1219 154 1219 274.5 1351 c 128,-1,14
 395 1483 395 1483 598 1483 c 0,15,16
 818 1483 818 1483 946.5 1312 c 128,-1,17
 1075 1141 1075 1141 1075 838 c 0,18,19
 1075 -20 1075 -20 436 -20 c 0,20,21
 331 -20 331 -20 264 -2 c 1,0,-1
330 991 m 0,22,23
 330 846 330 846 398.5 768 c 128,-1,24
 467 690 467 690 594 690 c 256,25,26
 721 690 721 690 807 771.5 c 128,-1,27
 893 853 893 853 893 956 c 0,28,29
 893 1107 893 1107 813 1218 c 128,-1,30
 733 1329 733 1329 600 1329 c 0,31,32
 472 1329 472 1329 401 1242 c 128,-1,33
 330 1155 330 1155 330 991 c 0,22,23
EndSplineSet
EndChar
StartChar: colon
Encoding: 58 58 29
Width: 600
GlyphClass: 2
Flags: W
LayerCount: 2
Fore
SplineSet
300 550 m 256,0,1
 362 550 362 550 362 482 c 256,2,3
 362 414 362 414 300 414 c 256,4,5
 238 414 238 414 238 482 c 256,6,7
 238 550 238 550 300 550 c 256,0,1
300 122 m 256,8,9
 362 122 362 122 362 54 c 256,10,11
 362 -14 362 -14 300 -14 c 256,12,13
 238 -14 238 -14 238 54 c 256,14,15
 238 122 238 122 300 122 c 256,8,9
EndSplineSet
Validated: 1
EndChar
StartChar: semicolon
Encoding: 59 59 30
Width: 1229
GlyphClass: 2
Flags: W
LayerCount: 2
Back
Fore
SplineSet
621 1126 m 256,0,1
 748 1126 748 1126 748 987 c 256,2,3
 748 848 748 848 621 848 c 256,4,5
 494 848 494 848 494 987 c 256,6,7
 494 1126 494 1126 621 1126 c 256,0,1
709 238 m 1,8,-1
 723 215 l 1,9,10
 672 18 672 18 547 -264 c 1,11,-1
 410 -264 l 1,12,13
 472 -9 472 -9 510 238 c 1,14,-1
 709 238 l 1,8,-1
EndSplineSet
Validated: 1
EndChar
StartChar: less
Encoding: 60 60 31
Width: 600
GlyphClass: 2
Flags: W
LayerCount: 2
Fore
SplineSet
525 108 m 1,0,-1
 74 328 l 1,1,-1
 74 378 l 1,2,-1
 525 598 l 1,3,-1
 525 520 l 1,4,-1
 176 353 l 1,5,-1
 525 186 l 1,6,-1
 525 108 l 1,0,-1
EndSplineSet
Validated: 1
Substitution2: "lig arrow left single-1" arrow_left_single
EndChar
StartChar: equal
Encoding: 61 61 32
Width: 1229
GlyphClass: 2
Flags: W
LayerCount: 2
Back
Fore
SplineSet
152 852 m 1,0,-1
 152 1001 l 1,1,-1
 1075 1001 l 1,2,-1
 1075 852 l 1,3,-1
 152 852 l 1,0,-1
152 442 m 1,4,-1
 152 592 l 1,5,-1
 1075 592 l 1,6,-1
 1075 442 l 1,7,-1
 152 442 l 1,4,-1
EndSplineSet
Validated: 1
EndChar
StartChar: greater
Encoding: 62 62 33
Width: 600
GlyphClass: 2
Flags: W
LayerCount: 2
Fore
SplineSet
74 186 m 1,0,-1
 423 353 l 1,1,-1
 74 520 l 1,2,-1
 74 598 l 1,3,-1
 525 378 l 1,4,-1
 525 328 l 1,5,-1
 74 108 l 1,6,-1
 74 186 l 1,0,-1
EndSplineSet
Validated: 1
Substitution2: "Single Substitution lookup 16 subtable" space
Substitution2: "Single Substitution lookup 12 subtable" space
EndChar
StartChar: question
Encoding: 63 63 34
Width: 1229
GlyphClass: 2
Flags: W
LayerCount: 2
Back
Fore
SplineSet
465 414 m 1,0,-1
 465 451 l 2,1,2
 465 571 465 571 511 646 c 128,-1,3
 557 721 557 721 672 803 c 0,4,5
 802 900 802 900 843.5 958 c 128,-1,6
 885 1016 885 1016 885 1116 c 0,7,8
 885 1208 885 1208 810.5 1265.5 c 128,-1,9
 736 1323 736 1323 604 1323 c 0,10,11
 430 1323 430 1323 233 1233 c 1,12,-1
 168 1386 l 1,13,14
 377 1483 377 1483 594 1483 c 0,15,16
 808 1483 808 1483 933.5 1385.5 c 128,-1,17
 1059 1288 1059 1288 1059 1124 c 0,18,19
 1059 991 1059 991 1005.5 908 c 128,-1,20
 952 825 952 825 809 717 c 0,21,22
 691 630 691 630 658 576 c 128,-1,23
 625 522 625 522 625 432 c 2,24,-1
 625 414 l 1,25,-1
 465 414 l 1,0,-1
553 250 m 256,26,27
 680 250 680 250 680 111 c 0,28,29
 680 -29 680 -29 553 -29 c 256,30,31
 426 -29 426 -29 426 111 c 0,32,33
 426 250 426 250 553 250 c 256,26,27
EndSplineSet
EndChar
StartChar: at
Encoding: 64 64 35
Width: 600
GlyphClass: 2
Flags: W
LayerCount: 2
Fore
SplineSet
390 196 m 1,0,-1
 388 196 l 1,1,2
 352 108 352 108 276 108 c 0,3,4
 217 108 217 108 183 159 c 128,-1,5
 149 210 149 210 149 296 c 0,6,7
 149 397 149 397 196.5 458.5 c 128,-1,8
 244 520 244 520 321 520 c 0,9,10
 388 520 388 520 446 497 c 1,11,-1
 435 294 l 2,12,13
 434 275 434 275 434 260 c 2,14,-1
 434 257 l 2,15,16
 434 171 434 171 469 171 c 0,17,18
 518 171 518 171 518 358 c 0,19,20
 518 494 518 494 464 571 c 128,-1,21
 410 648 410 648 318 648 c 0,22,23
 208 648 208 648 146 554 c 128,-1,24
 84 460 84 460 84 297 c 0,25,26
 84 145 84 145 147 61.5 c 128,-1,27
 210 -22 210 -22 327 -22 c 0,28,29
 415 -22 415 -22 496 16 c 1,30,-1
 496 -49 l 1,31,32
 419 -89 419 -89 324 -89 c 0,33,34
 178 -89 178 -89 96.5 12 c 128,-1,35
 15 113 15 113 15 294 c 0,36,37
 15 488 15 488 96.5 601 c 128,-1,38
 178 714 178 714 319 714 c 0,39,40
 440 714 440 714 512.5 618 c 128,-1,41
 585 522 585 522 585 357 c 0,42,43
 585 244 585 244 553.5 176 c 128,-1,44
 522 108 522 108 467 108 c 0,45,46
 404 108 404 108 390 196 c 1,0,-1
367 447 m 1,47,48
 341 457 341 457 317 457 c 0,49,50
 274 457 274 457 250.5 411.5 c 128,-1,51
 227 366 227 366 227 294 c 0,52,53
 227 171 227 171 289 171 c 0,54,55
 353 171 353 171 360 323 c 1,56,-1
 367 447 l 1,47,48
EndSplineSet
Validated: 1
EndChar
StartChar: A
Encoding: 65 65 36
Width: 1229
GlyphClass: 2
Flags: W
LayerCount: 2
Back
Fore
SplineSet
1004 0 m 1,0,-1
 860 453 l 1,1,-1
 369 453 l 1,2,-1
 223 0 l 1,3,-1
 33 0 l 1,4,-1
 516 1468 l 1,5,-1
 711 1468 l 1,6,-1
 1196 0 l 1,7,-1
 1004 0 l 1,0,-1
807 618 m 1,8,-1
 674 1042 l 2,9,10
 635 1166 635 1166 612 1268 c 1,11,12
 592 1169 592 1169 566 1085 c 2,13,-1
 422 618 l 1,14,-1
 807 618 l 1,8,-1
EndSplineSet
EndChar
StartChar: B
Encoding: 66 66 37
Width: 1229
GlyphClass: 2
Flags: W
LayerCount: 2
Back
Fore
SplineSet
135 1462 m 1,0,-1
 575 1462 l 2,1,2
 849 1462 849 1462 972.5 1374.5 c 128,-1,3
 1096 1287 1096 1287 1096 1092 c 0,4,5
 1096 964 1096 964 1017.5 879 c 128,-1,6
 939 794 939 794 805 776 c 1,7,-1
 805 766 l 1,8,9
 1137 712 1137 712 1137 424 c 0,10,11
 1137 226 1137 226 1009.5 113 c 128,-1,12
 882 0 882 0 662 0 c 2,13,-1
 135 0 l 1,14,-1
 135 1462 l 1,0,-1
322 842 m 1,15,-1
 606 842 l 2,16,17
 762 842 762 842 833.5 897 c 128,-1,18
 905 952 905 952 905 1079 c 0,19,20
 905 1199 905 1199 828.5 1251 c 128,-1,21
 752 1303 752 1303 586 1303 c 2,22,-1
 322 1303 l 1,23,-1
 322 842 l 1,15,-1
322 686 m 1,24,-1
 322 158 l 1,25,-1
 629 158 l 2,26,27
 940 158 940 158 940 432 c 0,28,29
 940 686 940 686 616 686 c 2,30,-1
 322 686 l 1,24,-1
EndSplineSet
EndChar
StartChar: C
Encoding: 67 67 38
Width: 1229
GlyphClass: 2
Flags: W
LayerCount: 2
Back
Fore
SplineSet
1124 201 m 1,0,-1
 1124 39 l 1,1,2
 978 -20 978 -20 766 -20 c 0,3,4
 457 -20 457 -20 293 176 c 128,-1,5
 129 372 129 372 129 733 c 0,6,7
 129 1079 129 1079 308 1281 c 128,-1,8
 487 1483 487 1483 797 1483 c 0,9,10
 1017 1483 1017 1483 1180 1397 c 1,11,-1
 1102 1241 l 1,12,13
 948 1319 948 1319 797 1319 c 0,14,15
 582 1319 582 1319 454 1160.5 c 128,-1,16
 326 1002 326 1002 326 731 c 0,17,18
 326 444 326 444 446 293.5 c 128,-1,19
 566 143 566 143 797 143 c 0,20,21
 927 143 927 143 1124 201 c 1,0,-1
EndSplineSet
EndChar
StartChar: D
Encoding: 68 68 39
Width: 600
GlyphClass: 2
Flags: W
LayerCount: 2
Fore
SplineSet
66 0 m 1,0,-1
 66 714 l 1,1,-1
 233 714 l 2,2,3
 388 714 388 714 474 621.5 c 128,-1,4
 560 529 560 529 560 364 c 0,5,6
 560 188 560 188 470.5 94 c 128,-1,7
 381 0 381 0 213 0 c 2,8,-1
 66 0 l 1,0,-1
157 636 m 1,9,-1
 157 78 l 1,10,-1
 204 78 l 2,11,12
 464 78 464 78 464 361 c 0,13,14
 464 636 464 636 223 636 c 2,15,-1
 157 636 l 1,9,-1
EndSplineSet
Validated: 1
EndChar
StartChar: E
Encoding: 69 69 40
Width: 1229
GlyphClass: 2
Flags: W
LayerCount: 2
Back
Fore
SplineSet
1059 0 m 1,0,-1
 217 0 l 1,1,-1
 217 1462 l 1,2,-1
 1059 1462 l 1,3,-1
 1059 1298 l 1,4,-1
 403 1298 l 1,5,-1
 403 846 l 1,6,-1
 1020 846 l 1,7,-1
 1020 684 l 1,8,-1
 403 684 l 1,9,-1
 403 164 l 1,10,-1
 1059 164 l 1,11,-1
 1059 0 l 1,0,-1
EndSplineSet
EndChar
StartChar: F
Encoding: 70 70 41
Width: 1229
GlyphClass: 2
Flags: W
LayerCount: 2
Back
Fore
SplineSet
430 0 m 1,0,-1
 244 0 l 1,1,-1
 244 1462 l 1,2,-1
 1085 1462 l 1,3,-1
 1085 1298 l 1,4,-1
 430 1298 l 1,5,-1
 430 782 l 1,6,-1
 1047 782 l 1,7,-1
 1047 618 l 1,8,-1
 430 618 l 1,9,-1
 430 0 l 1,0,-1
EndSplineSet
EndChar
StartChar: G
Encoding: 71 71 42
Width: 600
GlyphClass: 2
Flags: W
LayerCount: 2
Fore
SplineSet
328 377 m 1,0,-1
 534 377 l 1,1,-1
 534 27 l 1,2,3
 439 -10 439 -10 329 -10 c 0,4,5
 201 -10 201 -10 129 87.5 c 128,-1,6
 57 185 57 185 57 358 c 0,7,8
 57 529 57 529 136 626.5 c 128,-1,9
 215 724 215 724 354 724 c 0,10,11
 448 724 448 724 523 682 c 1,12,-1
 488 603 l 1,13,14
 417 644 417 644 351 644 c 0,15,16
 257 644 257 644 205 568 c 128,-1,17
 153 492 153 492 153 357 c 0,18,19
 153 70 153 70 345 70 c 0,20,21
 392 70 392 70 444 84 c 1,22,-1
 444 297 l 1,23,-1
 328 297 l 1,24,-1
 328 377 l 1,0,-1
EndSplineSet
Validated: 1
EndChar
StartChar: H
Encoding: 72 72 43
Width: 600
GlyphClass: 2
Flags: W
LayerCount: 2
Fore
SplineSet
534 0 m 1,0,-1
 443 0 l 1,1,-1
 443 333 l 1,2,-1
 157 333 l 1,3,-1
 157 0 l 1,4,-1
 66 0 l 1,5,-1
 66 714 l 1,6,-1
 157 714 l 1,7,-1
 157 413 l 1,8,-1
 443 413 l 1,9,-1
 443 714 l 1,10,-1
 534 714 l 1,11,-1
 534 0 l 1,0,-1
EndSplineSet
Validated: 1
EndChar
StartChar: I
Encoding: 73 73 44
Width: 600
GlyphClass: 2
Flags: W
LayerCount: 2
Fore
SplineSet
489 0 m 1,0,-1
 110 0 l 1,1,-1
 110 60 l 1,2,-1
 254 70 l 1,3,-1
 254 644 l 1,4,-1
 110 654 l 1,5,-1
 110 714 l 1,6,-1
 489 714 l 1,7,-1
 489 654 l 1,8,-1
 345 644 l 1,9,-1
 345 70 l 1,10,-1
 489 60 l 1,11,-1
 489 0 l 1,0,-1
EndSplineSet
Validated: 1
EndChar
StartChar: J
Encoding: 74 74 45
Width: 1229
GlyphClass: 2
Flags: W
LayerCount: 2
Back
Fore
SplineSet
137 39 m 1,0,-1
 137 205 l 1,1,2
 299 143 299 143 446 143 c 0,3,4
 607 143 607 143 700 222.5 c 128,-1,5
 793 302 793 302 793 449 c 2,6,-1
 793 1462 l 1,7,-1
 979 1462 l 1,8,-1
 979 451 l 2,9,10
 979 235 979 235 838.5 107.5 c 128,-1,11
 698 -20 698 -20 461 -20 c 0,12,13
 244 -20 244 -20 137 39 c 1,0,-1
EndSplineSet
Validated: 1
EndChar
StartChar: K
Encoding: 75 75 46
Width: 600
GlyphClass: 2
Flags: W
LayerCount: 2
Fore
SplineSet
585 0 m 1,0,-1
 482 0 l 1,1,-1
 262 341 l 1,2,-1
 194 285 l 1,3,-1
 194 0 l 1,4,-1
 103 0 l 1,5,-1
 103 714 l 1,6,-1
 194 714 l 1,7,-1
 194 357 l 1,8,-1
 253 439 l 1,9,-1
 474 714 l 1,10,-1
 576 714 l 1,11,-1
 322 403 l 1,12,-1
 585 0 l 1,0,-1
EndSplineSet
Validated: 1
EndChar
StartChar: L
Encoding: 76 76 47
Width: 600
GlyphClass: 2
Flags: W
LayerCount: 2
Fore
SplineSet
114 0 m 1,0,-1
 114 714 l 1,1,-1
 205 714 l 1,2,-1
 205 81 l 1,3,-1
 515 81 l 1,4,-1
 515 0 l 1,5,-1
 114 0 l 1,0,-1
EndSplineSet
Validated: 1
EndChar
StartChar: M
Encoding: 77 77 48
Width: 1229
GlyphClass: 2
Flags: W
LayerCount: 2
Back
Fore
SplineSet
532 0 m 1,0,-1
 254 1280 l 1,1,-1
 246 1280 l 1,2,3
 264 1014 264 1014 264 874 c 2,4,-1
 264 0 l 1,5,-1
 113 0 l 1,6,-1
 113 1462 l 1,7,-1
 360 1462 l 1,8,-1
 608 270 l 1,9,-1
 614 270 l 1,10,-1
 864 1462 l 1,11,-1
 1116 1462 l 1,12,-1
 1116 0 l 1,13,-1
 963 0 l 1,14,-1
 963 887 l 2,15,16
 963 989 963 989 977 1278 c 1,17,-1
 969 1278 l 1,18,-1
 686 0 l 1,19,-1
 532 0 l 1,0,-1
EndSplineSet
Validated: 1
EndChar
StartChar: N
Encoding: 78 78 49
Width: 600
GlyphClass: 2
Flags: W
LayerCount: 2
Fore
SplineSet
533 0 m 1,0,-1
 428 0 l 1,1,-1
 145 591 l 1,2,-1
 141 591 l 1,3,4
 150 456 150 456 150 387 c 2,5,-1
 150 0 l 1,6,-1
 66 0 l 1,7,-1
 66 714 l 1,8,-1
 170 714 l 1,9,-1
 452 126 l 1,10,-1
 455 126 l 1,11,12
 448 274 448 274 448 323 c 2,13,-1
 448 714 l 1,14,-1
 533 714 l 1,15,-1
 533 0 l 1,0,-1
EndSplineSet
Validated: 1
EndChar
StartChar: O
Encoding: 79 79 50
Width: 600
GlyphClass: 2
Flags: W
LayerCount: 2
Fore
SplineSet
301 -10 m 0,0,1
 41 -10 41 -10 41 359 c 0,2,3
 41 725 41 725 302 725 c 0,4,5
 427 725 427 725 493.5 629.5 c 128,-1,6
 560 534 560 534 560 358 c 256,7,8
 560 182 560 182 493 86 c 128,-1,9
 426 -10 426 -10 301 -10 c 0,0,1
301 70 m 0,10,11
 385 70 385 70 424.5 140.5 c 128,-1,12
 464 211 464 211 464 358 c 0,13,14
 464 506 464 506 424 575.5 c 128,-1,15
 384 645 384 645 302 645 c 0,16,17
 137 645 137 645 137 358 c 0,18,19
 137 70 137 70 301 70 c 0,10,11
EndSplineSet
Validated: 1
EndChar
StartChar: P
Encoding: 80 80 51
Width: 1229
GlyphClass: 2
Flags: W
LayerCount: 2
Back
Fore
SplineSet
362 569 m 1,0,-1
 362 0 l 1,1,-1
 176 0 l 1,2,-1
 176 1462 l 1,3,-1
 580 1462 l 2,4,5
 1094 1462 1094 1462 1094 1034 c 0,6,7
 1094 815 1094 815 955.5 692 c 128,-1,8
 817 569 817 569 553 569 c 2,9,-1
 362 569 l 1,0,-1
362 727 m 1,10,-1
 532 727 l 2,11,12
 730 727 730 727 815.5 799 c 128,-1,13
 901 871 901 871 901 1024 c 0,14,15
 901 1303 901 1303 563 1303 c 2,16,-1
 362 1303 l 1,17,-1
 362 727 l 1,10,-1
EndSplineSet
EndChar
StartChar: Q
Encoding: 81 81 52
Width: 1229
GlyphClass: 2
Flags: W
LayerCount: 2
Back
Fore
SplineSet
862 39 m 1,0,1
 947 -141 947 -141 1141 -272 c 1,2,-1
 1020 -414 l 1,3,4
 784 -243 784 -243 692 -14 c 1,5,6
 656 -20 656 -20 616 -20 c 0,7,8
 84 -20 84 -20 84 735 c 0,9,10
 84 1485 84 1485 618 1485 c 0,11,12
 874 1485 874 1485 1010.5 1289.5 c 128,-1,13
 1147 1094 1147 1094 1147 733 c 0,14,15
 1147 207 1147 207 862 39 c 1,0,1
616 143 m 0,16,17
 789 143 789 143 869.5 288 c 128,-1,18
 950 433 950 433 950 733 c 0,19,20
 950 1036 950 1036 868.5 1178.5 c 128,-1,21
 787 1321 787 1321 618 1321 c 0,22,23
 281 1321 281 1321 281 733 c 0,24,25
 281 143 281 143 616 143 c 0,16,17
EndSplineSet
Validated: 1
EndChar
StartChar: R
Encoding: 82 82 53
Width: 1229
GlyphClass: 2
Flags: W
LayerCount: 2
Back
Fore
SplineSet
373 604 m 1,0,-1
 373 0 l 1,1,-1
 186 0 l 1,2,-1
 186 1462 l 1,3,-1
 543 1462 l 2,4,5
 1063 1462 1063 1462 1063 1047 c 0,6,7
 1063 760 1063 760 774 655 c 1,8,-1
 1171 0 l 1,9,-1
 952 0 l 1,10,-1
 602 604 l 1,11,-1
 373 604 l 1,0,-1
373 762 m 1,12,-1
 537 762 l 2,13,14
 708 762 708 762 789 828 c 128,-1,15
 870 894 870 894 870 1038 c 0,16,17
 870 1179 870 1179 790 1241 c 128,-1,18
 710 1303 710 1303 532 1303 c 2,19,-1
 373 1303 l 1,20,-1
 373 762 l 1,12,-1
EndSplineSet
EndChar
StartChar: S
Encoding: 83 83 54
Width: 600
GlyphClass: 2
Flags: W
LayerCount: 2
Fore
SplineSet
69 24 m 1,0,-1
 69 111 l 1,1,2
 172 69 172 69 271 69 c 0,3,4
 442 69 442 69 442 186 c 0,5,6
 442 237 442 237 407.5 264.5 c 128,-1,7
 373 292 373 292 268 329 c 0,8,9
 166 365 166 365 122 414.5 c 128,-1,10
 78 464 78 464 78 543 c 0,11,12
 78 628 78 628 141 676 c 128,-1,13
 204 724 204 724 313 724 c 0,14,15
 425 724 425 724 516 686 c 1,16,-1
 485 606 l 1,17,18
 391 644 391 644 309 644 c 0,19,20
 166 644 166 644 166 542 c 0,21,22
 166 492 166 492 198 462 c 128,-1,23
 230 432 230 432 330 397 c 0,24,25
 450 354 450 354 490.5 308.5 c 128,-1,26
 531 263 531 263 531 191 c 0,27,28
 531 97 531 97 463.5 43.5 c 128,-1,29
 396 -10 396 -10 271 -10 c 0,30,31
 142 -10 142 -10 69 24 c 1,0,-1
EndSplineSet
Validated: 1
EndChar
StartChar: T
Encoding: 84 84 55
Width: 1229
GlyphClass: 2
Flags: W
LayerCount: 2
Back
Fore
SplineSet
707 0 m 1,0,-1
 520 0 l 1,1,-1
 520 1298 l 1,2,-1
 102 1298 l 1,3,-1
 102 1462 l 1,4,-1
 1124 1462 l 1,5,-1
 1124 1298 l 1,6,-1
 707 1298 l 1,7,-1
 707 0 l 1,0,-1
EndSplineSet
EndChar
StartChar: U
Encoding: 85 85 56
Width: 1229
GlyphClass: 2
Flags: W
LayerCount: 2
Back
Fore
SplineSet
1104 1464 m 1,0,-1
 1104 516 l 2,1,2
 1104 256 1104 256 978 118 c 128,-1,3
 852 -20 852 -20 608 -20 c 0,4,5
 125 -20 125 -20 125 520 c 2,6,-1
 125 1462 l 1,7,-1
 311 1462 l 1,8,-1
 311 530 l 2,9,10
 311 143 311 143 618 143 c 0,11,12
 913 143 913 143 918 532 c 1,13,-1
 918 1464 l 1,14,-1
 1104 1464 l 1,0,-1
EndSplineSet
EndChar
StartChar: V
Encoding: 86 86 57
Width: 600
GlyphClass: 2
Flags: W
LayerCount: 2
Fore
SplineSet
487 714 m 1,0,-1
 584 714 l 1,1,-1
 345 0 l 1,2,-1
 254 0 l 1,3,-1
 16 714 l 1,4,-1
 112 714 l 1,5,-1
 256 261 l 2,6,7
 276 199 276 199 299 98 c 1,8,9
 314 169 314 169 344 264 c 2,10,-1
 487 714 l 1,0,-1
EndSplineSet
Validated: 1
EndChar
StartChar: W
Encoding: 87 87 58
Width: 600
GlyphClass: 2
Flags: W
LayerCount: 2
Fore
SplineSet
258 492 m 1,0,-1
 344 492 l 1,1,-1
 415 238 l 2,2,3
 445 131 445 131 450 88 c 1,4,5
 451 114 451 114 482 390 c 2,6,-1
 516 714 l 1,7,-1
 599 714 l 1,8,-1
 508 0 l 1,9,-1
 415 0 l 1,10,-1
 333 283 l 2,11,12
 313 350 313 350 301 421 c 1,13,14
 285 337 285 337 269 282 c 2,15,-1
 193 0 l 1,16,-1
 100 0 l 1,17,-1
 1 714 l 1,18,-1
 84 714 l 1,19,-1
 127 390 l 2,20,21
 138 304 138 304 146.5 205.5 c 128,-1,22
 155 107 155 107 155 88 c 1,23,24
 167 162 167 162 189 240 c 2,25,-1
 258 492 l 1,0,-1
EndSplineSet
Validated: 1
EndChar
StartChar: X
Encoding: 88 88 59
Width: 1229
GlyphClass: 2
Flags: W
LayerCount: 2
Back
Fore
SplineSet
1174 0 m 1,0,-1
 963 0 l 1,1,-1
 608 635 l 1,2,-1
 242 0 l 1,3,-1
 53 0 l 1,4,-1
 506 764 l 1,5,-1
 84 1462 l 1,6,-1
 283 1462 l 1,7,-1
 614 903 l 1,8,-1
 948 1462 l 1,9,-1
 1139 1462 l 1,10,-1
 717 770 l 1,11,-1
 1174 0 l 1,0,-1
EndSplineSet
EndChar
StartChar: Y
Encoding: 89 89 60
Width: 1229
GlyphClass: 2
Flags: W
LayerCount: 2
Back
Fore
SplineSet
612 723 m 1,0,-1
 993 1462 l 1,1,-1
 1194 1462 l 1,2,-1
 707 569 l 1,3,-1
 707 0 l 1,4,-1
 520 0 l 1,5,-1
 520 559 l 1,6,-1
 33 1462 l 1,7,-1
 236 1462 l 1,8,-1
 612 723 l 1,0,-1
EndSplineSet
Validated: 1
EndChar
StartChar: Z
Encoding: 90 90 61
Width: 600
GlyphClass: 2
Flags: W
LayerCount: 2
Fore
SplineSet
549 0 m 1,0,-1
 50 0 l 1,1,-1
 50 71 l 1,2,-1
 437 633 l 1,3,-1
 60 633 l 1,4,-1
 60 714 l 1,5,-1
 539 714 l 1,6,-1
 539 643 l 1,7,-1
 152 81 l 1,8,-1
 549 81 l 1,9,-1
 549 0 l 1,0,-1
EndSplineSet
Validated: 1
EndChar
StartChar: bracketleft
Encoding: 91 91 62
Width: 600
GlyphClass: 2
Flags: W
LayerCount: 2
Fore
SplineSet
459 -158 m 1,0,-1
 201 -158 l 1,1,-1
 201 714 l 1,2,-1
 459 714 l 1,3,-1
 459 641 l 1,4,-1
 290 641 l 1,5,-1
 290 -85 l 1,6,-1
 459 -85 l 1,7,-1
 459 -158 l 1,0,-1
EndSplineSet
Validated: 1
EndChar
StartChar: backslash
Encoding: 92 92 63
Width: 600
GlyphClass: 2
Flags: W
LayerCount: 2
Fore
SplineSet
190 714 m 1,0,-1
 496 0 l 1,1,-1
 409 0 l 1,2,-1
 103 714 l 1,3,-1
 190 714 l 1,0,-1
EndSplineSet
Validated: 1
EndChar
StartChar: bracketright
Encoding: 93 93 64
Width: 600
GlyphClass: 2
Flags: W
LayerCount: 2
Fore
SplineSet
141 -85 m 1,0,-1
 310 -85 l 1,1,-1
 310 641 l 1,2,-1
 141 641 l 1,3,-1
 141 714 l 1,4,-1
 399 714 l 1,5,-1
 399 -158 l 1,6,-1
 141 -158 l 1,7,-1
 141 -85 l 1,0,-1
EndSplineSet
Validated: 1
EndChar
StartChar: asciicircum
Encoding: 94 94 65
Width: 1229
GlyphClass: 2
Flags: W
LayerCount: 2
Back
Fore
SplineSet
111 549 m 1,0,-1
 535 1473 l 1,1,-1
 637 1473 l 1,2,-1
 1118 549 l 1,3,-1
 956 549 l 1,4,-1
 588 1284 l 1,5,-1
 270 549 l 1,6,-1
 111 549 l 1,0,-1
EndSplineSet
EndChar
StartChar: underscore
Encoding: 95 95 66
Width: 600
GlyphClass: 2
Flags: W
LayerCount: 2
Fore
SplineSet
607 -158 m 1,0,-1
 -8 -158 l 1,1,-1
 -8 -90 l 1,2,-1
 607 -90 l 1,3,-1
 607 -158 l 1,0,-1
EndSplineSet
Validated: 1
EndChar
StartChar: grave
Encoding: 96 96 67
Width: 600
GlyphClass: 2
Flags: W
LayerCount: 2
Fore
SplineSet
396 606 m 1,0,-1
 337 606 l 1,1,2
 256 675 256 675 204 756 c 1,3,-1
 204 766 l 1,4,-1
 311 766 l 1,5,6
 353 679 353 679 396 619 c 1,7,-1
 396 606 l 1,0,-1
EndSplineSet
Validated: 1
EndChar
StartChar: a
Encoding: 97 97 68
Width: 600
GlyphClass: 2
Flags: W
LayerCount: 2
Fore
SplineSet
437 0 m 1,0,-1
 419 74 l 1,1,-1
 415 74 l 1,2,3
 377 27 377 27 337.5 8.5 c 128,-1,4
 298 -10 298 -10 236 -10 c 0,5,6
 156 -10 156 -10 111 32 c 128,-1,7
 66 74 66 74 66 150 c 0,8,9
 66 312 66 312 315 320 c 2,10,-1
 414 323 l 1,11,-1
 414 357 l 2,12,13
 414 472 414 472 295 472 c 0,14,15
 223 472 223 472 135 432 c 1,16,-1
 104 499 l 1,17,18
 200 546 200 546 291 546 c 0,19,20
 402 546 402 546 451.5 503.5 c 128,-1,21
 501 461 501 461 501 367 c 2,22,-1
 501 0 l 1,23,-1
 437 0 l 1,0,-1
413 262 m 1,24,-1
 334 259 l 2,25,26
 238 255 238 255 198 229 c 128,-1,27
 158 203 158 203 158 149 c 0,28,29
 158 62 158 62 256 62 c 0,30,31
 328 62 328 62 370.5 102 c 128,-1,32
 413 142 413 142 413 214 c 2,33,-1
 413 262 l 1,24,-1
EndSplineSet
Validated: 1
EndChar
StartChar: b
Encoding: 98 98 69
Width: 1229
GlyphClass: 2
Flags: W
LayerCount: 2
Back
Fore
SplineSet
340 139 m 1,0,-1
 328 139 l 1,1,-1
 291 0 l 1,2,-1
 158 0 l 1,3,-1
 158 1556 l 1,4,-1
 340 1556 l 1,5,-1
 340 1180 l 2,6,7
 340 1099 340 1099 332 954 c 1,8,-1
 340 954 l 1,9,10
 447 1118 447 1118 662 1118 c 0,11,12
 863 1118 863 1118 977.5 968.5 c 128,-1,13
 1092 819 1092 819 1092 551 c 0,14,15
 1092 281 1092 281 977 130.5 c 128,-1,16
 862 -20 862 -20 662 -20 c 0,17,18
 455 -20 455 -20 340 139 c 1,0,-1
340 551 m 0,19,20
 340 324 340 324 409.5 227.5 c 128,-1,21
 479 131 479 131 631 131 c 0,22,23
 903 131 903 131 903 553 c 0,24,25
 903 967 903 967 629 967 c 0,26,27
 474 967 474 967 407 873 c 128,-1,28
 340 779 340 779 340 551 c 0,19,20
EndSplineSet
EndChar
StartChar: c
Encoding: 99 99 70
Width: 600
GlyphClass: 2
Flags: W
LayerCount: 2
Fore
SplineSet
518 517 m 1,0,-1
 488 440 l 1,1,2
 415 468 415 468 357 468 c 0,3,4
 176 468 176 468 176 266 c 0,5,6
 176 68 176 68 352 68 c 0,7,8
 429 68 429 68 509 98 c 1,9,-1
 509 20 l 1,10,11
 444 -10 444 -10 348 -10 c 0,12,13
 223 -10 223 -10 153.5 61 c 128,-1,14
 84 132 84 132 84 265 c 0,15,16
 84 402 84 402 155 474 c 128,-1,17
 226 546 226 546 354 546 c 0,18,19
 441 546 441 546 518 517 c 1,0,-1
EndSplineSet
Validated: 1
EndChar
StartChar: d
Encoding: 100 100 71
Width: 600
GlyphClass: 2
Flags: W
LayerCount: 2
Fore
SplineSet
438 72 m 1,0,-1
 434 72 l 1,1,2
 379 -10 379 -10 277 -10 c 0,3,4
 179 -10 179 -10 123 63 c 128,-1,5
 67 136 67 136 67 267 c 0,6,7
 67 399 67 399 123 472.5 c 128,-1,8
 179 546 179 546 277 546 c 0,9,10
 378 546 378 546 434 468 c 1,11,-1
 440 468 l 1,12,13
 434 531 434 531 434 547 c 2,14,-1
 434 760 l 1,15,-1
 523 760 l 1,16,-1
 523 0 l 1,17,-1
 451 0 l 1,18,-1
 438 72 l 1,0,-1
434 247 m 1,19,-1
 434 267 l 2,20,21
 434 378 434 378 400 425 c 128,-1,22
 366 472 366 472 292 472 c 0,23,24
 159 472 159 472 159 266 c 0,25,26
 159 64 159 64 293 64 c 0,27,28
 367 64 367 64 399.5 107 c 128,-1,29
 432 150 432 150 434 247 c 1,19,-1
EndSplineSet
Validated: 1
EndChar
StartChar: e
Encoding: 101 101 72
Width: 1229
GlyphClass: 2
Flags: W
LayerCount: 2
Back
Fore
SplineSet
1096 514 m 1,0,-1
 322 514 l 1,1,2
 330 139 330 139 666 139 c 0,3,4
 861 139 861 139 1036 215 c 1,5,-1
 1036 55 l 1,6,7
 870 -20 870 -20 672 -20 c 0,8,9
 427 -20 427 -20 280 129.5 c 128,-1,10
 133 279 133 279 133 541 c 0,11,12
 133 807 133 807 268.5 962.5 c 128,-1,13
 404 1118 404 1118 631 1118 c 0,14,15
 843 1118 843 1118 969.5 984 c 128,-1,16
 1096 850 1096 850 1096 627 c 2,17,-1
 1096 514 l 1,0,-1
326 662 m 1,18,-1
 899 662 l 1,19,20
 899 967 899 967 627 967 c 0,21,22
 352 967 352 967 326 662 c 1,18,-1
EndSplineSet
EndChar
StartChar: f
Encoding: 102 102 73
Width: 600
GlyphClass: 2
Flags: W
LayerCount: 2
Fore
SplineSet
510 469 m 1,0,-1
 320 469 l 1,1,-1
 320 0 l 1,2,-1
 231 0 l 1,3,-1
 231 469 l 1,4,-1
 76 469 l 1,5,-1
 76 523 l 1,6,-1
 231 539 l 1,7,-1
 231 586 l 2,8,9
 231 680 231 680 275 722.5 c 128,-1,10
 319 765 319 765 421 765 c 0,11,12
 484 765 484 765 544 748 c 1,13,-1
 524 678 l 1,14,15
 473 692 473 692 423 692 c 0,16,17
 363 692 363 692 341.5 667.5 c 128,-1,18
 320 643 320 643 320 587 c 2,19,-1
 320 536 l 1,20,-1
 510 536 l 1,21,-1
 510 469 l 1,0,-1
EndSplineSet
Validated: 1
EndChar
StartChar: g
Encoding: 103 103 74
Width: 600
GlyphClass: 2
Flags: W
LayerCount: 2
Fore
SplineSet
550 536 m 1,0,-1
 550 481 l 1,1,-1
 454 468 l 1,2,3
 486 426 486 426 486 364 c 0,4,5
 486 285 486 285 434 238.5 c 128,-1,6
 382 192 382 192 289 192 c 0,7,8
 262 192 262 192 247 195 c 1,9,10
 198 168 198 168 198 130 c 0,11,12
 198 89 198 89 277 89 c 2,13,-1
 368 89 l 2,14,15
 453 89 453 89 498 51.5 c 128,-1,16
 543 14 543 14 543 -56 c 0,17,18
 543 -240 543 -240 267 -240 c 0,19,20
 161 -240 161 -240 105.5 -201 c 128,-1,21
 50 -162 50 -162 50 -91 c 0,22,23
 50 13 50 13 167 41 c 1,24,25
 120 64 120 64 120 116 c 0,26,27
 120 171 120 171 185 210 c 1,28,29
 142 228 142 228 117 270 c 128,-1,30
 92 312 92 312 92 361 c 0,31,32
 92 450 92 450 144 498 c 128,-1,33
 196 546 196 546 292 546 c 0,34,35
 334 546 334 546 365 536 c 1,36,-1
 550 536 l 1,0,-1
290 253 m 0,37,38
 399 253 399 253 399 365 c 0,39,40
 399 482 399 482 289 482 c 256,41,42
 179 482 179 482 179 364 c 0,43,44
 179 253 179 253 290 253 c 0,37,38
338 9 m 2,45,-1
 246 9 l 2,46,47
 134 9 134 9 134 -88 c 0,48,49
 134 -173 134 -173 266 -173 c 0,50,51
 459 -173 459 -173 459 -64 c 0,52,53
 459 -21 459 -21 434.5 -6 c 128,-1,54
 410 9 410 9 338 9 c 2,45,-1
EndSplineSet
Validated: 1
EndChar
StartChar: h
Encoding: 104 104 75
Width: 1229
GlyphClass: 2
Flags: W
LayerCount: 2
Back
Fore
SplineSet
887 0 m 1,0,-1
 887 707 l 2,1,2
 887 967 887 967 649 967 c 0,3,4
 342 967 342 967 342 569 c 2,5,-1
 342 0 l 1,6,-1
 160 0 l 1,7,-1
 160 1556 l 1,8,-1
 342 1556 l 1,9,-1
 342 1094 l 1,10,-1
 334 950 l 1,11,-1
 344 950 l 1,12,13
 447 1118 447 1118 680 1118 c 0,14,15
 1069 1118 1069 1118 1069 717 c 2,16,-1
 1069 0 l 1,17,-1
 887 0 l 1,0,-1
EndSplineSet
Validated: 1
EndChar
StartChar: i
Encoding: 105 105 76
Width: 1229
GlyphClass: 2
Flags: W
LayerCount: 2
Back
Fore
SplineSet
633 1550 m 0,0,1
 739 1550 739 1550 739 1436 c 0,2,3
 739 1378 739 1378 707.5 1349.5 c 128,-1,4
 676 1321 676 1321 633 1321 c 0,5,6
 526 1321 526 1321 526 1436 c 0,7,8
 526 1550 526 1550 633 1550 c 0,0,1
541 954 m 1,9,-1
 272 975 l 1,10,-1
 272 1098 l 1,11,-1
 723 1098 l 1,12,-1
 723 143 l 1,13,-1
 1075 123 l 1,14,-1
 1075 0 l 1,15,-1
 197 0 l 1,16,-1
 197 123 l 1,17,-1
 541 143 l 1,18,-1
 541 954 l 1,9,-1
EndSplineSet
Validated: 1
EndChar
StartChar: j
Encoding: 106 106 77
Width: 600
GlyphClass: 2
Flags: W
LayerCount: 2
Fore
SplineSet
363 757 m 0,0,1
 415 757 415 757 415 701 c 0,2,3
 415 645 415 645 363 645 c 0,4,5
 311 645 311 645 311 701 c 0,6,7
 311 757 311 757 363 757 c 0,0,1
66 -223 m 1,8,-1
 66 -148 l 1,9,10
 131 -167 131 -167 207 -167 c 0,11,12
 264 -167 264 -167 296 -139 c 128,-1,13
 328 -111 328 -111 328 -62 c 2,14,-1
 328 466 l 1,15,-1
 123 476 l 1,16,-1
 123 536 l 1,17,-1
 417 536 l 1,18,-1
 417 -57 l 2,19,20
 417 -145 417 -145 362 -192.5 c 128,-1,21
 307 -240 307 -240 206 -240 c 0,22,23
 126 -240 126 -240 66 -223 c 1,8,-1
EndSplineSet
Validated: 1
EndChar
StartChar: k
Encoding: 107 107 78
Width: 600
GlyphClass: 2
Flags: W
LayerCount: 2
Fore
SplineSet
187 270 m 1,0,-1
 253 344 l 1,1,-1
 446 536 l 1,2,-1
 554 536 l 1,3,-1
 313 304 l 1,4,-1
 568 0 l 1,5,-1
 464 0 l 1,6,-1
 256 246 l 1,7,-1
 193 206 l 1,8,-1
 193 0 l 1,9,-1
 105 0 l 1,10,-1
 105 760 l 1,11,-1
 193 760 l 1,12,-1
 193 411 l 1,13,-1
 185 270 l 1,14,-1
 187 270 l 1,0,-1
EndSplineSet
Validated: 1
EndChar
StartChar: l
Encoding: 108 108 79
Width: 600
GlyphClass: 2
Flags: W
LayerCount: 2
Fore
SplineSet
260 690 m 1,0,-1
 129 700 l 1,1,-1
 129 760 l 1,2,-1
 349 760 l 1,3,-1
 349 70 l 1,4,-1
 521 60 l 1,5,-1
 521 0 l 1,6,-1
 92 0 l 1,7,-1
 92 60 l 1,8,-1
 260 70 l 1,9,-1
 260 690 l 1,0,-1
EndSplineSet
Validated: 1
EndChar
StartChar: m
Encoding: 109 109 80
Width: 1229
GlyphClass: 2
Flags: W
LayerCount: 2
Back
Fore
SplineSet
977 0 m 1,0,-1
 977 707 l 2,1,2
 977 853 977 853 950.5 910 c 128,-1,3
 924 967 924 967 862 967 c 0,4,5
 775 967 775 967 735.5 884 c 128,-1,6
 696 801 696 801 696 606 c 2,7,-1
 696 0 l 1,8,-1
 535 0 l 1,9,-1
 535 707 l 2,10,11
 535 967 535 967 410 967 c 0,12,13
 326 967 326 967 290 887.5 c 128,-1,14
 254 808 254 808 254 569 c 2,15,-1
 254 0 l 1,16,-1
 92 0 l 1,17,-1
 92 1098 l 1,18,-1
 219 1098 l 1,19,-1
 246 950 l 1,20,-1
 256 950 l 1,21,22
 323 1118 323 1118 457 1118 c 0,23,24
 620 1118 620 1118 670 936 c 1,25,-1
 676 936 l 1,26,27
 752 1118 752 1118 895 1118 c 0,28,29
 1023 1118 1023 1118 1081 1025.5 c 128,-1,30
 1139 933 1139 933 1139 717 c 2,31,-1
 1139 0 l 1,32,-1
 977 0 l 1,0,-1
EndSplineSet
Validated: 1
EndChar
StartChar: n
Encoding: 110 110 81
Width: 1229
GlyphClass: 2
Flags: W
LayerCount: 2
Back
Fore
SplineSet
887 0 m 1,0,-1
 887 707 l 2,1,2
 887 967 887 967 649 967 c 0,3,4
 342 967 342 967 342 569 c 2,5,-1
 342 0 l 1,6,-1
 160 0 l 1,7,-1
 160 1098 l 1,8,-1
 307 1098 l 1,9,-1
 334 950 l 1,10,-1
 344 950 l 1,11,12
 447 1118 447 1118 680 1118 c 0,13,14
 1069 1118 1069 1118 1069 717 c 2,15,-1
 1069 0 l 1,16,-1
 887 0 l 1,0,-1
EndSplineSet
Validated: 1
EndChar
StartChar: o
Encoding: 111 111 82
Width: 600
GlyphClass: 2
Flags: W
LayerCount: 2
Fore
SplineSet
298 -10 m 0,0,1
 193 -10 193 -10 124.5 66 c 128,-1,2
 56 142 56 142 56 269 c 0,3,4
 56 397 56 397 122 471.5 c 128,-1,5
 188 546 188 546 301 546 c 0,6,7
 407 546 407 546 475 470.5 c 128,-1,8
 543 395 543 395 543 269 c 0,9,10
 543 140 543 140 476 65 c 128,-1,11
 409 -10 409 -10 298 -10 c 0,0,1
300 64 m 0,12,13
 451 64 451 64 451 269 c 0,14,15
 451 472 451 472 299 472 c 0,16,17
 148 472 148 472 148 269 c 0,18,19
 148 64 148 64 300 64 c 0,12,13
EndSplineSet
Validated: 1
EndChar
StartChar: p
Encoding: 112 112 83
Width: 600
GlyphClass: 2
Flags: W
LayerCount: 2
Fore
SplineSet
166 68 m 1,0,-1
 160 68 l 1,1,2
 166 5 166 5 166 -11 c 2,3,-1
 166 -240 l 1,4,-1
 77 -240 l 1,5,-1
 77 536 l 1,6,-1
 149 536 l 1,7,-1
 162 464 l 1,8,-1
 166 464 l 1,9,10
 220 546 220 546 323 546 c 0,11,12
 421 546 421 546 477 473 c 128,-1,13
 533 400 533 400 533 269 c 0,14,15
 533 137 533 137 477 63.5 c 128,-1,16
 421 -10 421 -10 323 -10 c 0,17,18
 222 -10 222 -10 166 68 c 1,0,-1
166 289 m 1,19,-1
 166 269 l 2,20,21
 166 158 166 158 200 111 c 128,-1,22
 234 64 234 64 308 64 c 0,23,24
 441 64 441 64 441 270 c 0,25,26
 441 472 441 472 307 472 c 0,27,28
 233 472 233 472 200.5 429 c 128,-1,29
 168 386 168 386 166 289 c 1,19,-1
EndSplineSet
Validated: 1
EndChar
StartChar: q
Encoding: 113 113 84
Width: 600
GlyphClass: 2
Flags: W
LayerCount: 2
Fore
SplineSet
434 464 m 1,0,-1
 438 464 l 1,1,-1
 451 536 l 1,2,-1
 523 536 l 1,3,-1
 523 -240 l 1,4,-1
 434 -240 l 1,5,-1
 434 -11 l 2,6,7
 434 9 434 9 440 72 c 1,8,-1
 434 72 l 1,9,10
 379 -10 379 -10 277 -10 c 0,11,12
 179 -10 179 -10 123 63 c 128,-1,13
 67 136 67 136 67 267 c 0,14,15
 67 399 67 399 123 472.5 c 128,-1,16
 179 546 179 546 277 546 c 0,17,18
 378 546 378 546 434 464 c 1,0,-1
434 247 m 1,19,-1
 434 267 l 2,20,21
 434 378 434 378 400 425 c 128,-1,22
 366 472 366 472 292 472 c 0,23,24
 159 472 159 472 159 266 c 0,25,26
 159 64 159 64 293 64 c 0,27,28
 367 64 367 64 399.5 107 c 128,-1,29
 432 150 432 150 434 247 c 1,19,-1
EndSplineSet
Validated: 1
EndChar
StartChar: r
Encoding: 114 114 85
Width: 600
GlyphClass: 2
Flags: W
LayerCount: 2
Fore
SplineSet
517 524 m 1,0,-1
 493 443 l 1,1,2
 433 465 433 465 384 465 c 0,3,4
 304 465 304 465 261 420 c 128,-1,5
 218 375 218 375 218 289 c 2,6,-1
 218 0 l 1,7,-1
 129 0 l 1,8,-1
 129 536 l 1,9,-1
 201 536 l 1,10,-1
 212 438 l 1,11,-1
 216 438 l 1,12,13
 253 496 253 496 295.5 521 c 128,-1,14
 338 546 338 546 400 546 c 0,15,16
 457 546 457 546 517 524 c 1,0,-1
EndSplineSet
Validated: 1
EndChar
StartChar: s
Encoding: 115 115 86
Width: 600
GlyphClass: 2
Flags: W
LayerCount: 2
Fore
SplineSet
99 24 m 1,0,-1
 99 105 l 1,1,2
 193 63 193 63 280 63 c 0,3,4
 414 63 414 63 414 142 c 0,5,6
 414 170 414 170 390 190.5 c 128,-1,7
 366 211 366 211 280 242 c 0,8,9
 166 284 166 284 136.5 319.5 c 128,-1,10
 107 355 107 355 107 404 c 0,11,12
 107 470 107 470 161.5 508 c 128,-1,13
 216 546 216 546 312 546 c 0,14,15
 409 546 409 546 492 510 c 1,16,-1
 463 437 l 1,17,18
 374 472 374 472 307 472 c 0,19,20
 192 472 192 472 192 407 c 0,21,22
 192 377 192 377 216.5 359.5 c 128,-1,23
 241 342 241 342 330 310 c 0,24,25
 433 272 433 272 467 236 c 128,-1,26
 501 200 501 200 501 147 c 0,27,28
 501 74 501 74 444 32 c 128,-1,29
 387 -10 387 -10 282 -10 c 0,30,31
 161 -10 161 -10 99 24 c 1,0,-1
EndSplineSet
Validated: 1
EndChar
StartChar: t
Encoding: 116 116 87
Width: 600
GlyphClass: 2
Flags: W
LayerCount: 2
Fore
SplineSet
498 73 m 1,0,-1
 498 6 l 1,1,2
 435 -10 435 -10 375 -10 c 0,3,4
 198 -10 198 -10 198 158 c 2,5,-1
 198 469 l 1,6,-1
 68 469 l 1,7,-1
 68 515 l 1,8,-1
 198 539 l 1,9,-1
 236 679 l 1,10,-1
 287 679 l 1,11,-1
 287 536 l 1,12,-1
 501 536 l 1,13,-1
 501 469 l 1,14,-1
 287 469 l 1,15,-1
 287 158 l 2,16,17
 287 63 287 63 381 63 c 0,18,19
 426 63 426 63 498 73 c 1,0,-1
EndSplineSet
Validated: 1
EndChar
StartChar: u
Encoding: 117 117 88
Width: 600
GlyphClass: 2
Flags: W
LayerCount: 2
Fore
SplineSet
450 0 m 1,0,-1
 437 72 l 1,1,-1
 432 72 l 1,2,3
 381 -10 381 -10 269 -10 c 0,4,5
 78 -10 78 -10 78 186 c 2,6,-1
 78 536 l 1,7,-1
 167 536 l 1,8,-1
 167 191 l 2,9,10
 167 64 167 64 282 64 c 0,11,12
 361 64 361 64 397 109 c 128,-1,13
 433 154 433 154 433 258 c 2,14,-1
 433 536 l 1,15,-1
 522 536 l 1,16,-1
 522 0 l 1,17,-1
 450 0 l 1,0,-1
EndSplineSet
Validated: 1
EndChar
StartChar: v
Encoding: 118 118 89
Width: 600
GlyphClass: 2
Flags: W
LayerCount: 2
Fore
SplineSet
243 0 m 1,0,-1
 40 536 l 1,1,-1
 132 536 l 1,2,-1
 249 218 l 2,3,4
 291 105 291 105 298 59 c 1,5,-1
 301 59 l 1,6,7
 304 80 304 80 350 218 c 1,8,-1
 467 536 l 1,9,-1
 559 536 l 1,10,-1
 356 0 l 1,11,-1
 243 0 l 1,0,-1
EndSplineSet
Validated: 1
EndChar
StartChar: w
Encoding: 119 119 90
Width: 600
GlyphClass: 2
Flags: W
LayerCount: 2
Fore
SplineSet
397 0 m 1,0,-1
 333 291 l 1,1,-1
 300 452 l 1,2,-1
 297 452 l 1,3,-1
 265 289 l 1,4,-1
 199 0 l 1,5,-1
 107 0 l 1,6,-1
 -2 536 l 1,7,-1
 77 536 l 1,8,-1
 125 271 l 2,9,10
 142 180 142 180 153 79 c 1,11,-1
 156 79 l 1,12,13
 171 169 171 169 189 254 c 2,14,-1
 254 536 l 1,15,-1
 348 536 l 1,16,-1
 410 254 l 2,17,18
 431 159 431 159 443 79 c 1,19,-1
 446 79 l 1,20,21
 461 197 461 197 475 271 c 2,22,-1
 525 536 l 1,23,-1
 602 536 l 1,24,-1
 492 0 l 1,25,-1
 397 0 l 1,0,-1
EndSplineSet
Validated: 1
EndChar
StartChar: x
Encoding: 120 120 91
Width: 1229
GlyphClass: 2
Flags: W
LayerCount: 2
Back
Fore
SplineSet
510 563 m 1,0,-1
 117 1098 l 1,1,-1
 324 1098 l 1,2,-1
 614 688 l 1,3,-1
 905 1098 l 1,4,-1
 1112 1098 l 1,5,-1
 717 563 l 1,6,-1
 1130 0 l 1,7,-1
 924 0 l 1,8,-1
 614 436 l 1,9,-1
 303 0 l 1,10,-1
 96 0 l 1,11,-1
 510 563 l 1,0,-1
EndSplineSet
Validated: 1
EndChar
StartChar: y
Encoding: 121 121 92
Width: 600
GlyphClass: 2
Flags: W
LayerCount: 2
Fore
SplineSet
40 536 m 1,0,-1
 132 536 l 1,1,-1
 260 217 l 2,2,3
 300 117 300 117 303 75 c 1,4,-1
 306 75 l 1,5,6
 317 130 317 130 350 218 c 2,7,-1
 467 536 l 1,8,-1
 559 536 l 1,9,-1
 327 -70 l 2,10,11
 294 -155 294 -155 251 -197.5 c 128,-1,12
 208 -240 208 -240 131 -240 c 0,13,14
 89 -240 89 -240 49 -232 c 1,15,-1
 49 -161 l 1,16,17
 79 -167 79 -167 115 -167 c 0,18,19
 162 -167 162 -167 188 -147 c 128,-1,20
 214 -127 214 -127 235 -78 c 2,21,-1
 263 -5 l 1,22,-1
 40 536 l 1,0,-1
EndSplineSet
Validated: 1
EndChar
StartChar: z
Encoding: 122 122 93
Width: 600
GlyphClass: 2
Flags: W
LayerCount: 2
Fore
SplineSet
510 0 m 1,0,-1
 89 0 l 1,1,-1
 89 61 l 1,2,-1
 411 469 l 1,3,-1
 105 469 l 1,4,-1
 105 536 l 1,5,-1
 501 536 l 1,6,-1
 501 465 l 1,7,-1
 185 67 l 1,8,-1
 510 67 l 1,9,-1
 510 0 l 1,0,-1
EndSplineSet
Validated: 1
EndChar
StartChar: braceleft
Encoding: 123 123 94
Width: 1229
GlyphClass: 2
Flags: W
LayerCount: 2
Back
Fore
SplineSet
745 -16 m 2,0,1
 745 -97 745 -97 801 -134.5 c 128,-1,2
 857 -172 857 -172 1001 -174 c 1,3,-1
 1001 -324 l 1,4,5
 563 -318 563 -318 563 -31 c 2,6,-1
 563 303 l 2,7,8
 563 492 563 492 225 492 c 1,9,-1
 225 647 l 1,10,11
 563 647 563 647 563 836 c 2,12,-1
 563 1169 l 2,13,14
 563 1456 563 1456 1001 1462 c 1,15,-1
 1001 1313 l 1,16,17
 857 1311 857 1311 801 1273.5 c 128,-1,18
 745 1236 745 1236 745 1155 c 2,19,-1
 745 823 l 2,20,21
 745 616 745 616 512 575 c 1,22,-1
 512 563 l 1,23,24
 745 522 745 522 745 315 c 2,25,-1
 745 -16 l 2,0,1
EndSplineSet
EndChar
StartChar: bar
Encoding: 124 124 95
Width: 600
GlyphClass: 2
Flags: W
LayerCount: 2
Fore
SplineSet
263 760 m 1,0,-1
 336 760 l 1,1,-1
 336 -240 l 1,2,-1
 263 -240 l 1,3,-1
 263 760 l 1,0,-1
EndSplineSet
Validated: 1
EndChar
StartChar: braceright
Encoding: 125 125 96
Width: 600
GlyphClass: 2
Flags: W
LayerCount: 2
Fore
SplineSet
236 154 m 2,0,1
 236 255 236 255 350 275 c 1,2,-1
 350 281 l 1,3,4
 236 301 236 301 236 402 c 2,5,-1
 236 564 l 2,6,7
 236 604 236 604 208.5 622.5 c 128,-1,8
 181 641 181 641 111 641 c 1,9,-1
 111 714 l 1,10,11
 325 711 325 711 325 571 c 2,12,-1
 325 408 l 2,13,14
 325 316 325 316 490 316 c 1,15,-1
 490 240 l 1,16,17
 325 240 325 240 325 148 c 2,18,-1
 325 -15 l 2,19,20
 325 -155 325 -155 111 -158 c 1,21,-1
 111 -85 l 1,22,23
 181 -85 181 -85 208.5 -66 c 128,-1,24
 236 -47 236 -47 236 -8 c 2,25,-1
 236 154 l 2,0,1
EndSplineSet
Validated: 1
EndChar
StartChar: asciitilde
Encoding: 126 126 97
Width: 600
GlyphClass: 2
Flags: W
LayerCount: 2
Fore
SplineSet
74 286 m 1,0,-1
 74 365 l 1,1,2
 122 418 122 418 195 418 c 0,3,4
 244 418 244 418 316 387 c 0,5,6
 379 360 379 360 414 360 c 0,7,8
 467 360 467 360 525 419 c 1,9,-1
 525 340 l 1,10,11
 477 287 477 287 404 287 c 0,12,13
 355 287 355 287 283 318 c 0,14,15
 219 345 219 345 185 345 c 0,16,17
 132 345 132 345 74 286 c 1,0,-1
EndSplineSet
Validated: 1
EndChar
StartChar: exclamdown
Encoding: 161 161 99
Width: 600
GlyphClass: 2
Flags: W
LayerCount: 2
Fore
SplineSet
300 410 m 256,0,1
 238 410 238 410 238 478 c 256,2,3
 238 546 238 546 300 546 c 256,4,5
 362 546 362 546 362 478 c 256,6,7
 362 410 362 410 300 410 c 256,0,1
270 330 m 1,8,-1
 329 330 l 1,9,-1
 354 -182 l 1,10,-1
 245 -182 l 1,11,-1
 270 330 l 1,8,-1
EndSplineSet
Validated: 1
EndChar
StartChar: cent
Encoding: 162 162 100
Width: 600
GlyphClass: 2
Flags: W
LayerCount: 2
Fore
SplineSet
363 644 m 1,0,1
 442 643 442 643 518 615 c 1,2,-1
 488 538 l 1,3,4
 415 566 415 566 357 566 c 0,5,6
 176 566 176 566 176 364 c 0,7,8
 176 166 176 166 352 166 c 0,9,10
 427 166 427 166 509 196 c 1,11,-1
 509 118 l 1,12,13
 449 89 449 89 363 88 c 1,14,-1
 363 -10 l 1,15,-1
 296 -10 l 1,16,-1
 296 91 l 1,17,18
 84 125 84 125 84 363 c 0,19,20
 84 604 84 604 296 640 c 1,21,-1
 296 724 l 1,22,-1
 363 724 l 1,23,-1
 363 644 l 1,0,1
EndSplineSet
Validated: 1
EndChar
StartChar: sterling
Encoding: 163 163 101
Width: 600
GlyphClass: 2
Flags: W
LayerCount: 2
Fore
SplineSet
519 684 m 1,0,-1
 487 614 l 1,1,2
 418 649 418 649 354 649 c 0,3,4
 245 649 245 649 245 529 c 2,5,-1
 245 385 l 1,6,-1
 429 385 l 1,7,-1
 429 318 l 1,8,-1
 245 318 l 1,9,-1
 245 215 l 2,10,11
 245 119 245 119 177 81 c 1,12,-1
 542 81 l 1,13,-1
 542 0 l 1,14,-1
 58 0 l 1,15,-1
 58 75 l 1,16,17
 156 99 156 99 156 214 c 2,18,-1
 156 318 l 1,19,-1
 59 318 l 1,20,-1
 59 385 l 1,21,-1
 156 385 l 1,22,-1
 156 543 l 2,23,24
 156 625 156 625 209 674 c 128,-1,25
 262 723 262 723 350 723 c 0,26,27
 444 723 444 723 519 684 c 1,0,-1
EndSplineSet
Validated: 1
EndChar
StartChar: currency
Encoding: 164 164 102
Width: 1229
GlyphClass: 2
Flags: W
LayerCount: 2
Back
Fore
SplineSet
303 936 m 1,0,-1
 174 1065 l 1,1,-1
 272 1163 l 1,2,-1
 399 1034 l 1,3,4
 500 1102 500 1102 614 1102 c 256,5,6
 728 1102 728 1102 827 1034 c 1,7,-1
 956 1163 l 1,8,-1
 1055 1067 l 1,9,-1
 926 938 l 1,10,11
 993 837 993 837 993 723 c 0,12,13
 993 603 993 603 926 508 c 1,14,-1
 1053 381 l 1,15,-1
 956 285 l 1,16,-1
 827 412 l 1,17,18
 728 346 728 346 614 346 c 0,19,20
 496 346 496 346 399 414 c 1,21,-1
 272 287 l 1,22,-1
 176 383 l 1,23,-1
 303 510 l 1,24,25
 238 605 238 605 238 723 c 0,26,27
 238 837 238 837 303 936 c 1,0,-1
614 483 m 0,28,29
 714 483 714 483 786 553 c 128,-1,30
 858 623 858 623 858 723 c 0,31,32
 858 824 858 824 786.5 895.5 c 128,-1,33
 715 967 715 967 614 967 c 0,34,35
 515 967 515 967 445 896 c 128,-1,36
 375 825 375 825 375 723 c 0,37,38
 375 623 375 623 445.5 553 c 128,-1,39
 516 483 516 483 614 483 c 0,28,29
EndSplineSet
EndChar
StartChar: yen
Encoding: 165 165 103
Width: 600
GlyphClass: 2
Flags: W
LayerCount: 2
Fore
SplineSet
299 353 m 1,0,-1
 468 714 l 1,1,-1
 561 714 l 1,2,-1
 373 339 l 1,3,-1
 490 339 l 1,4,-1
 490 272 l 1,5,-1
 343 272 l 1,6,-1
 343 195 l 1,7,-1
 490 195 l 1,8,-1
 490 128 l 1,9,-1
 343 128 l 1,10,-1
 343 0 l 1,11,-1
 256 0 l 1,12,-1
 256 128 l 1,13,-1
 109 128 l 1,14,-1
 109 195 l 1,15,-1
 256 195 l 1,16,-1
 256 272 l 1,17,-1
 109 272 l 1,18,-1
 109 339 l 1,19,-1
 223 339 l 1,20,-1
 38 714 l 1,21,-1
 132 714 l 1,22,-1
 299 353 l 1,0,-1
EndSplineSet
Validated: 1
EndChar
StartChar: brokenbar
Encoding: 166 166 104
Width: 600
GlyphClass: 2
Flags: W
LayerCount: 2
Fore
SplineSet
263 760 m 1,0,-1
 336 760 l 1,1,-1
 336 379 l 1,2,-1
 263 379 l 1,3,-1
 263 760 l 1,0,-1
263 141 m 1,4,-1
 336 141 l 1,5,-1
 336 -240 l 1,6,-1
 263 -240 l 1,7,-1
 263 141 l 1,4,-1
EndSplineSet
Validated: 1
EndChar
StartChar: section
Encoding: 167 167 105
Width: 1229
GlyphClass: 2
Flags: W
LayerCount: 2
Back
Fore
SplineSet
420 1067 m 1,0,1
 260 1147 260 1147 260 1303 c 0,2,3
 260 1423 260 1423 364 1495 c 128,-1,4
 468 1567 468 1567 641 1567 c 0,5,6
 803 1567 803 1567 967 1495 c 1,7,-1
 911 1356 l 1,8,9
 755 1423 755 1423 635 1423 c 0,10,11
 434 1423 434 1423 434 1307 c 0,12,13
 434 1253 434 1253 483.5 1214 c 128,-1,14
 533 1175 533 1175 680 1114 c 0,15,16
 837 1052 837 1052 911 974.5 c 128,-1,17
 985 897 985 897 985 784 c 0,18,19
 985 602 985 602 840 514 c 1,20,21
 985 434 985 434 985 289 c 0,22,23
 985 151 985 151 874.5 70.5 c 128,-1,24
 764 -10 764 -10 567 -10 c 0,25,26
 363 -10 363 -10 244 55 c 1,27,-1
 244 213 l 1,28,29
 415 131 415 131 567 131 c 0,30,31
 807 131 807 131 807 272 c 0,32,33
 807 329 807 329 764 369 c 128,-1,34
 721 409 721 409 569 471 c 0,35,36
 372 555 372 555 316 630 c 128,-1,37
 260 705 260 705 260 809 c 0,38,39
 260 988 260 988 420 1067 c 1,0,1
713 573 m 1,40,41
 827 649 827 649 827 758 c 0,42,43
 827 847 827 847 753.5 902.5 c 128,-1,44
 680 958 680 958 547 1006 c 1,45,46
 414 958 414 958 414 831 c 0,47,48
 414 758 414 758 470.5 704.5 c 128,-1,49
 527 651 527 651 678 588 c 2,50,-1
 713 573 l 1,40,41
EndSplineSet
EndChar
StartChar: dieresis
Encoding: 168 168 106
Width: 1229
GlyphClass: 2
Flags: W
LayerCount: 2
Back
Fore
SplineSet
426 1497 m 256,0,1
 522 1497 522 1497 522 1395 c 0,2,3
 522 1292 522 1292 426 1292 c 256,4,5
 330 1292 330 1292 330 1395 c 0,6,7
 330 1497 330 1497 426 1497 c 256,0,1
801 1497 m 256,8,9
 897 1497 897 1497 897 1395 c 0,10,11
 897 1292 897 1292 801 1292 c 256,12,13
 705 1292 705 1292 705 1395 c 0,14,15
 705 1497 705 1497 801 1497 c 256,8,9
EndSplineSet
Validated: 1
EndChar
StartChar: copyright
Encoding: 169 169 107
Width: 600
GlyphClass: 2
Flags: W
LayerCount: 2
Fore
SplineSet
300 724 m 256,0,1
 440 724 440 724 518.5 624.5 c 128,-1,2
 597 525 597 525 597 357 c 256,3,4
 597 189 597 189 518 89.5 c 128,-1,5
 439 -10 439 -10 300 -10 c 0,6,7
 160 -10 160 -10 81.5 89.5 c 128,-1,8
 3 189 3 189 3 357 c 0,9,10
 3 524 3 524 81.5 624 c 128,-1,11
 160 724 160 724 300 724 c 256,0,1
300 43 m 256,12,13
 417 43 417 43 480.5 126 c 128,-1,14
 544 209 544 209 544 357 c 256,15,16
 544 504 544 504 480.5 587.5 c 128,-1,17
 417 671 417 671 300 671 c 256,18,19
 183 671 183 671 119.5 587.5 c 128,-1,20
 56 504 56 504 56 357 c 256,21,22
 56 210 56 210 119.5 126.5 c 128,-1,23
 183 43 183 43 300 43 c 256,12,13
427 221 m 1,24,-1
 427 157 l 1,25,26
 375 133 375 133 319 133 c 0,27,28
 224 133 224 133 172.5 193 c 128,-1,29
 121 253 121 253 121 358 c 0,30,31
 121 460 121 460 175 520 c 128,-1,32
 229 580 229 580 322 580 c 0,33,34
 384 580 384 580 446 550 c 1,35,-1
 416 488 l 1,36,37
 362 514 362 514 322 514 c 0,38,39
 263 514 263 514 231 472.5 c 128,-1,40
 199 431 199 431 199 357 c 0,41,42
 199 199 199 199 322 199 c 0,43,44
 368 199 368 199 427 221 c 1,24,-1
EndSplineSet
Validated: 1
EndChar
StartChar: ordfeminine
Encoding: 170 170 108
Width: 1229
GlyphClass: 2
Flags: W
LayerCount: 2
Back
Fore
SplineSet
799 797 m 1,0,-1
 766 915 l 1,1,2
 662 784 662 784 498 784 c 0,3,4
 276 784 276 784 276 989 c 0,5,6
 276 1105 276 1105 361 1156.5 c 128,-1,7
 446 1208 446 1208 637 1214 c 2,8,-1
 762 1219 l 1,9,-1
 762 1229 l 2,10,11
 762 1362 762 1362 610 1362 c 0,12,13
 498 1362 498 1362 365 1311 c 1,14,-1
 324 1421 l 1,15,16
 462 1479 462 1479 618 1479 c 0,17,18
 909 1479 909 1479 909 1241 c 2,19,-1
 909 797 l 1,20,-1
 799 797 l 1,0,-1
662 1116 m 2,21,22
 548 1114 548 1114 488 1088 c 128,-1,23
 428 1062 428 1062 428 987 c 0,24,25
 428 897 428 897 532 897 c 0,26,27
 637 897 637 897 699.5 952 c 128,-1,28
 762 1007 762 1007 762 1098 c 2,29,-1
 762 1118 l 1,30,-1
 662 1116 l 2,21,22
EndSplineSet
EndChar
StartChar: guillemotleft
Encoding: 171 171 109
Width: 1229
GlyphClass: 2
Flags: W
LayerCount: 2
Back
Fore
SplineSet
197 553 m 1,0,-1
 506 967 l 1,1,-1
 623 889 l 1,2,-1
 385 541 l 1,3,-1
 623 193 l 1,4,-1
 506 115 l 1,5,-1
 197 526 l 1,6,-1
 197 553 l 1,0,-1
604 553 m 1,7,-1
 913 967 l 1,8,-1
 1030 889 l 1,9,-1
 793 541 l 1,10,-1
 1030 193 l 1,11,-1
 913 115 l 1,12,-1
 604 526 l 1,13,-1
 604 553 l 1,7,-1
EndSplineSet
EndChar
StartChar: logicalnot
Encoding: 172 172 110
Width: 600
GlyphClass: 2
Flags: W
LayerCount: 2
Fore
SplineSet
525 389 m 1,0,-1
 525 128 l 1,1,-1
 452 128 l 1,2,-1
 452 316 l 1,3,-1
 74 316 l 1,4,-1
 74 389 l 1,5,-1
 525 389 l 1,0,-1
EndSplineSet
Validated: 1
EndChar
StartChar: registered
Encoding: 174 174 112
Width: 1229
GlyphClass: 2
Flags: W
LayerCount: 2
Back
Fore
SplineSet
614 1483 m 0,0,1
 900 1483 900 1483 1061.5 1279 c 128,-1,2
 1223 1075 1223 1075 1223 731 c 0,3,4
 1223 386 1223 386 1061 183 c 128,-1,5
 899 -20 899 -20 614 -20 c 0,6,7
 328 -20 328 -20 167 183.5 c 128,-1,8
 6 387 6 387 6 731 c 0,9,10
 6 1074 6 1074 166.5 1278.5 c 128,-1,11
 327 1483 327 1483 614 1483 c 0,0,1
614 88 m 256,12,13
 854 88 854 88 984 258.5 c 128,-1,14
 1114 429 1114 429 1114 731 c 256,15,16
 1114 1033 1114 1033 984 1203.5 c 128,-1,17
 854 1374 854 1374 614 1374 c 256,18,19
 374 1374 374 1374 244.5 1203 c 128,-1,20
 115 1032 115 1032 115 731 c 256,21,22
 115 430 115 430 244.5 259 c 128,-1,23
 374 88 374 88 614 88 c 256,12,13
748 680 m 1,24,-1
 985 285 l 1,25,-1
 807 285 l 1,26,-1
 600 637 l 1,27,-1
 506 637 l 1,28,-1
 506 285 l 1,29,-1
 348 285 l 1,30,-1
 348 1178 l 1,31,-1
 582 1178 l 2,32,33
 907 1178 907 1178 907 913 c 0,34,35
 907 750 907 750 748 680 c 1,24,-1
506 768 m 1,36,-1
 578 768 l 2,37,38
 748 768 748 768 748 909 c 0,39,40
 748 983 748 983 706 1012.5 c 128,-1,41
 664 1042 664 1042 575 1042 c 2,42,-1
 506 1042 l 1,43,-1
 506 768 l 1,36,-1
EndSplineSet
EndChar
StartChar: overscore
Encoding: 175 175 113
Width: 1229
GlyphClass: 2
Flags: W
LayerCount: 2
Back
Fore
SplineSet
1249 1556 m 1,0,-1
 -20 1556 l 1,1,-1
 -20 1696 l 1,2,-1
 1249 1696 l 1,3,-1
 1249 1556 l 1,0,-1
EndSplineSet
Validated: 1
EndChar
StartChar: degree
Encoding: 176 176 114
Width: 1229
GlyphClass: 2
Flags: W
LayerCount: 2
Back
Fore
SplineSet
614 1483 m 0,0,1
 743 1483 743 1483 836.5 1389.5 c 128,-1,2
 930 1296 930 1296 930 1167 c 256,3,4
 930 1038 930 1038 837 946 c 128,-1,5
 744 854 744 854 614 854 c 0,6,7
 483 854 483 854 391 946.5 c 128,-1,8
 299 1039 299 1039 299 1167 c 0,9,10
 299 1296 299 1296 391.5 1389.5 c 128,-1,11
 484 1483 484 1483 614 1483 c 0,0,1
614 977 m 0,12,13
 693 977 693 977 750 1033 c 128,-1,14
 807 1089 807 1089 807 1167 c 0,15,16
 807 1248 807 1248 749.5 1305 c 128,-1,17
 692 1362 692 1362 614 1362 c 0,18,19
 535 1362 535 1362 478.5 1304.5 c 128,-1,20
 422 1247 422 1247 422 1167 c 0,21,22
 422 1089 422 1089 478 1033 c 128,-1,23
 534 977 534 977 614 977 c 0,12,13
EndSplineSet
EndChar
StartChar: plusminus
Encoding: 177 177 115
Width: 600
GlyphClass: 2
Flags: W
LayerCount: 2
Fore
SplineSet
263 316 m 1,0,-1
 74 316 l 1,1,-1
 74 389 l 1,2,-1
 263 389 l 1,3,-1
 263 579 l 1,4,-1
 336 579 l 1,5,-1
 336 389 l 1,6,-1
 525 389 l 1,7,-1
 525 316 l 1,8,-1
 336 316 l 1,9,-1
 336 128 l 1,10,-1
 263 128 l 1,11,-1
 263 316 l 1,0,-1
74 0 m 1,12,-1
 74 73 l 1,13,-1
 525 73 l 1,14,-1
 525 0 l 1,15,-1
 74 0 l 1,12,-1
EndSplineSet
Validated: 1
EndChar
StartChar: twosuperior
Encoding: 178 178 116
Width: 600
GlyphClass: 2
Flags: W
LayerCount: 2
Fore
SplineSet
429 328 m 1,0,-1
 170 328 l 1,1,-1
 170 378 l 1,2,-1
 261 475 l 2,3,4
 315 533 315 533 330 557.5 c 128,-1,5
 345 582 345 582 345 610 c 0,6,7
 345 666 345 666 291 666 c 0,8,9
 251 666 251 666 211 629 c 1,10,-1
 173 671 l 1,11,12
 230 721 230 721 294 721 c 0,13,14
 352 721 352 721 383.5 692 c 128,-1,15
 415 663 415 663 415 612 c 0,16,17
 415 580 415 580 398 546.5 c 128,-1,18
 381 513 381 513 318 450 c 2,19,-1
 252 384 l 1,20,-1
 429 384 l 1,21,-1
 429 328 l 1,0,-1
EndSplineSet
Validated: 1
EndChar
StartChar: threesuperior
Encoding: 179 179 117
Width: 1229
GlyphClass: 2
Flags: W
LayerCount: 2
Back
Fore
SplineSet
670 1085 m 1,0,1
 846 1046 846 1046 846 899 c 0,2,3
 846 783 846 783 771.5 719 c 128,-1,4
 697 655 697 655 557 655 c 0,5,6
 426 655 426 655 342 705 c 1,7,-1
 342 829 l 1,8,9
 452 764 452 764 545 764 c 0,10,11
 694 764 694 764 694 901 c 0,12,13
 694 1026 694 1026 547 1026 c 2,14,-1
 475 1026 l 1,15,-1
 475 1130 l 1,16,-1
 545 1130 l 2,17,18
 668 1130 668 1130 668 1257 c 0,19,20
 668 1368 668 1368 571 1368 c 0,21,22
 500 1368 500 1368 410 1298 c 1,23,-1
 344 1384 l 1,24,25
 455 1477 455 1477 582 1477 c 0,26,27
 691 1477 691 1477 755 1422.5 c 128,-1,28
 819 1368 819 1368 819 1274 c 0,29,30
 819 1135 819 1135 670 1085 c 1,0,1
EndSplineSet
EndChar
StartChar: acute
Encoding: 180 180 118
Width: 1229
GlyphClass: 2
Flags: W
LayerCount: 2
Back
Fore
SplineSet
418 1268 m 1,0,1
 512 1401 512 1401 592 1569 c 1,2,-1
 811 1569 l 1,3,-1
 811 1548 l 1,4,5
 699 1375 699 1375 539 1241 c 1,6,-1
 418 1241 l 1,7,-1
 418 1268 l 1,0,1
EndSplineSet
EndChar
StartChar: mu
Encoding: 181 181 119
Width: 1229
GlyphClass: 2
Flags: W
LayerCount: 2
Back
Fore
SplineSet
362 391 m 2,0,1
 362 131 362 131 580 131 c 0,2,3
 728 131 728 131 797 222 c 128,-1,4
 866 313 866 313 866 528 c 2,5,-1
 866 1098 l 1,6,-1
 1049 1098 l 1,7,-1
 1049 0 l 1,8,-1
 901 0 l 1,9,-1
 874 147 l 1,10,-1
 864 147 l 1,11,12
 768 -20 768 -20 569 -20 c 0,13,14
 430 -20 430 -20 356 68 c 1,15,16
 362 -85 362 -85 362 -172 c 2,17,-1
 362 -492 l 1,18,-1
 180 -492 l 1,19,-1
 180 1098 l 1,20,-1
 362 1098 l 1,21,-1
 362 391 l 2,0,1
EndSplineSet
EndChar
StartChar: paragraph
Encoding: 182 182 120
Width: 600
GlyphClass: 2
Flags: W
LayerCount: 2
Fore
SplineSet
527 -127 m 1,0,-1
 468 -127 l 1,1,-1
 468 682 l 1,2,-1
 367 682 l 1,3,-1
 367 -127 l 1,4,-1
 308 -127 l 1,5,-1
 308 273 l 1,6,7
 278 264 278 264 237 264 c 0,8,9
 32 264 32 264 32 509 c 0,10,11
 32 635 32 635 85 697.5 c 128,-1,12
 138 760 138 760 252 760 c 2,13,-1
 527 760 l 1,14,-1
 527 -127 l 1,0,-1
EndSplineSet
Validated: 1
EndChar
StartChar: periodcentered
Encoding: 183 183 121
Width: 600
GlyphClass: 2
Flags: W
LayerCount: 2
Fore
SplineSet
300 421 m 256,0,1
 362 421 362 421 362 353 c 256,2,3
 362 285 362 285 300 285 c 256,4,5
 238 285 238 285 238 353 c 256,6,7
 238 421 238 421 300 421 c 256,0,1
EndSplineSet
Validated: 1
EndChar
StartChar: cedilla
Encoding: 184 184 122
Width: 600
GlyphClass: 2
Flags: W
LayerCount: 2
Fore
SplineSet
209 -236 m 1,0,-1
 209 -183 l 1,1,2
 225 -186 225 -186 248 -186 c 0,3,4
 322 -186 322 -186 322 -141 c 0,5,6
 322 -105 322 -105 238 -86 c 1,7,-1
 282 0 l 1,8,-1
 341 0 l 1,9,-1
 313 -56 l 1,10,11
 391 -74 391 -74 391 -140 c 0,12,13
 391 -240 391 -240 249 -240 c 0,14,15
 232 -240 232 -240 209 -236 c 1,0,-1
EndSplineSet
Validated: 1
EndChar
StartChar: onesuperior
Encoding: 185 185 123
Width: 600
GlyphClass: 2
Flags: W
LayerCount: 2
Fore
SplineSet
286 713 m 1,0,-1
 352 713 l 1,1,-1
 352 328 l 1,2,-1
 281 328 l 1,3,-1
 281 555 l 2,4,5
 281 589 281 589 285 653 c 1,6,7
 265 632 265 632 249 621 c 2,8,-1
 215 596 l 1,9,-1
 179 639 l 1,10,-1
 286 713 l 1,0,-1
EndSplineSet
Validated: 1
EndChar
StartChar: ordmasculine
Encoding: 186 186 124
Width: 1229
GlyphClass: 2
Flags: W
LayerCount: 2
Back
Fore
SplineSet
612 784 m 0,0,1
 468 784 468 784 374.5 877 c 128,-1,2
 281 970 281 970 281 1133 c 0,3,4
 281 1295 281 1295 371 1387 c 128,-1,5
 461 1479 461 1479 616 1479 c 0,6,7
 761 1479 761 1479 854.5 1386.5 c 128,-1,8
 948 1294 948 1294 948 1133 c 0,9,10
 948 968 948 968 856 876 c 128,-1,11
 764 784 764 784 612 784 c 0,0,1
614 903 m 0,12,13
 795 903 795 903 795 1133 c 0,14,15
 795 1358 795 1358 614 1358 c 0,16,17
 432 1358 432 1358 432 1133 c 0,18,19
 432 903 432 903 614 903 c 0,12,13
EndSplineSet
Validated: 1
EndChar
StartChar: guillemotright
Encoding: 187 187 125
Width: 600
GlyphClass: 2
Flags: W
LayerCount: 2
Fore
SplineSet
503 257 m 1,0,-1
 352 56 l 1,1,-1
 295 94 l 1,2,-1
 411 264 l 1,3,-1
 295 434 l 1,4,-1
 352 472 l 1,5,-1
 503 270 l 1,6,-1
 503 257 l 1,0,-1
304 257 m 1,7,-1
 153 56 l 1,8,-1
 96 94 l 1,9,-1
 212 264 l 1,10,-1
 96 434 l 1,11,-1
 153 472 l 1,12,-1
 304 270 l 1,13,-1
 304 257 l 1,7,-1
EndSplineSet
Validated: 1
EndChar
StartChar: questiondown
Encoding: 191 191 129
Width: 600
GlyphClass: 2
Flags: W
LayerCount: 2
Fore
SplineSet
329 410 m 256,0,1
 267 410 267 410 267 478 c 256,2,3
 267 546 267 546 329 546 c 256,4,5
 391 546 391 546 391 478 c 256,6,7
 391 410 391 410 329 410 c 256,0,1
372 330 m 1,8,-1
 372 312 l 2,9,10
 372 254 372 254 350.5 217.5 c 128,-1,11
 329 181 329 181 271 140 c 0,12,13
 208 93 208 93 187.5 64.5 c 128,-1,14
 167 36 167 36 167 -13 c 0,15,16
 167 -58 167 -58 203.5 -86 c 128,-1,17
 240 -114 240 -114 304 -114 c 0,18,19
 392 -114 392 -114 485 -70 c 1,20,-1
 515 -140 l 1,21,22
 408 -192 408 -192 309 -192 c 0,23,24
 203 -192 203 -192 142.5 -144.5 c 128,-1,25
 82 -97 82 -97 82 -17 c 0,26,27
 82 48 82 48 108 88.5 c 128,-1,28
 134 129 134 129 204 182 c 0,29,30
 262 224 262 224 278 250.5 c 128,-1,31
 294 277 294 277 294 321 c 2,32,-1
 294 330 l 1,33,-1
 372 330 l 1,8,-1
EndSplineSet
Validated: 1
EndChar
StartChar: AE
Encoding: 198 198 136
Width: 600
GlyphClass: 2
Flags: W
LayerCount: 2
Fore
SplineSet
591 0 m 1,0,-1
 272 0 l 1,1,-1
 272 221 l 1,2,-1
 131 221 l 1,3,-1
 84 0 l 1,4,-1
 0 0 l 1,5,-1
 165 714 l 1,6,-1
 591 714 l 1,7,-1
 591 634 l 1,8,-1
 358 634 l 1,9,-1
 358 413 l 1,10,-1
 572 413 l 1,11,-1
 572 334 l 1,12,-1
 358 334 l 1,13,-1
 358 80 l 1,14,-1
 591 80 l 1,15,-1
 591 0 l 1,0,-1
149 302 m 1,16,-1
 272 302 l 1,17,-1
 272 634 l 1,18,-1
 220 634 l 1,19,-1
 149 302 l 1,16,-1
EndSplineSet
Validated: 1
EndChar
StartChar: Eth
Encoding: 208 208 146
Width: 600
GlyphClass: 2
Flags: W
LayerCount: 2
Fore
SplineSet
66 0 m 1,0,-1
 66 322 l 1,1,-1
 0 322 l 1,2,-1
 0 401 l 1,3,-1
 66 401 l 1,4,-1
 66 714 l 1,5,-1
 233 714 l 2,6,7
 388 714 388 714 474 621.5 c 128,-1,8
 560 529 560 529 560 364 c 0,9,10
 560 188 560 188 470.5 94 c 128,-1,11
 381 0 381 0 213 0 c 2,12,-1
 66 0 l 1,0,-1
157 636 m 1,13,-1
 157 401 l 1,14,-1
 343 401 l 1,15,-1
 343 322 l 1,16,-1
 157 322 l 1,17,-1
 157 78 l 1,18,-1
 204 78 l 2,19,20
 464 78 464 78 464 361 c 0,21,22
 464 636 464 636 223 636 c 2,23,-1
 157 636 l 1,13,-1
EndSplineSet
Validated: 1
EndChar
StartChar: multiply
Encoding: 215 215 153
Width: 600
GlyphClass: 2
Flags: W
LayerCount: 2
Fore
SplineSet
248 353 m 1,0,-1
 93 509 l 1,1,-1
 144 560 l 1,2,-1
 299 405 l 1,3,-1
 456 560 l 1,4,-1
 507 510 l 1,5,-1
 350 353 l 1,6,-1
 506 197 l 1,7,-1
 456 147 l 1,8,-1
 299 302 l 1,9,-1
 144 148 l 1,10,-1
 94 198 l 1,11,-1
 248 353 l 1,0,-1
EndSplineSet
Validated: 1
EndChar
StartChar: Oslash
Encoding: 216 216 154
Width: 1229
GlyphClass: 2
Flags: W
LayerCount: 2
Back
Fore
SplineSet
309 74 m 1,0,-1
 217 -76 l 1,1,-1
 80 2 l 1,2,-1
 201 199 l 1,3,4
 84 383 84 383 84 735 c 0,5,6
 84 1485 84 1485 618 1485 c 0,7,8
 804 1485 804 1485 928 1380 c 1,9,-1
 1020 1532 l 1,10,-1
 1157 1454 l 1,11,-1
 1032 1253 l 1,12,13
 1147 1065 1147 1065 1147 733 c 0,14,15
 1147 372 1147 372 1009 176 c 128,-1,16
 871 -20 871 -20 616 -20 c 0,17,18
 427 -20 427 -20 309 74 c 1,0,-1
319 391 m 1,19,-1
 834 1227 l 1,20,21
 754 1321 754 1321 618 1321 c 0,22,23
 281 1321 281 1321 281 733 c 0,24,25
 281 521 281 521 319 391 c 1,19,-1
915 1061 m 1,26,-1
 403 229 l 1,27,28
 483 143 483 143 616 143 c 0,29,30
 789 143 789 143 869.5 288 c 128,-1,31
 950 433 950 433 950 733 c 0,32,33
 950 942 950 942 915 1061 c 1,26,-1
EndSplineSet
EndChar
StartChar: Thorn
Encoding: 222 222 160
Width: 600
GlyphClass: 2
Flags: W
LayerCount: 2
Fore
SplineSet
177 155 m 1,0,-1
 177 0 l 1,1,-1
 86 0 l 1,2,-1
 86 714 l 1,3,-1
 177 714 l 1,4,-1
 177 591 l 1,5,-1
 283 591 l 2,6,7
 534 591 534 591 534 382 c 0,8,9
 534 275 534 275 466.5 215 c 128,-1,10
 399 155 399 155 270 155 c 2,11,-1
 177 155 l 1,0,-1
177 232 m 1,12,-1
 260 232 l 2,13,14
 357 232 357 232 398.5 267 c 128,-1,15
 440 302 440 302 440 377 c 0,16,17
 440 513 440 513 275 513 c 2,18,-1
 177 513 l 1,19,-1
 177 232 l 1,12,-1
EndSplineSet
Validated: 1
EndChar
StartChar: germandbls
Encoding: 223 223 161
Width: 1229
GlyphClass: 2
Flags: W
LayerCount: 2
Back
Fore
SplineSet
479 49 m 1,0,-1
 479 215 l 1,1,2
 622 129 622 129 756 129 c 0,3,4
 969 129 969 129 969 303 c 0,5,6
 969 384 969 384 923.5 435 c 128,-1,7
 878 486 878 486 780 547 c 0,8,9
 657 625 657 625 607 686 c 128,-1,10
 557 747 557 747 557 834 c 0,11,12
 557 951 557 951 686 1057 c 256,13,14
 815 1163 815 1163 815 1253 c 0,15,16
 815 1417 815 1417 588 1417 c 0,17,18
 346 1417 346 1417 346 1202 c 2,19,-1
 346 0 l 1,20,-1
 164 0 l 1,21,-1
 164 1200 l 2,22,23
 164 1567 164 1567 588 1567 c 0,24,25
 782 1567 782 1567 890.5 1487.5 c 128,-1,26
 999 1408 999 1408 999 1260 c 0,27,28
 999 1128 999 1128 866 1011 c 0,29,30
 782 937 782 937 757.5 906 c 128,-1,31
 733 875 733 875 733 842 c 0,32,33
 733 803 733 803 762 773 c 128,-1,34
 791 743 791 743 913 662 c 0,35,36
 1057 567 1057 567 1104 489 c 128,-1,37
 1151 411 1151 411 1151 313 c 0,38,39
 1151 151 1151 151 1051 65.5 c 128,-1,40
 951 -20 951 -20 768 -20 c 0,41,42
 586 -20 586 -20 479 49 c 1,0,-1
EndSplineSet
Validated: 1
EndChar
StartChar: ae
Encoding: 230 230 168
Width: 1229
GlyphClass: 2
Flags: W
LayerCount: 2
Back
Fore
SplineSet
522 662 m 1,0,-1
 522 731 l 2,1,2
 522 967 522 967 383 967 c 0,3,4
 276 967 276 967 172 885 c 1,5,-1
 115 1022 l 1,6,7
 246 1118 246 1118 391 1118 c 0,8,9
 579 1118 579 1118 637 940 c 1,10,11
 715 1118 715 1118 877 1118 c 0,12,13
 1014 1118 1014 1118 1100 982.5 c 128,-1,14
 1186 847 1186 847 1186 627 c 2,15,-1
 1186 514 l 1,16,-1
 690 514 l 1,17,18
 693 322 693 322 757 230.5 c 128,-1,19
 821 139 821 139 926 139 c 0,20,21
 1037 139 1037 139 1159 215 c 1,22,-1
 1159 53 l 1,23,24
 1052 -20 1052 -20 918 -20 c 0,25,26
 696 -20 696 -20 602 209 c 1,27,28
 497 -20 497 -20 301 -20 c 0,29,30
 186 -20 186 -20 115.5 66.5 c 128,-1,31
 45 153 45 153 45 307 c 0,32,33
 45 639 45 639 373 655 c 2,34,-1
 522 662 l 1,0,-1
694 662 m 1,35,-1
 1010 662 l 1,36,37
 1010 803 1010 803 969.5 885 c 128,-1,38
 929 967 929 967 858 967 c 0,39,40
 790 967 790 967 745 889 c 128,-1,41
 700 811 700 811 694 662 c 1,35,-1
520 537 m 1,42,-1
 432 530 l 2,43,44
 215 513 215 513 215 305 c 0,45,46
 215 222 215 222 247 174.5 c 128,-1,47
 279 127 279 127 334 127 c 0,48,49
 416 127 416 127 468 209.5 c 128,-1,50
 520 292 520 292 520 438 c 2,51,-1
 520 537 l 1,42,-1
EndSplineSet
Validated: 1
EndChar
StartChar: eth
Encoding: 240 240 178
Width: 600
GlyphClass: 2
Flags: W
LayerCount: 2
Fore
SplineSet
434 416 m 1,0,-1
 438 418 l 1,1,2
 410 528 410 528 320 609 c 1,3,-1
 195 534 l 1,4,-1
 159 590 l 1,5,-1
 265 654 l 1,6,7
 214 689 214 689 181 707 c 1,8,-1
 215 767 l 1,9,10
 285 733 285 733 335 695 c 1,11,-1
 446 762 l 1,12,-1
 482 707 l 1,13,-1
 387 650 l 1,14,15
 534 508 534 508 534 280 c 0,16,17
 534 145 534 145 471.5 67.5 c 128,-1,18
 409 -10 409 -10 299 -10 c 0,19,20
 195 -10 195 -10 130.5 55.5 c 128,-1,21
 66 121 66 121 66 233 c 0,22,23
 66 347 66 347 125 410.5 c 128,-1,24
 184 474 184 474 288 474 c 0,25,26
 391 474 391 474 434 416 c 1,0,-1
300 402 m 0,27,28
 160 402 160 402 160 230 c 0,29,30
 160 64 160 64 301 64 c 0,31,32
 376 64 376 64 409 112.5 c 128,-1,33
 442 161 442 161 442 257 c 0,34,35
 442 320 442 320 404 361 c 128,-1,36
 366 402 366 402 300 402 c 0,27,28
EndSplineSet
Validated: 1
EndChar
StartChar: divide
Encoding: 247 247 185
Width: 600
GlyphClass: 2
Flags: W
LayerCount: 2
Fore
SplineSet
299 584 m 0,0,1
 355 584 355 584 355 523 c 256,2,3
 355 462 355 462 299 462 c 0,4,5
 243 462 243 462 243 523 c 256,6,7
 243 584 243 584 299 584 c 0,0,1
74 316 m 1,8,-1
 74 389 l 1,9,-1
 525 389 l 1,10,-1
 525 316 l 1,11,-1
 74 316 l 1,8,-1
299 243 m 0,12,13
 355 243 355 243 355 182 c 256,14,15
 355 121 355 121 299 121 c 0,16,17
 243 121 243 121 243 182 c 256,18,19
 243 243 243 243 299 243 c 0,12,13
EndSplineSet
Validated: 1
EndChar
StartChar: oslash
Encoding: 248 248 186
Width: 1229
GlyphClass: 2
Flags: W
LayerCount: 2
Back
Fore
SplineSet
377 33 m 1,0,-1
 301 -86 l 1,1,-1
 170 -2 l 1,2,-1
 254 129 l 1,3,4
 115 287 115 287 115 551 c 0,5,6
 115 817 115 817 248 967.5 c 128,-1,7
 381 1118 381 1118 616 1118 c 0,8,9
 744 1118 744 1118 852 1061 c 1,10,-1
 928 1180 l 1,11,-1
 1059 1096 l 1,12,-1
 975 965 l 1,13,14
 1112 809 1112 809 1112 551 c 0,15,16
 1112 280 1112 280 977.5 130 c 128,-1,17
 843 -20 843 -20 610 -20 c 0,18,19
 481 -20 481 -20 377 33 c 1,0,-1
356 276 m 1,20,-1
 762 932 l 1,21,22
 696 967 696 967 606 967 c 0,23,24
 445 967 445 967 374 863.5 c 128,-1,25
 303 760 303 760 303 551 c 0,26,27
 303 371 303 371 356 276 c 1,20,-1
872 817 m 1,28,-1
 467 164 l 1,29,30
 528 131 528 131 621 131 c 0,31,32
 782 131 782 131 853 236.5 c 128,-1,33
 924 342 924 342 924 551 c 0,34,35
 924 715 924 715 872 817 c 1,28,-1
EndSplineSet
Validated: 1
EndChar
StartChar: thorn
Encoding: 254 254 192
Width: 600
GlyphClass: 2
Flags: W
LayerCount: 2
Fore
SplineSet
166 464 m 1,0,1
 220 546 220 546 323 546 c 0,2,3
 421 546 421 546 477 473 c 128,-1,4
 533 400 533 400 533 269 c 0,5,6
 533 137 533 137 477 63.5 c 128,-1,7
 421 -10 421 -10 323 -10 c 0,8,9
 222 -10 222 -10 166 68 c 1,10,-1
 160 68 l 1,11,12
 166 5 166 5 166 -11 c 2,13,-1
 166 -240 l 1,14,-1
 77 -240 l 1,15,-1
 77 760 l 1,16,-1
 166 760 l 1,17,-1
 166 536 l 1,18,-1
 162 464 l 1,19,-1
 166 464 l 1,0,1
166 289 m 1,20,-1
 166 269 l 2,21,22
 166 158 166 158 200 111 c 128,-1,23
 234 64 234 64 308 64 c 0,24,25
 441 64 441 64 441 270 c 0,26,27
 441 472 441 472 307 472 c 0,28,29
 233 472 233 472 200.5 429 c 128,-1,30
 168 386 168 386 166 289 c 1,20,-1
EndSplineSet
Validated: 1
EndChar
StartChar: dcroat
Encoding: 273 273 211
Width: 600
GlyphClass: 2
Flags: W
LayerCount: 2
Fore
SplineSet
438 72 m 1,0,-1
 434 72 l 1,1,2
 379 -10 379 -10 277 -10 c 0,3,4
 179 -10 179 -10 123 60.5 c 128,-1,5
 67 131 67 131 67 257 c 0,6,7
 67 384 67 384 123 455 c 128,-1,8
 179 526 179 526 277 526 c 0,9,10
 379 526 379 526 434 448 c 1,11,-1
 440 448 l 1,12,13
 434 510 434 510 434 527 c 2,14,-1
 434 604 l 1,15,-1
 249 604 l 1,16,-1
 249 671 l 1,17,-1
 434 671 l 1,18,-1
 434 760 l 1,19,-1
 523 760 l 1,20,-1
 523 671 l 1,21,-1
 599 671 l 1,22,-1
 599 604 l 1,23,-1
 523 604 l 1,24,-1
 523 0 l 1,25,-1
 451 0 l 1,26,-1
 438 72 l 1,0,-1
434 238 m 1,27,-1
 434 257 l 2,28,29
 434 362 434 362 400 407 c 128,-1,30
 366 452 366 452 292 452 c 0,31,32
 159 452 159 452 159 256 c 0,33,34
 159 64 159 64 293 64 c 0,35,36
 367 64 367 64 399.5 104.5 c 128,-1,37
 432 145 432 145 434 238 c 1,27,-1
EndSplineSet
Validated: 1
EndChar
StartChar: Hbar
Encoding: 294 294 232
Width: 600
GlyphClass: 2
Flags: W
LayerCount: 2
Fore
SplineSet
66 595 m 1,0,-1
 66 714 l 1,1,-1
 157 714 l 1,2,-1
 157 595 l 1,3,-1
 443 595 l 1,4,-1
 443 714 l 1,5,-1
 534 714 l 1,6,-1
 534 595 l 1,7,-1
 600 595 l 1,8,-1
 600 522 l 1,9,-1
 534 522 l 1,10,-1
 534 0 l 1,11,-1
 443 0 l 1,12,-1
 443 333 l 1,13,-1
 157 333 l 1,14,-1
 157 0 l 1,15,-1
 66 0 l 1,16,-1
 66 522 l 1,17,-1
 0 522 l 1,18,-1
 0 595 l 1,19,-1
 66 595 l 1,0,-1
443 413 m 1,20,-1
 443 522 l 1,21,-1
 157 522 l 1,22,-1
 157 413 l 1,23,-1
 443 413 l 1,20,-1
EndSplineSet
Validated: 1
EndChar
StartChar: hbar
Encoding: 295 295 233
Width: 600
GlyphClass: 2
Flags: W
LayerCount: 2
Fore
SplineSet
433 0 m 1,0,-1
 433 325 l 2,1,2
 433 452 433 452 318 452 c 0,3,4
 239 452 239 452 203 406.5 c 128,-1,5
 167 361 167 361 167 258 c 2,6,-1
 167 0 l 1,7,-1
 78 0 l 1,8,-1
 78 604 l 1,9,-1
 2 604 l 1,10,-1
 2 671 l 1,11,-1
 78 671 l 1,12,-1
 78 760 l 1,13,-1
 168 760 l 1,14,-1
 168 671 l 1,15,-1
 372 671 l 1,16,-1
 372 604 l 1,17,-1
 167 604 l 1,18,-1
 167 514 l 1,19,-1
 162 444 l 1,20,-1
 167 444 l 1,21,22
 220 526 220 526 336 526 c 0,23,24
 430 526 430 526 476 479.5 c 128,-1,25
 522 433 522 433 522 330 c 2,26,-1
 522 0 l 1,27,-1
 433 0 l 1,0,-1
EndSplineSet
Validated: 1
EndChar
StartChar: dotlessi
Encoding: 305 305 243
Width: 600
GlyphClass: 2
Flags: W
LayerCount: 2
Fore
SplineSet
264 466 m 1,0,-1
 133 476 l 1,1,-1
 133 536 l 1,2,-1
 353 536 l 1,3,-1
 353 70 l 1,4,-1
 525 60 l 1,5,-1
 525 0 l 1,6,-1
 96 0 l 1,7,-1
 96 60 l 1,8,-1
 264 70 l 1,9,-1
 264 466 l 1,0,-1
EndSplineSet
Validated: 1
EndChar
StartChar: IJ
Encoding: 306 306 244
Width: 1229
GlyphClass: 2
Flags: W
LayerCount: 2
Back
Fore
SplineSet
156 0 m 1,0,-1
 156 1462 l 1,1,-1
 342 1462 l 1,2,-1
 342 0 l 1,3,-1
 156 0 l 1,0,-1
492 23 m 1,4,-1
 492 186 l 1,5,6
 585 141 585 141 678 141 c 0,7,8
 872 141 872 141 872 424 c 2,9,-1
 872 1462 l 1,10,-1
 1059 1462 l 1,11,-1
 1059 436 l 2,12,13
 1059 -20 1059 -20 694 -20 c 0,14,15
 561 -20 561 -20 492 23 c 1,4,-1
EndSplineSet
EndChar
StartChar: ij
Encoding: 307 307 245
Width: 600
GlyphClass: 2
Flags: W
LayerCount: 2
Fore
SplineSet
144 757 m 0,0,1
 196 757 196 757 196 701 c 0,2,3
 196 673 196 673 180.5 659 c 128,-1,4
 165 645 165 645 144 645 c 0,5,6
 92 645 92 645 92 701 c 0,7,8
 92 757 92 757 144 757 c 0,0,1
453 757 m 0,9,10
 505 757 505 757 505 701 c 0,11,12
 505 673 505 673 489.5 659 c 128,-1,13
 474 645 474 645 453 645 c 0,14,15
 401 645 401 645 401 701 c 0,16,17
 401 757 401 757 453 757 c 0,9,10
99 536 m 1,18,-1
 188 536 l 1,19,-1
 188 0 l 1,20,-1
 99 0 l 1,21,-1
 99 536 l 1,18,-1
245 -223 m 1,22,-1
 245 -148 l 1,23,24
 288 -167 288 -167 338 -167 c 0,25,26
 418 -167 418 -167 418 -62 c 2,27,-1
 418 466 l 1,28,-1
 313 476 l 1,29,-1
 313 536 l 1,30,-1
 507 536 l 1,31,-1
 507 -57 l 2,32,33
 507 -146 507 -146 465.5 -193 c 128,-1,34
 424 -240 424 -240 350 -240 c 0,35,36
 290 -240 290 -240 245 -223 c 1,22,-1
EndSplineSet
Validated: 1
EndChar
StartChar: kgreenlandic
Encoding: 312 312 250
Width: 1229
GlyphClass: 2
Flags: W
LayerCount: 2
Back
Fore
SplineSet
383 508 m 1,0,-1
 520 674 l 1,1,-1
 922 1098 l 1,2,-1
 1135 1098 l 1,3,-1
 641 588 l 1,4,-1
 1163 0 l 1,5,-1
 950 0 l 1,6,-1
 524 469 l 1,7,-1
 395 387 l 1,8,-1
 395 0 l 1,9,-1
 215 0 l 1,10,-1
 215 1098 l 1,11,-1
 395 1098 l 1,12,-1
 395 807 l 1,13,-1
 379 508 l 1,14,-1
 383 508 l 1,0,-1
EndSplineSet
Validated: 1
EndChar
StartChar: Lslash
Encoding: 321 321 259
Width: 1229
GlyphClass: 2
Flags: W
LayerCount: 2
Back
Fore
SplineSet
270 0 m 1,0,-1
 270 492 l 1,1,-1
 145 414 l 1,2,-1
 72 539 l 1,3,-1
 270 664 l 1,4,-1
 270 1462 l 1,5,-1
 457 1462 l 1,6,-1
 457 782 l 1,7,-1
 756 971 l 1,8,-1
 834 846 l 1,9,-1
 457 608 l 1,10,-1
 457 166 l 1,11,-1
 1092 166 l 1,12,-1
 1092 0 l 1,13,-1
 270 0 l 1,0,-1
EndSplineSet
EndChar
StartChar: lslash
Encoding: 322 322 260
Width: 600
GlyphClass: 2
Flags: W
LayerCount: 2
Fore
SplineSet
260 289 m 1,0,-1
 191 244 l 1,1,-1
 153 303 l 1,2,-1
 260 373 l 1,3,-1
 260 690 l 1,4,-1
 129 700 l 1,5,-1
 129 760 l 1,6,-1
 349 760 l 1,7,-1
 349 431 l 1,8,-1
 429 484 l 1,9,-1
 467 425 l 1,10,-1
 349 347 l 1,11,-1
 349 70 l 1,12,-1
 521 60 l 1,13,-1
 521 0 l 1,14,-1
 92 0 l 1,15,-1
 92 60 l 1,16,-1
 260 70 l 1,17,-1
 260 289 l 1,0,-1
EndSplineSet
Validated: 1
EndChar
StartChar: napostrophe
Encoding: 329 329 267
Width: 1229
GlyphClass: 2
Flags: W
LayerCount: 2
Back
Fore
SplineSet
283 1462 m 1,0,-1
 297 1440 l 1,1,2
 247 1243 247 1243 121 961 c 1,3,-1
 -16 961 l 1,4,5
 44 1203 44 1203 84 1462 c 1,6,-1
 283 1462 l 1,0,-1
948 0 m 1,7,-1
 948 707 l 2,8,9
 948 967 948 967 729 967 c 0,10,11
 444 967 444 967 444 569 c 2,12,-1
 444 0 l 1,13,-1
 262 0 l 1,14,-1
 262 1098 l 1,15,-1
 410 1098 l 1,16,-1
 436 950 l 1,17,-1
 446 950 l 1,18,19
 488 1028 488 1028 574.5 1073 c 128,-1,20
 661 1118 661 1118 764 1118 c 0,21,22
 1130 1118 1130 1118 1130 717 c 2,23,-1
 1130 0 l 1,24,-1
 948 0 l 1,7,-1
EndSplineSet
EndChar
StartChar: Eng
Encoding: 330 330 268
Width: 600
GlyphClass: 2
Flags: W
LayerCount: 2
Fore
SplineSet
145 591 m 1,0,-1
 141 591 l 1,1,2
 150 456 150 456 150 387 c 2,3,-1
 150 0 l 1,4,-1
 66 0 l 1,5,-1
 66 714 l 1,6,-1
 170 714 l 1,7,-1
 452 163 l 1,8,-1
 457 163 l 1,9,10
 448 297 448 297 448 360 c 2,11,-1
 448 714 l 1,12,-1
 533 714 l 1,13,-1
 533 10 l 2,14,15
 533 -87 533 -87 484.5 -138.5 c 128,-1,16
 436 -190 436 -190 344 -190 c 0,17,18
 298 -190 298 -190 268 -178 c 1,19,-1
 268 -100 l 1,20,21
 306 -110 306 -110 345 -110 c 0,22,23
 448 -110 448 -110 448 0 c 1,24,-1
 145 591 l 1,0,-1
EndSplineSet
Validated: 1
EndChar
StartChar: eng
Encoding: 331 331 269
Width: 1229
GlyphClass: 2
Flags: W
LayerCount: 2
Back
Fore
SplineSet
342 0 m 1,0,-1
 160 0 l 1,1,-1
 160 1098 l 1,2,-1
 307 1098 l 1,3,-1
 334 950 l 1,4,-1
 344 950 l 1,5,6
 447 1118 447 1118 680 1118 c 0,7,8
 1069 1118 1069 1118 1069 717 c 2,9,-1
 1069 -158 l 2,10,11
 1069 -492 1069 -492 778 -492 c 0,12,13
 697 -492 697 -492 645 -467 c 1,14,-1
 645 -319 l 1,15,16
 699 -340 699 -340 760 -340 c 0,17,18
 887 -340 887 -340 887 -170 c 2,19,-1
 887 707 l 2,20,21
 887 967 887 967 649 967 c 0,22,23
 342 967 342 967 342 569 c 2,24,-1
 342 0 l 1,0,-1
EndSplineSet
EndChar
StartChar: OE
Encoding: 338 338 276
Width: 600
GlyphClass: 2
Flags: W
LayerCount: 2
Fore
SplineSet
599 0 m 1,0,-1
 319 0 l 1,1,-1
 295 -5 l 2,2,3
 270 -10 270 -10 248 -10 c 0,4,5
 10 -10 10 -10 10 359 c 0,6,7
 10 725 10 725 260 725 c 0,8,9
 300 725 300 725 335 714 c 1,10,-1
 599 714 l 1,11,-1
 599 634 l 1,12,-1
 405 634 l 1,13,-1
 405 413 l 1,14,-1
 580 413 l 1,15,-1
 580 334 l 1,16,-1
 405 334 l 1,17,-1
 405 80 l 1,18,-1
 599 80 l 1,19,-1
 599 0 l 1,0,-1
318 86 m 1,20,-1
 318 629 l 1,21,22
 290 645 290 645 254 645 c 0,23,24
 102 645 102 645 102 358 c 0,25,26
 102 70 102 70 253 70 c 0,27,28
 287 70 287 70 318 86 c 1,20,-1
EndSplineSet
Validated: 1
EndChar
StartChar: oe
Encoding: 339 339 277
Width: 1229
GlyphClass: 2
Flags: W
LayerCount: 2
Back
Fore
SplineSet
651 201 m 1,0,1
 563 -20 563 -20 385 -20 c 0,2,3
 239 -20 239 -20 148 133.5 c 128,-1,4
 57 287 57 287 57 551 c 0,5,6
 57 819 57 819 145 968.5 c 128,-1,7
 233 1118 233 1118 387 1118 c 0,8,9
 558 1118 558 1118 647 901 c 1,10,11
 731 1118 731 1118 889 1118 c 0,12,13
 1020 1118 1020 1118 1097 984.5 c 128,-1,14
 1174 851 1174 851 1174 627 c 2,15,-1
 1174 514 l 1,16,-1
 735 514 l 1,17,18
 738 139 738 139 924 139 c 0,19,20
 1032 139 1032 139 1128 215 c 1,21,-1
 1128 53 l 1,22,23
 1034 -20 1034 -20 911 -20 c 0,24,25
 824 -20 824 -20 752.5 39 c 128,-1,26
 681 98 681 98 651 201 c 1,0,1
397 131 m 0,27,28
 565 131 565 131 565 541 c 0,29,30
 565 967 565 967 395 967 c 0,31,32
 305 967 305 967 266 864 c 128,-1,33
 227 761 227 761 227 551 c 0,34,35
 227 340 227 340 266.5 235.5 c 128,-1,36
 306 131 306 131 397 131 c 0,27,28
997 662 m 1,37,38
 997 967 997 967 874 967 c 0,39,40
 749 967 749 967 737 662 c 1,41,-1
 997 662 l 1,37,38
EndSplineSet
Validated: 1
EndChar
StartChar: Tbar
Encoding: 358 358 296
Width: 600
GlyphClass: 2
Flags: W
LayerCount: 2
Fore
SplineSet
254 400 m 1,0,-1
 254 634 l 1,1,-1
 50 634 l 1,2,-1
 50 714 l 1,3,-1
 549 714 l 1,4,-1
 549 634 l 1,5,-1
 345 634 l 1,6,-1
 345 400 l 1,7,-1
 489 400 l 1,8,-1
 489 327 l 1,9,-1
 345 327 l 1,10,-1
 345 0 l 1,11,-1
 254 0 l 1,12,-1
 254 327 l 1,13,-1
 109 327 l 1,14,-1
 109 400 l 1,15,-1
 254 400 l 1,0,-1
EndSplineSet
Validated: 1
EndChar
StartChar: tbar
Encoding: 359 359 297
Width: 600
GlyphClass: 2
Flags: W
LayerCount: 2
Fore
SplineSet
498 73 m 1,0,-1
 498 6 l 1,1,2
 435 -10 435 -10 375 -10 c 0,3,4
 198 -10 198 -10 198 158 c 2,5,-1
 198 281 l 1,6,-1
 119 281 l 1,7,-1
 119 348 l 1,8,-1
 198 348 l 1,9,-1
 198 469 l 1,10,-1
 68 469 l 1,11,-1
 68 515 l 1,12,-1
 198 539 l 1,13,-1
 236 679 l 1,14,-1
 287 679 l 1,15,-1
 287 536 l 1,16,-1
 501 536 l 1,17,-1
 501 469 l 1,18,-1
 287 469 l 1,19,-1
 287 348 l 1,20,-1
 437 348 l 1,21,-1
 437 281 l 1,22,-1
 287 281 l 1,23,-1
 287 158 l 2,24,25
 287 63 287 63 381 63 c 0,26,27
 426 63 426 63 498 73 c 1,0,-1
EndSplineSet
Validated: 1
EndChar
StartChar: longs
Encoding: 383 383 321
Width: 600
GlyphClass: 2
Flags: W
LayerCount: 2
Fore
SplineSet
497 748 m 1,0,-1
 477 678 l 1,1,2
 426 692 426 692 366 692 c 0,3,4
 308 692 308 692 285.5 668.5 c 128,-1,5
 263 645 263 645 263 587 c 2,6,-1
 263 0 l 1,7,-1
 174 0 l 1,8,-1
 174 586 l 2,9,10
 174 679 174 679 218 722 c 128,-1,11
 262 765 262 765 364 765 c 0,12,13
 425 765 425 765 497 748 c 1,0,-1
EndSplineSet
Validated: 1
EndChar
StartChar: florin
Encoding: 402 402 322
Width: 600
GlyphClass: 2
Flags: W
LayerCount: 2
Fore
SplineSet
326 408 m 1,0,-1
 326 -61 l 2,1,2
 326 -154 326 -154 288.5 -197 c 128,-1,3
 251 -240 251 -240 164 -240 c 0,4,5
 139 -240 139 -240 105 -233 c 1,6,-1
 105 -158 l 1,7,8
 134 -167 134 -167 161 -167 c 0,9,10
 206 -167 206 -167 221.5 -142 c 128,-1,11
 237 -117 237 -117 237 -62 c 2,12,-1
 237 408 l 1,13,-1
 142 408 l 1,14,-1
 142 445 l 1,15,-1
 237 478 l 1,16,-1
 237 545 l 2,17,18
 237 638 237 638 274.5 681 c 128,-1,19
 312 724 312 724 399 724 c 0,20,21
 446 724 446 724 495 706 c 1,22,-1
 472 637 l 1,23,24
 433 651 433 651 402 651 c 0,25,26
 357 651 357 651 341.5 626 c 128,-1,27
 326 601 326 601 326 546 c 2,28,-1
 326 475 l 1,29,-1
 446 475 l 1,30,-1
 446 408 l 1,31,-1
 326 408 l 1,0,-1
EndSplineSet
Validated: 1
EndChar
StartChar: Ohorn
Encoding: 416 416 323
Width: 1229
GlyphClass: 2
Flags: W
LayerCount: 2
Back
Fore
SplineSet
1147 733 m 0,0,1
 1147 564 1147 564 1115 425 c 128,-1,2
 1083 286 1083 286 1017 187 c 128,-1,3
 951 88 951 88 851 34 c 128,-1,4
 751 -20 751 -20 616 -20 c 0,5,6
 474 -20 474 -20 373.5 34 c 128,-1,7
 273 88 273 88 208.5 187 c 128,-1,8
 144 286 144 286 114 425.5 c 128,-1,9
 84 565 84 565 84 735 c 256,10,11
 84 905 84 905 114 1043.5 c 128,-1,12
 144 1182 144 1182 208.5 1280 c 128,-1,13
 273 1378 273 1378 374.5 1431.5 c 128,-1,14
 476 1485 476 1485 618 1485 c 0,15,16
 742 1485 742 1485 835.5 1440 c 128,-1,17
 929 1395 929 1395 995 1309 c 1,18,19
 1013 1328 1013 1328 1024.5 1354 c 128,-1,20
 1036 1380 1036 1380 1042.5 1411.5 c 128,-1,21
 1049 1443 1049 1443 1052 1479.5 c 128,-1,22
 1055 1516 1055 1516 1057 1556 c 1,23,-1
 1255 1556 l 1,24,-1
 1270 1534 l 1,25,26
 1259 1482 1259 1482 1242.5 1432.5 c 128,-1,27
 1226 1383 1226 1383 1201.5 1339.5 c 128,-1,28
 1177 1296 1177 1296 1143 1259 c 128,-1,29
 1109 1222 1109 1222 1063 1194 c 1,30,31
 1105 1103 1105 1103 1126 986.5 c 128,-1,32
 1147 870 1147 870 1147 733 c 0,0,1
281 733 m 0,33,34
 281 596 281 596 299 486.5 c 128,-1,35
 317 377 317 377 356.5 300.5 c 128,-1,36
 396 224 396 224 460 183.5 c 128,-1,37
 524 143 524 143 616 143 c 0,38,39
 709 143 709 143 773 183.5 c 128,-1,40
 837 224 837 224 876 300.5 c 128,-1,41
 915 377 915 377 932.5 486.5 c 128,-1,42
 950 596 950 596 950 733 c 0,43,44
 950 871 950 871 932.5 980 c 128,-1,45
 915 1089 915 1089 876 1164.5 c 128,-1,46
 837 1240 837 1240 773.5 1280.5 c 128,-1,47
 710 1321 710 1321 618 1321 c 0,48,49
 525 1321 525 1321 461 1280.5 c 128,-1,50
 397 1240 397 1240 357 1164.5 c 128,-1,51
 317 1089 317 1089 299 980 c 128,-1,52
 281 871 281 871 281 733 c 0,33,34
EndSplineSet
Validated: 1
EndChar
StartChar: ohorn
Encoding: 417 417 324
Width: 600
GlyphClass: 2
Flags: W
LayerCount: 2
Fore
SplineSet
543 269 m 0,0,1
 543 202 543 202 525 150 c 128,-1,2
 507 98 507 98 474.5 62.5 c 128,-1,3
 442 27 442 27 397 8.5 c 128,-1,4
 352 -10 352 -10 298 -10 c 0,5,6
 248 -10 248 -10 204 8.5 c 128,-1,7
 160 27 160 27 127 62.5 c 128,-1,8
 94 98 94 98 75 150 c 128,-1,9
 56 202 56 202 56 269 c 0,10,11
 56 335 56 335 74 386.5 c 128,-1,12
 92 438 92 438 124 473.5 c 128,-1,13
 156 509 156 509 201.5 527.5 c 128,-1,14
 247 546 247 546 301 546 c 0,15,16
 348 546 348 546 390 530 c 128,-1,17
 432 514 432 514 464 482 c 1,18,19
 483 490 483 490 493 503.5 c 128,-1,20
 503 517 503 517 508.5 534.5 c 128,-1,21
 514 552 514 552 515 573.5 c 128,-1,22
 516 595 516 595 516 618 c 1,23,-1
 613 618 l 1,24,-1
 620 607 l 1,25,26
 613 573 613 573 602.5 545.5 c 128,-1,27
 592 518 592 518 578 495.5 c 128,-1,28
 564 473 564 473 546 456.5 c 128,-1,29
 528 440 528 440 504 430 c 1,30,31
 523 398 523 398 533 357.5 c 128,-1,32
 543 317 543 317 543 269 c 0,0,1
148 269 m 256,33,34
 148 166 148 166 186.5 115 c 128,-1,35
 225 64 225 64 300 64 c 0,36,37
 451 64 451 64 451 269 c 0,38,39
 451 372 451 372 413 422 c 128,-1,40
 375 472 375 472 299 472 c 0,41,42
 224 472 224 472 186 422 c 128,-1,43
 148 372 148 372 148 269 c 256,33,34
EndSplineSet
Validated: 1
EndChar
StartChar: Uhorn
Encoding: 431 431 325
Width: 1229
GlyphClass: 2
Flags: W
LayerCount: 2
Back
Fore
SplineSet
950 1462 m 1,0,-1
 950 1268 l 1,1,2
 997 1276 997 1276 1024.5 1302 c 128,-1,3
 1052 1328 1052 1328 1066.5 1366.5 c 128,-1,4
 1081 1405 1081 1405 1085.5 1453.5 c 128,-1,5
 1090 1502 1090 1502 1090 1556 c 1,6,-1
 1288 1556 l 1,7,-1
 1303 1534 l 1,8,9
 1288 1465 1288 1465 1264 1401.5 c 128,-1,10
 1240 1338 1240 1338 1199 1285.5 c 128,-1,11
 1158 1233 1158 1233 1097.5 1195.5 c 128,-1,12
 1037 1158 1037 1158 950 1141 c 1,13,-1
 950 475 l 2,14,15
 950 361 950 361 927.5 269.5 c 128,-1,16
 905 178 905 178 855.5 113.5 c 128,-1,17
 806 49 806 49 726.5 14.5 c 128,-1,18
 647 -20 647 -20 532 -20 c 0,19,20
 424 -20 424 -20 347 12.5 c 128,-1,21
 270 45 270 45 220.5 108 c 128,-1,22
 171 171 171 171 148 264 c 128,-1,23
 125 357 125 357 125 479 c 2,24,-1
 125 1462 l 1,25,-1
 311 1462 l 1,26,-1
 311 489 l 2,27,28
 311 402 311 402 323 337 c 128,-1,29
 335 272 335 272 362 229 c 128,-1,30
 389 186 389 186 433.5 164.5 c 128,-1,31
 478 143 478 143 543 143 c 0,32,33
 610 143 610 143 653 167 c 128,-1,34
 696 191 696 191 720.5 236 c 128,-1,35
 745 281 745 281 754.5 345.5 c 128,-1,36
 764 410 764 410 764 492 c 2,37,-1
 764 1462 l 1,38,-1
 950 1462 l 1,0,-1
EndSplineSet
Validated: 1
EndChar
StartChar: uhorn
Encoding: 432 432 326
Width: 1229
GlyphClass: 2
Flags: W
LayerCount: 2
Back
Fore
SplineSet
786 0 m 1,0,-1
 760 147 l 1,1,-1
 752 147 l 1,2,3
 730 104 730 104 700 72.5 c 128,-1,4
 670 41 670 41 634 20.5 c 128,-1,5
 598 0 598 0 558 -10 c 128,-1,6
 518 -20 518 -20 477 -20 c 0,7,8
 398 -20 398 -20 338.5 3 c 128,-1,9
 279 26 279 26 239.5 75 c 128,-1,10
 200 124 200 124 180 200 c 128,-1,11
 160 276 160 276 160 381 c 2,12,-1
 160 1098 l 1,13,-1
 342 1098 l 1,14,-1
 342 391 l 2,15,16
 342 261 342 261 384 196 c 128,-1,17
 426 131 426 131 516 131 c 0,18,19
 582 131 582 131 627 157 c 128,-1,20
 672 183 672 183 700 233.5 c 128,-1,21
 728 284 728 284 740 358 c 128,-1,22
 752 432 752 432 752 528 c 2,23,-1
 752 1098 l 1,24,-1
 934 1098 l 1,25,-1
 934 975 l 1,26,27
 986 981 986 981 1017 1006 c 128,-1,28
 1048 1031 1048 1031 1064 1070 c 128,-1,29
 1080 1109 1080 1109 1085 1159.5 c 128,-1,30
 1090 1210 1090 1210 1090 1266 c 1,31,-1
 1288 1266 l 1,32,-1
 1303 1243 l 1,33,34
 1288 1173 1288 1173 1263 1105 c 128,-1,35
 1238 1037 1238 1037 1195.5 982 c 128,-1,36
 1153 927 1153 927 1089.5 891 c 128,-1,37
 1026 855 1026 855 934 848 c 1,38,-1
 934 0 l 1,39,-1
 786 0 l 1,0,-1
EndSplineSet
EndChar
StartChar: circumflex
Encoding: 710 710 337
Width: 1229
GlyphClass: 2
Flags: W
LayerCount: 2
Back
Fore
SplineSet
946 1241 m 1,0,-1
 825 1241 l 1,1,2
 740 1297 740 1297 614 1427 c 1,3,4
 481 1291 481 1291 403 1241 c 1,5,-1
 283 1241 l 1,6,-1
 283 1268 l 1,7,8
 308 1297 308 1297 342 1335 c 0,9,10
 481 1490 481 1490 518 1569 c 1,11,-1
 711 1569 l 1,12,13
 748 1490 748 1490 887 1335 c 2,14,-1
 946 1268 l 1,15,-1
 946 1241 l 1,0,-1
EndSplineSet
Validated: 1
EndChar
StartChar: caron
Encoding: 711 711 338
Width: 1229
GlyphClass: 2
Flags: W
LayerCount: 2
Back
Fore
SplineSet
946 1542 m 1,0,1
 921 1513 921 1513 887 1475 c 0,2,3
 746 1317 746 1317 711 1241 c 1,4,-1
 518 1241 l 1,5,6
 483 1317 483 1317 342 1475 c 2,7,-1
 283 1542 l 1,8,-1
 283 1569 l 1,9,-1
 403 1569 l 1,10,11
 485 1515 485 1515 614 1382 c 1,12,13
 736 1510 736 1510 825 1569 c 1,14,-1
 946 1569 l 1,15,-1
 946 1542 l 1,0,1
EndSplineSet
EndChar
StartChar: macron
Encoding: 713 713 339
Width: 600
GlyphClass: 2
Flags: W
LayerCount: 2
Fore
SplineSet
159 679 m 1,0,-1
 440 679 l 1,1,-1
 440 606 l 1,2,-1
 159 606 l 1,3,-1
 159 679 l 1,0,-1
EndSplineSet
Validated: 1
EndChar
StartChar: breve
Encoding: 728 728 340
Width: 600
GlyphClass: 2
Flags: W
LayerCount: 2
Fore
SplineSet
447 741 m 1,0,1
 443 679 443 679 403.5 642.5 c 128,-1,2
 364 606 364 606 298 606 c 0,3,4
 161 606 161 606 153 741 c 1,5,-1
 206 741 l 1,6,7
 209 704 209 704 228.5 692 c 128,-1,8
 248 680 248 680 299 680 c 0,9,10
 387 680 387 680 392 741 c 1,11,-1
 447 741 l 1,0,1
EndSplineSet
Validated: 1
EndChar
StartChar: dotaccent
Encoding: 729 729 341
Width: 1229
GlyphClass: 2
Flags: W
LayerCount: 2
Back
Fore
SplineSet
614 1509 m 0,0,1
 721 1509 721 1509 721 1395 c 0,2,3
 721 1280 721 1280 614 1280 c 0,4,5
 508 1280 508 1280 508 1395 c 0,6,7
 508 1509 508 1509 614 1509 c 0,0,1
EndSplineSet
Validated: 1
EndChar
StartChar: ring
Encoding: 730 730 342
Width: 1229
GlyphClass: 2
Flags: W
LayerCount: 2
Back
Fore
SplineSet
610 1241 m 0,0,1
 508 1241 508 1241 447.5 1299 c 128,-1,2
 387 1357 387 1357 387 1456 c 256,3,4
 387 1555 387 1555 447.5 1613 c 128,-1,5
 508 1671 508 1671 610 1671 c 0,6,7
 711 1671 711 1671 775.5 1612 c 128,-1,8
 840 1553 840 1553 840 1458 c 0,9,10
 840 1360 840 1360 776.5 1300.5 c 128,-1,11
 713 1241 713 1241 610 1241 c 0,0,1
610 1569 m 0,12,13
 561 1569 561 1569 529.5 1539 c 128,-1,14
 498 1509 498 1509 498 1456 c 0,15,16
 498 1343 498 1343 610 1343 c 0,17,18
 660 1343 660 1343 691.5 1373 c 128,-1,19
 723 1403 723 1403 723 1456 c 256,20,21
 723 1509 723 1509 691.5 1539 c 128,-1,22
 660 1569 660 1569 610 1569 c 0,12,13
EndSplineSet
Validated: 1
EndChar
StartChar: ogonek
Encoding: 731 731 343
Width: 600
GlyphClass: 2
Flags: W
LayerCount: 2
Fore
SplineSet
398 -156 m 1,0,-1
 398 -211 l 1,1,2
 362 -222 362 -222 322 -222 c 0,3,4
 264 -222 264 -222 233 -195.5 c 128,-1,5
 202 -169 202 -169 202 -123 c 0,6,7
 202 -53 202 -53 295 0 c 1,8,-1
 359 0 l 1,9,10
 276 -61 276 -61 276 -116 c 0,11,12
 276 -163 276 -163 338 -163 c 0,13,14
 370 -163 370 -163 398 -156 c 1,0,-1
EndSplineSet
Validated: 1
EndChar
StartChar: tilde
Encoding: 732 732 344
Width: 600
GlyphClass: 2
Flags: W
LayerCount: 2
Fore
SplineSet
175 606 m 1,0,-1
 124 606 l 1,1,2
 136 735 136 735 227 735 c 0,3,4
 255 735 255 735 306 708 c 0,5,6
 356 681 356 681 372 680 c 0,7,8
 411 680 411 680 424 736 c 1,9,-1
 475 736 l 1,10,11
 462 607 462 607 372 607 c 0,12,13
 344 607 344 607 295 635 c 0,14,15
 246 662 246 662 227 662 c 0,16,17
 187 662 187 662 175 606 c 1,0,-1
EndSplineSet
Validated: 1
EndChar
StartChar: hungarumlaut
Encoding: 733 733 345
Width: 600
GlyphClass: 2
Flags: W
LayerCount: 2
Fore
SplineSet
120 619 m 1,0,1
 166 684 166 684 205 766 c 1,2,-1
 302 766 l 1,3,-1
 302 756 l 1,4,5
 247 672 247 672 169 606 c 1,6,-1
 120 606 l 1,7,-1
 120 619 l 1,0,1
297 619 m 1,8,9
 339 677 339 677 382 766 c 1,10,-1
 479 766 l 1,11,-1
 479 756 l 1,12,13
 424 672 424 672 346 606 c 1,14,-1
 297 606 l 1,15,-1
 297 619 l 1,8,9
EndSplineSet
Validated: 1
EndChar
StartChar: uni02F3
Encoding: 755 755 346
Width: 600
GlyphClass: 2
Flags: W
LayerCount: 2
Fore
SplineSet
410 -165 m 0,0,1
 410 -190 410 -190 401.5 -209.5 c 128,-1,2
 393 -229 393 -229 378 -243 c 128,-1,3
 363 -257 363 -257 342.5 -264 c 128,-1,4
 322 -271 322 -271 298 -271 c 0,5,6
 274 -271 274 -271 253.5 -264 c 128,-1,7
 233 -257 233 -257 219 -243 c 128,-1,8
 205 -229 205 -229 197 -210 c 128,-1,9
 189 -191 189 -191 189 -166 c 256,10,11
 189 -141 189 -141 197 -122 c 128,-1,12
 205 -103 205 -103 219 -89 c 128,-1,13
 233 -75 233 -75 253 -68 c 128,-1,14
 273 -61 273 -61 298 -61 c 0,15,16
 321 -61 321 -61 341.5 -68 c 128,-1,17
 362 -75 362 -75 377.5 -88.5 c 128,-1,18
 393 -102 393 -102 401.5 -121.5 c 128,-1,19
 410 -141 410 -141 410 -165 c 0,0,1
353 -166 m 256,20,21
 353 -140 353 -140 337.5 -125.5 c 128,-1,22
 322 -111 322 -111 298 -111 c 0,23,24
 274 -111 274 -111 258.5 -125.5 c 128,-1,25
 243 -140 243 -140 243 -166 c 256,26,27
 243 -192 243 -192 257 -206.5 c 128,-1,28
 271 -221 271 -221 298 -221 c 0,29,30
 322 -221 322 -221 337.5 -206.5 c 128,-1,31
 353 -192 353 -192 353 -166 c 256,20,21
EndSplineSet
Validated: 1
EndChar
StartChar: hook
Encoding: 777 777 350
Width: 1229
GlyphClass: 2
Flags: W
LayerCount: 2
Back
Fore
SplineSet
801 1491 m 0,0,1
 801 1452 801 1452 787.5 1423 c 128,-1,2
 774 1394 774 1394 751.5 1373.5 c 128,-1,3
 729 1353 729 1353 699 1340 c 128,-1,4
 669 1327 669 1327 635 1319 c 1,5,-1
 625 1208 l 1,6,-1
 512 1208 l 1,7,-1
 498 1384 l 1,8,9
 535 1390 535 1390 564.5 1398 c 128,-1,10
 594 1406 594 1406 615 1418 c 128,-1,11
 636 1430 636 1430 647.5 1446.5 c 128,-1,12
 659 1463 659 1463 659 1487 c 256,13,14
 659 1511 659 1511 649 1527 c 128,-1,15
 639 1543 639 1543 621 1552.5 c 128,-1,16
 603 1562 603 1562 578 1565.5 c 128,-1,17
 553 1569 553 1569 524 1569 c 0,18,19
 496 1569 496 1569 470 1567.5 c 128,-1,20
 444 1566 444 1566 428 1563 c 1,21,-1
 428 1671 l 1,22,23
 444 1674 444 1674 469 1676.5 c 128,-1,24
 494 1679 494 1679 535 1679 c 0,25,26
 668 1679 668 1679 734.5 1633.5 c 128,-1,27
 801 1588 801 1588 801 1491 c 0,0,1
EndSplineSet
EndChar
StartChar: uni030F
Encoding: 783 783 351
Width: 600
GlyphClass: 2
Flags: W
LayerCount: 2
Fore
SplineSet
459 606 m 1,0,-1
 410 606 l 1,1,2
 393 620 393 620 373.5 640 c 128,-1,3
 354 660 354 660 335 681.5 c 128,-1,4
 316 703 316 703 300.5 723 c 128,-1,5
 285 743 285 743 277 756 c 1,6,-1
 277 766 l 1,7,-1
 374 766 l 1,8,9
 382 749 382 749 392.5 729.5 c 128,-1,10
 403 710 403 710 414 690 c 128,-1,11
 425 670 425 670 437 651.5 c 128,-1,12
 449 633 449 633 459 619 c 1,13,-1
 459 606 l 1,0,-1
282 606 m 1,14,-1
 233 606 l 1,15,16
 216 620 216 620 196 640 c 128,-1,17
 176 660 176 660 157.5 681.5 c 128,-1,18
 139 703 139 703 123.5 723 c 128,-1,19
 108 743 108 743 100 756 c 1,20,-1
 100 766 l 1,21,-1
 197 766 l 1,22,23
 205 749 205 749 215.5 729.5 c 128,-1,24
 226 710 226 710 237 690 c 128,-1,25
 248 670 248 670 259.5 651.5 c 128,-1,26
 271 633 271 633 282 619 c 1,27,-1
 282 606 l 1,14,-1
EndSplineSet
Validated: 1
EndChar
StartChar: dotbelow
Encoding: 803 803 352
Width: 600
GlyphClass: 2
Flags: W
LayerCount: 2
Fore
SplineSet
248 -120 m 256,0,1
 248 -91 248 -91 263 -77.5 c 128,-1,2
 278 -64 278 -64 300 -64 c 0,3,4
 321 -64 321 -64 336.5 -77.5 c 128,-1,5
 352 -91 352 -91 352 -120 c 0,6,7
 352 -134 352 -134 348 -144.5 c 128,-1,8
 344 -155 344 -155 337 -162 c 128,-1,9
 330 -169 330 -169 320.5 -172.5 c 128,-1,10
 311 -176 311 -176 300 -176 c 0,11,12
 278 -176 278 -176 263 -162.5 c 128,-1,13
 248 -149 248 -149 248 -120 c 256,0,1
EndSplineSet
Validated: 1
EndChar
StartChar: tonos
Encoding: 900 900 353
Width: 600
GlyphClass: 2
Flags: W
LayerCount: 2
Fore
SplineSet
234 619 m 1,0,-1
 249 671 l 2,1,2
 264 727 264 727 268 766 c 1,3,-1
 365 766 l 1,4,-1
 365 756 l 2,5,6
 365 748 365 748 341 697 c 128,-1,7
 317 646 317 646 287 606 c 1,8,-1
 234 606 l 1,9,-1
 234 619 l 1,0,-1
EndSplineSet
Validated: 1
EndChar
StartChar: dieresistonos
Encoding: 901 901 354
Width: 600
GlyphClass: 2
Flags: W
LayerCount: 2
Fore
SplineSet
260 691 m 1,0,1
 284 759 284 759 304 838 c 1,2,-1
 405 838 l 1,3,-1
 405 828 l 1,4,5
 360 748 360 748 300 678 c 1,6,-1
 260 678 l 1,7,-1
 260 691 l 1,0,1
193 731 m 0,8,9
 240 731 240 731 240 681 c 0,10,11
 240 657 240 657 226.5 644 c 128,-1,12
 213 631 213 631 193 631 c 0,13,14
 146 631 146 631 146 681 c 0,15,16
 146 731 146 731 193 731 c 0,8,9
406 731 m 0,17,18
 453 731 453 731 453 681 c 0,19,20
 453 631 453 631 406 631 c 0,21,22
 359 631 359 631 359 681 c 0,23,24
 359 731 359 731 406 731 c 0,17,18
EndSplineSet
Validated: 1
EndChar
StartChar: Gamma
Encoding: 915 915 366
Width: 600
GlyphClass: 2
Flags: W
LayerCount: 2
Fore
SplineSet
523 714 m 1,0,-1
 523 633 l 1,1,-1
 211 633 l 1,2,-1
 211 0 l 1,3,-1
 120 0 l 1,4,-1
 120 714 l 1,5,-1
 523 714 l 1,0,-1
EndSplineSet
Validated: 1
EndChar
StartChar: uni0394
Encoding: 916 916 367
Width: 1229
GlyphClass: 2
Flags: W
LayerCount: 2
Back
Fore
SplineSet
1159 125 m 1,0,-1
 1159 0 l 1,1,-1
 68 0 l 1,2,-1
 68 133 l 1,3,-1
 518 1462 l 1,4,-1
 705 1462 l 1,5,-1
 1159 125 l 1,0,-1
610 1257 m 1,6,7
 559 1034 559 1034 522 924 c 2,8,-1
 268 166 l 1,9,-1
 954 166 l 1,10,-1
 702 918 l 2,11,12
 650 1073 650 1073 610 1257 c 1,6,7
EndSplineSet
EndChar
StartChar: Theta
Encoding: 920 920 371
Width: 600
GlyphClass: 2
Flags: W
LayerCount: 2
Fore
SplineSet
301 -10 m 0,0,1
 41 -10 41 -10 41 359 c 0,2,3
 41 725 41 725 302 725 c 0,4,5
 427 725 427 725 493.5 629.5 c 128,-1,6
 560 534 560 534 560 358 c 256,7,8
 560 182 560 182 493 86 c 128,-1,9
 426 -10 426 -10 301 -10 c 0,0,1
301 70 m 0,10,11
 385 70 385 70 424.5 140.5 c 128,-1,12
 464 211 464 211 464 358 c 0,13,14
 464 506 464 506 424 575.5 c 128,-1,15
 384 645 384 645 302 645 c 0,16,17
 137 645 137 645 137 358 c 0,18,19
 137 70 137 70 301 70 c 0,10,11
200 403 m 1,20,-1
 401 403 l 1,21,-1
 401 324 l 1,22,-1
 200 324 l 1,23,-1
 200 403 l 1,20,-1
EndSplineSet
Validated: 1
EndChar
StartChar: Lambda
Encoding: 923 923 374
Width: 1229
GlyphClass: 2
Flags: W
LayerCount: 2
Back
Fore
SplineSet
1196 0 m 1,0,-1
 997 0 l 1,1,-1
 705 922 l 2,2,3
 642 1121 642 1121 612 1262 c 1,4,5
 567 1062 567 1062 524 928 c 2,6,-1
 229 0 l 1,7,-1
 33 0 l 1,8,-1
 520 1462 l 1,9,-1
 707 1462 l 1,10,-1
 1196 0 l 1,0,-1
EndSplineSet
Validated: 1
EndChar
StartChar: Xi
Encoding: 926 926 377
Width: 600
GlyphClass: 2
Flags: W
LayerCount: 2
Fore
SplineSet
74 714 m 1,0,-1
 525 714 l 1,1,-1
 525 634 l 1,2,-1
 74 634 l 1,3,-1
 74 714 l 1,0,-1
114 413 m 1,4,-1
 485 413 l 1,5,-1
 485 334 l 1,6,-1
 114 334 l 1,7,-1
 114 413 l 1,4,-1
545 80 m 1,8,-1
 545 0 l 1,9,-1
 54 0 l 1,10,-1
 54 80 l 1,11,-1
 545 80 l 1,8,-1
EndSplineSet
Validated: 1
EndChar
StartChar: Pi
Encoding: 928 928 379
Width: 600
GlyphClass: 2
Flags: W
LayerCount: 2
Fore
SplineSet
534 0 m 1,0,-1
 443 0 l 1,1,-1
 443 634 l 1,2,-1
 157 634 l 1,3,-1
 157 0 l 1,4,-1
 66 0 l 1,5,-1
 66 714 l 1,6,-1
 534 714 l 1,7,-1
 534 0 l 1,0,-1
EndSplineSet
Validated: 1
EndChar
StartChar: Sigma
Encoding: 931 931 381
Width: 600
GlyphClass: 2
Flags: W
LayerCount: 2
Fore
SplineSet
64 0 m 1,0,-1
 64 74 l 1,1,-1
 266 374 l 1,2,-1
 70 642 l 1,3,-1
 70 714 l 1,4,-1
 506 714 l 1,5,-1
 506 634 l 1,6,-1
 174 634 l 1,7,-1
 364 375 l 1,8,-1
 164 80 l 1,9,-1
 535 80 l 1,10,-1
 535 0 l 1,11,-1
 64 0 l 1,0,-1
EndSplineSet
Validated: 1
EndChar
StartChar: Phi
Encoding: 934 934 384
Width: 600
GlyphClass: 2
Flags: W
LayerCount: 2
Fore
SplineSet
260 724 m 1,0,-1
 341 724 l 1,1,-1
 341 636 l 1,2,-1
 364 636 l 2,3,4
 468 636 468 636 528 560.5 c 128,-1,5
 588 485 588 485 588 370 c 256,6,7
 588 255 588 255 526 177.5 c 128,-1,8
 464 100 464 100 353 100 c 2,9,-1
 341 100 l 1,10,-1
 341 -10 l 1,11,-1
 260 -10 l 1,12,-1
 260 100 l 1,13,-1
 248 100 l 2,14,15
 136 100 136 100 74.5 177.5 c 128,-1,16
 13 255 13 255 13 370 c 256,17,18
 13 485 13 485 73 560.5 c 128,-1,19
 133 636 133 636 237 636 c 2,20,-1
 260 636 l 1,21,-1
 260 724 l 1,0,-1
341 177 m 1,22,-1
 344 177 l 2,23,24
 420 177 420 177 462 229 c 128,-1,25
 504 281 504 281 504 372 c 0,26,27
 504 456 504 456 465.5 507 c 128,-1,28
 427 558 427 558 357 558 c 2,29,-1
 341 558 l 1,30,-1
 341 177 l 1,22,-1
260 558 m 1,31,-1
 244 558 l 2,32,33
 174 558 174 558 135.5 507 c 128,-1,34
 97 456 97 456 97 372 c 0,35,36
 97 281 97 281 139 229 c 128,-1,37
 181 177 181 177 257 177 c 2,38,-1
 260 177 l 1,39,-1
 260 558 l 1,31,-1
EndSplineSet
Validated: 1
EndChar
StartChar: Psi
Encoding: 936 936 386
Width: 600
GlyphClass: 2
Flags: W
LayerCount: 2
Fore
SplineSet
573 480 m 2,0,1
 573 340 573 340 516.5 279 c 128,-1,2
 460 218 460 218 349 218 c 2,3,-1
 341 218 l 1,4,-1
 341 0 l 1,5,-1
 260 0 l 1,6,-1
 260 218 l 1,7,-1
 252 218 l 2,8,9
 140 218 140 218 84 279 c 128,-1,10
 28 340 28 340 28 478 c 2,11,-1
 28 714 l 1,12,-1
 112 714 l 1,13,-1
 112 480 l 2,14,15
 112 367 112 367 145.5 331 c 128,-1,16
 179 295 179 295 252 295 c 2,17,-1
 260 295 l 1,18,-1
 260 714 l 1,19,-1
 341 714 l 1,20,-1
 341 295 l 1,21,-1
 349 295 l 2,22,23
 422 295 422 295 455.5 330 c 128,-1,24
 489 365 489 365 489 478 c 2,25,-1
 489 714 l 1,26,-1
 573 714 l 1,27,-1
 573 480 l 2,0,1
EndSplineSet
Validated: 1
EndChar
StartChar: uni03A9
Encoding: 937 937 387
Width: 1229
GlyphClass: 2
Flags: W
LayerCount: 2
Back
Fore
SplineSet
541 147 m 1,0,-1
 541 0 l 1,1,-1
 74 0 l 1,2,-1
 74 164 l 1,3,-1
 340 164 l 1,4,5
 86 399 86 399 86 825 c 0,6,7
 86 1137 86 1137 226 1311 c 128,-1,8
 366 1485 366 1485 616 1485 c 256,9,10
 866 1485 866 1485 1006.5 1311 c 128,-1,11
 1147 1137 1147 1137 1147 825 c 0,12,13
 1147 396 1147 396 891 164 c 1,14,-1
 1159 164 l 1,15,-1
 1159 0 l 1,16,-1
 690 0 l 1,17,-1
 690 147 l 1,18,19
 950 378 950 378 950 821 c 0,20,21
 950 1321 950 1321 614 1321 c 0,22,23
 279 1321 279 1321 279 821 c 0,24,25
 279 378 279 378 541 147 c 1,0,-1
EndSplineSet
Validated: 1
EndChar
StartChar: alpha
Encoding: 945 945 395
Width: 600
GlyphClass: 2
Flags: W
LayerCount: 2
Fore
SplineSet
421 464 m 1,0,-1
 427 464 l 1,1,2
 442 514 442 514 460 536 c 1,3,-1
 530 536 l 1,4,5
 505 455 505 455 505 322 c 2,6,-1
 505 117 l 2,7,8
 505 63 505 63 546 63 c 0,9,10
 560 63 560 63 575 68 c 1,11,-1
 575 3 l 1,12,13
 550 -10 550 -10 519 -10 c 0,14,15
 441 -10 441 -10 422 72 c 1,16,-1
 416 72 l 1,17,18
 363 -10 363 -10 263 -10 c 0,19,20
 168 -10 168 -10 113.5 62.5 c 128,-1,21
 59 135 59 135 59 267 c 0,22,23
 59 400 59 400 115 473 c 128,-1,24
 171 546 171 546 272 546 c 0,25,26
 375 546 375 546 421 464 c 1,0,-1
416 260 m 1,27,-1
 416 267 l 2,28,29
 416 378 416 378 383.5 425 c 128,-1,30
 351 472 351 472 279 472 c 0,31,32
 151 472 151 472 151 266 c 0,33,34
 151 64 151 64 280 64 c 0,35,36
 352 64 352 64 383 109 c 128,-1,37
 414 154 414 154 416 260 c 1,27,-1
EndSplineSet
Validated: 1
EndChar
StartChar: beta
Encoding: 946 946 396
Width: 1229
GlyphClass: 2
Flags: W
LayerCount: 2
Back
Fore
SplineSet
723 829 m 1,0,-1
 723 823 l 1,1,2
 1104 775 1104 775 1104 414 c 0,3,4
 1104 209 1104 209 981.5 94.5 c 128,-1,5
 859 -20 859 -20 643 -20 c 0,6,7
 457 -20 457 -20 340 43 c 1,8,-1
 340 -492 l 1,9,-1
 158 -492 l 1,10,-1
 158 1096 l 2,11,12
 158 1322 158 1322 277 1444.5 c 128,-1,13
 396 1567 396 1567 604 1567 c 0,14,15
 802 1567 802 1567 920 1462 c 128,-1,16
 1038 1357 1038 1357 1038 1174 c 0,17,18
 1038 1038 1038 1038 957.5 947 c 128,-1,19
 877 856 877 856 723 829 c 1,0,-1
340 209 m 1,20,21
 475 129 475 129 629 129 c 0,22,23
 922 129 922 129 922 428 c 0,24,25
 922 574 922 574 827 656.5 c 128,-1,26
 732 739 732 739 573 739 c 2,27,-1
 479 739 l 1,28,-1
 479 891 l 1,29,-1
 549 891 l 2,30,31
 691 891 691 891 771.5 966 c 128,-1,32
 852 1041 852 1041 852 1167 c 0,33,34
 852 1285 852 1285 785 1351 c 128,-1,35
 718 1417 718 1417 604 1417 c 0,36,37
 340 1417 340 1417 340 1087 c 2,38,-1
 340 209 l 1,20,21
EndSplineSet
EndChar
StartChar: gamma
Encoding: 947 947 397
Width: 600
GlyphClass: 2
Flags: W
LayerCount: 2
Fore
SplineSet
361 31 m 2,0,1
 307 -106 307 -106 307 -240 c 1,2,-1
 214 -240 l 1,3,4
 214 -139 214 -139 263 6 c 1,5,-1
 40 536 l 1,6,-1
 134 536 l 1,7,-1
 252 247 l 2,8,9
 287 162 287 162 304 91 c 1,10,-1
 307 91 l 1,11,12
 320 142 320 142 355 235 c 2,13,-1
 467 536 l 1,14,-1
 559 536 l 1,15,-1
 361 31 l 2,0,1
EndSplineSet
Validated: 1
EndChar
StartChar: delta
Encoding: 948 948 398
Width: 600
GlyphClass: 2
Flags: W
LayerCount: 2
Fore
SplineSet
272 458 m 1,0,1
 148 529 148 529 148 628 c 0,2,3
 148 693 148 693 192.5 729 c 128,-1,4
 237 765 237 765 315 765 c 0,5,6
 412 765 412 765 507 712 c 1,7,-1
 471 641 l 1,8,9
 388 693 388 693 311 693 c 0,10,11
 275 693 275 693 254 675 c 128,-1,12
 233 657 233 657 233 626 c 256,13,14
 233 595 233 595 253.5 570 c 128,-1,15
 274 545 274 545 358 496 c 0,16,17
 534 395 534 395 534 243 c 0,18,19
 534 123 534 123 471 56.5 c 128,-1,20
 408 -10 408 -10 298 -10 c 0,21,22
 194 -10 194 -10 130 50.5 c 128,-1,23
 66 111 66 111 66 214 c 0,24,25
 66 396 66 396 272 458 c 1,0,1
334 417 m 1,26,27
 160 368 160 368 160 212 c 0,28,29
 160 146 160 146 197 105 c 128,-1,30
 234 64 234 64 298 64 c 0,31,32
 442 64 442 64 442 235 c 0,33,34
 442 354 442 354 334 417 c 1,26,27
EndSplineSet
Validated: 1
EndChar
StartChar: epsilon
Encoding: 949 949 399
Width: 1229
GlyphClass: 2
Flags: W
LayerCount: 2
Back
Fore
SplineSet
840 647 m 1,0,-1
 840 494 l 1,1,-1
 680 494 l 2,2,3
 379 494 379 494 379 309 c 0,4,5
 379 129 379 129 662 129 c 0,6,7
 858 129 858 129 1028 215 c 1,8,-1
 1028 55 l 1,9,10
 894 -20 894 -20 651 -20 c 0,11,12
 440 -20 440 -20 320.5 64 c 128,-1,13
 201 148 201 148 201 299 c 0,14,15
 201 492 201 492 438 567 c 1,16,-1
 438 578 l 1,17,18
 236 644 236 644 236 827 c 0,19,20
 236 962 236 962 348 1040 c 128,-1,21
 460 1118 460 1118 649 1118 c 0,22,23
 865 1118 865 1118 1032 1042 c 1,24,-1
 969 895 l 1,25,26
 808 967 808 967 653 967 c 0,27,28
 410 967 410 967 410 813 c 0,29,30
 410 647 410 647 686 647 c 2,31,-1
 840 647 l 1,0,-1
EndSplineSet
Validated: 1
EndChar
StartChar: zeta
Encoding: 950 950 400
Width: 600
GlyphClass: 2
Flags: W
LayerCount: 2
Fore
SplineSet
109 760 m 1,0,-1
 518 760 l 1,1,-1
 518 691 l 1,2,3
 325 550 325 550 248 454 c 128,-1,4
 171 358 171 358 171 233 c 0,5,6
 171 158 171 158 211.5 126.5 c 128,-1,7
 252 95 252 95 364 76 c 0,8,9
 447 61 447 61 484 36.5 c 128,-1,10
 521 12 521 12 521 -42 c 0,11,12
 521 -115 521 -115 462 -196 c 1,13,-1
 379 -196 l 1,14,15
 438 -117 438 -117 438 -69 c 0,16,17
 438 -41 438 -41 413 -25 c 128,-1,18
 388 -9 388 -9 293 5 c 0,19,20
 181 22 181 22 130 76.5 c 128,-1,21
 79 131 79 131 79 229 c 0,22,23
 79 354 79 354 157.5 462 c 128,-1,24
 236 570 236 570 420 691 c 1,25,26
 315 685 315 685 248 685 c 2,27,-1
 109 685 l 1,28,-1
 109 760 l 1,0,-1
EndSplineSet
Validated: 1
EndChar
StartChar: eta
Encoding: 951 951 401
Width: 600
GlyphClass: 2
Flags: W
LayerCount: 2
Fore
SplineSet
433 -240 m 1,0,-1
 433 345 l 2,1,2
 433 472 433 472 317 472 c 0,3,4
 167 472 167 472 167 278 c 2,5,-1
 167 0 l 1,6,-1
 78 0 l 1,7,-1
 78 536 l 1,8,-1
 150 536 l 1,9,-1
 163 464 l 1,10,-1
 168 464 l 1,11,12
 218 546 218 546 332 546 c 0,13,14
 522 546 522 546 522 350 c 2,15,-1
 522 -240 l 1,16,-1
 433 -240 l 1,0,-1
EndSplineSet
Validated: 1
EndChar
StartChar: theta
Encoding: 952 952 402
Width: 1229
GlyphClass: 2
Flags: W
LayerCount: 2
Back
Fore
SplineSet
612 -20 m 0,0,1
 383 -20 383 -20 265 171.5 c 128,-1,2
 147 363 147 363 147 729 c 0,3,4
 147 1109 147 1109 261 1292 c 128,-1,5
 375 1475 375 1475 612 1475 c 0,6,7
 843 1475 843 1475 962 1284.5 c 128,-1,8
 1081 1094 1081 1094 1081 729 c 0,9,10
 1081 -20 1081 -20 612 -20 c 0,0,1
332 807 m 1,11,-1
 895 807 l 1,12,13
 888 1067 888 1067 821.5 1195 c 128,-1,14
 755 1323 755 1323 612 1323 c 0,15,16
 473 1323 473 1323 406.5 1198 c 128,-1,17
 340 1073 340 1073 332 807 c 1,11,-1
895 670 m 1,18,-1
 332 670 l 1,19,20
 338 392 338 392 404 261.5 c 128,-1,21
 470 131 470 131 612 131 c 256,22,23
 754 131 754 131 821.5 259 c 128,-1,24
 889 387 889 387 895 670 c 1,18,-1
EndSplineSet
EndChar
StartChar: iota
Encoding: 953 953 403
Width: 1229
GlyphClass: 2
Flags: W
LayerCount: 2
Back
Fore
SplineSet
610 1098 m 1,0,-1
 610 324 l 2,1,2
 610 129 610 129 803 129 c 0,3,4
 915 129 915 129 1016 150 c 1,5,-1
 1016 12 l 1,6,7
 923 -20 923 -20 791 -20 c 0,8,9
 428 -20 428 -20 428 324 c 2,10,-1
 428 1098 l 1,11,-1
 610 1098 l 1,0,-1
EndSplineSet
EndChar
StartChar: lambda
Encoding: 955 955 405
Width: 600
GlyphClass: 2
Flags: W
LayerCount: 2
Fore
SplineSet
30 0 m 1,0,-1
 276 529 l 1,1,-1
 250 607 l 2,2,3
 233 658 233 658 212 675.5 c 128,-1,4
 191 693 191 693 156 693 c 0,5,6
 129 693 129 693 105 687 c 1,7,-1
 105 758 l 1,8,9
 137 766 137 766 167 766 c 0,10,11
 236 766 236 766 271 733 c 128,-1,12
 306 700 306 700 340 597 c 2,13,-1
 499 117 l 2,14,15
 517 63 517 63 549 63 c 0,16,17
 563 63 563 63 578 68 c 1,18,-1
 578 3 l 1,19,20
 554 -10 554 -10 522 -10 c 0,21,22
 482 -10 482 -10 460.5 9.5 c 128,-1,23
 439 29 439 29 426 72 c 2,24,-1
 360 276 l 2,25,26
 326 380 326 380 314 440 c 1,27,-1
 311 440 l 1,28,29
 293 373 293 373 253 283 c 2,30,-1
 122 0 l 1,31,-1
 30 0 l 1,0,-1
EndSplineSet
Validated: 1
EndChar
StartChar: uni03BC
Encoding: 956 956 406
Width: 1229
GlyphClass: 2
Flags: W
LayerCount: 2
Back
Fore
SplineSet
342 391 m 2,0,1
 342 131 342 131 580 131 c 0,2,3
 740 131 740 131 813.5 224 c 128,-1,4
 887 317 887 317 887 528 c 2,5,-1
 887 1098 l 1,6,-1
 1069 1098 l 1,7,-1
 1069 0 l 1,8,-1
 922 0 l 1,9,-1
 895 147 l 1,10,-1
 885 147 l 1,11,12
 788 -20 788 -20 584 -20 c 0,13,14
 411 -20 411 -20 336 68 c 1,15,16
 342 -85 342 -85 342 -172 c 2,17,-1
 342 -492 l 1,18,-1
 160 -492 l 1,19,-1
 160 1098 l 1,20,-1
 342 1098 l 1,21,-1
 342 391 l 2,0,1
EndSplineSet
EndChar
StartChar: nu
Encoding: 957 957 407
Width: 600
GlyphClass: 2
Flags: W
LayerCount: 2
Fore
SplineSet
30 536 m 1,0,-1
 122 536 l 1,1,-1
 231 250 l 2,2,3
 285 109 285 109 290 75 c 1,4,-1
 293 75 l 1,5,6
 370 155 370 155 408.5 255 c 128,-1,7
 447 355 447 355 447 536 c 1,8,-1
 536 536 l 1,9,10
 536 358 536 358 487 238.5 c 128,-1,11
 438 119 438 119 328 0 c 1,12,-1
 237 0 l 1,13,-1
 30 536 l 1,0,-1
EndSplineSet
Validated: 1
EndChar
StartChar: xi
Encoding: 958 958 408
Width: 600
GlyphClass: 2
Flags: W
LayerCount: 2
Fore
SplineSet
481 433 m 1,0,-1
 481 366 l 1,1,-1
 383 366 l 2,2,3
 282 366 282 366 229 326.5 c 128,-1,4
 176 287 176 287 176 214 c 0,5,6
 176 170 176 170 194.5 144 c 128,-1,7
 213 118 213 118 247 104.5 c 128,-1,8
 281 91 281 91 368 75 c 0,9,10
 447 61 447 61 484 36.5 c 128,-1,11
 521 12 521 12 521 -42 c 0,12,13
 521 -115 521 -115 462 -196 c 1,14,-1
 379 -196 l 1,15,16
 438 -117 438 -117 438 -68 c 0,17,18
 438 -42 438 -42 414 -26 c 128,-1,19
 390 -10 390 -10 298 4 c 0,20,21
 84 37 84 37 84 206 c 0,22,23
 84 271 84 271 121 323 c 128,-1,24
 158 375 158 375 222 395 c 1,25,-1
 222 401 l 1,26,27
 117 430 117 430 117 537 c 0,28,29
 117 593 117 593 153.5 629.5 c 128,-1,30
 190 666 190 666 281 691 c 1,31,32
 195 685 195 685 144 685 c 2,33,-1
 114 685 l 1,34,-1
 114 760 l 1,35,-1
 487 760 l 1,36,-1
 487 685 l 1,37,-1
 453 685 l 2,38,39
 347 685 347 685 275 646 c 128,-1,40
 203 607 203 607 203 539 c 0,41,42
 203 484 203 484 247.5 458.5 c 128,-1,43
 292 433 292 433 388 433 c 2,44,-1
 481 433 l 1,0,-1
EndSplineSet
Validated: 1
EndChar
StartChar: pi
Encoding: 960 960 410
Width: 600
GlyphClass: 2
Flags: W
LayerCount: 2
Fore
SplineSet
578 73 m 1,0,-1
 578 3 l 1,1,2
 553 -10 553 -10 511 -10 c 0,3,4
 401 -10 401 -10 401 118 c 2,5,-1
 401 461 l 1,6,-1
 204 461 l 1,7,-1
 204 0 l 1,8,-1
 115 0 l 1,9,-1
 115 461 l 1,10,-1
 7 461 l 1,11,-1
 7 497 l 1,12,-1
 74 536 l 1,13,-1
 593 536 l 1,14,-1
 593 461 l 1,15,-1
 490 461 l 1,16,-1
 490 124 l 2,17,18
 490 63 490 63 534 63 c 0,19,20
 557 63 557 63 578 73 c 1,0,-1
EndSplineSet
Validated: 1
EndChar
StartChar: rho
Encoding: 961 961 411
Width: 1229
GlyphClass: 2
Flags: W
LayerCount: 2
Back
Fore
SplineSet
340 70 m 1,0,-1
 334 70 l 1,1,2
 340 -104 340 -104 340 -201 c 2,3,-1
 340 -492 l 1,4,-1
 158 -492 l 1,5,-1
 158 551 l 2,6,7
 158 814 158 814 284.5 966 c 128,-1,8
 411 1118 411 1118 629 1118 c 0,9,10
 835 1118 835 1118 959 964.5 c 128,-1,11
 1083 811 1083 811 1083 551 c 0,12,13
 1083 281 1083 281 959.5 130.5 c 128,-1,14
 836 -20 836 -20 621 -20 c 0,15,16
 453 -20 453 -20 340 70 c 1,0,-1
340 231 m 1,17,18
 452 131 452 131 623 131 c 0,19,20
 767 131 767 131 831 236.5 c 128,-1,21
 895 342 895 342 895 551 c 256,22,23
 895 760 895 760 830 863.5 c 128,-1,24
 765 967 765 967 621 967 c 0,25,26
 340 967 340 967 340 571 c 2,27,-1
 340 231 l 1,17,18
EndSplineSet
EndChar
StartChar: sigma1
Encoding: 962 962 412
Width: 600
GlyphClass: 2
Flags: W
LayerCount: 2
Fore
SplineSet
459 -196 m 1,0,-1
 378 -196 l 1,1,2
 437 -116 437 -116 437 -68 c 0,3,4
 437 -39 437 -39 405 -24.5 c 128,-1,5
 373 -10 373 -10 293 4 c 0,6,7
 84 39 84 39 84 252 c 0,8,9
 84 546 84 546 361 546 c 0,10,11
 441 546 441 546 518 517 c 1,12,-1
 488 440 l 1,13,14
 411 468 411 468 355 468 c 0,15,16
 176 468 176 468 176 253 c 0,17,18
 176 162 176 162 213.5 129 c 128,-1,19
 251 96 251 96 345 79 c 0,20,21
 520 47 520 47 520 -44 c 0,22,23
 520 -113 520 -113 459 -196 c 1,0,-1
EndSplineSet
Validated: 1
EndChar
StartChar: sigma
Encoding: 963 963 413
Width: 600
GlyphClass: 2
Flags: W
LayerCount: 2
Fore
SplineSet
573 536 m 1,0,-1
 573 461 l 1,1,-1
 443 461 l 1,2,3
 530 366 530 366 530 246 c 0,4,5
 530 131 530 131 467 60.5 c 128,-1,6
 404 -10 404 -10 295 -10 c 0,7,8
 187 -10 187 -10 125 60 c 128,-1,9
 63 130 63 130 63 256 c 0,10,11
 63 536 63 536 334 536 c 2,12,-1
 573 536 l 1,0,-1
363 461 m 1,13,-1
 334 461 l 2,14,15
 237 461 237 461 196 413.5 c 128,-1,16
 155 366 155 366 155 256 c 0,17,18
 155 166 155 166 192 115 c 128,-1,19
 229 64 229 64 299 64 c 0,20,21
 367 64 367 64 402.5 110.5 c 128,-1,22
 438 157 438 157 438 242 c 0,23,24
 438 374 438 374 363 461 c 1,13,-1
EndSplineSet
Validated: 1
EndChar
StartChar: tau
Encoding: 964 964 414
Width: 600
GlyphClass: 2
Flags: W
LayerCount: 2
Fore
SplineSet
528 536 m 1,0,-1
 528 461 l 1,1,-1
 296 461 l 1,2,-1
 296 165 l 2,3,4
 296 60 296 60 398 60 c 0,5,6
 450 60 450 60 491 70 c 1,7,-1
 491 4 l 1,8,9
 450 -13 450 -13 384 -13 c 0,10,11
 207 -13 207 -13 207 155 c 2,12,-1
 207 461 l 1,13,-1
 52 461 l 1,14,-1
 52 497 l 1,15,-1
 117 536 l 1,16,-1
 528 536 l 1,0,-1
EndSplineSet
Validated: 1
EndChar
StartChar: upsilon
Encoding: 965 965 415
Width: 1229
GlyphClass: 2
Flags: W
LayerCount: 2
Back
Fore
SplineSet
160 1098 m 1,0,-1
 342 1098 l 1,1,-1
 342 508 l 2,2,3
 342 129 342 129 616 129 c 0,4,5
 766 129 766 129 833.5 245 c 128,-1,6
 901 361 901 361 901 608 c 0,7,8
 901 845 901 845 838 1098 c 1,9,-1
 1020 1098 l 1,10,11
 1083 853 1083 853 1083 600 c 0,12,13
 1083 282 1083 282 968 131 c 128,-1,14
 853 -20 853 -20 610 -20 c 0,15,16
 160 -20 160 -20 160 498 c 2,17,-1
 160 1098 l 1,0,-1
EndSplineSet
Validated: 1
EndChar
StartChar: phi
Encoding: 966 966 416
Width: 600
GlyphClass: 2
Flags: W
LayerCount: 2
Fore
SplineSet
256 -240 m 1,0,-1
 256 -9 l 1,1,2
 36 3 36 3 36 267 c 0,3,4
 36 420 36 420 137 540 c 1,5,-1
 196 496 l 1,6,7
 149 433 149 433 132 383 c 128,-1,8
 115 333 115 333 115 267 c 0,9,10
 115 80 115 80 256 64 c 1,11,-1
 256 360 l 2,12,13
 256 546 256 546 393 546 c 0,14,15
 473 546 473 546 518.5 474 c 128,-1,16
 564 402 564 402 564 279 c 0,17,18
 564 150 564 150 503 74 c 128,-1,19
 442 -2 442 -2 333 -9 c 1,20,-1
 333 -240 l 1,21,-1
 256 -240 l 1,0,-1
333 64 m 1,22,23
 482 78 482 78 482 278 c 0,24,25
 482 472 482 472 396 472 c 0,26,27
 333 472 333 472 333 361 c 2,28,-1
 333 64 l 1,22,23
EndSplineSet
Validated: 1
EndChar
StartChar: chi
Encoding: 967 967 417
Width: 600
GlyphClass: 2
Flags: W
LayerCount: 2
Fore
SplineSet
311 247 m 1,0,-1
 463 536 l 1,1,-1
 550 536 l 1,2,-1
 346 157 l 1,3,-1
 437 -68 l 2,4,5
 459 -124 459 -124 479 -145.5 c 128,-1,6
 499 -167 499 -167 530 -167 c 0,7,8
 551 -167 551 -167 569 -163 c 1,9,-1
 569 -231 l 1,10,11
 537 -240 537 -240 511 -240 c 0,12,13
 461 -240 461 -240 428.5 -218 c 128,-1,14
 396 -196 396 -196 361 -110 c 2,15,-1
 289 74 l 1,16,-1
 116 -240 l 1,17,-1
 21 -240 l 1,18,-1
 253 165 l 1,19,-1
 165 383 l 2,20,21
 132 465 132 465 91 465 c 0,22,23
 77 465 77 465 60 460 c 1,24,-1
 60 530 l 1,25,26
 86 538 86 538 123 538 c 0,27,28
 163 538 163 538 189.5 511.5 c 128,-1,29
 216 485 216 485 243 417 c 2,30,-1
 311 247 l 1,0,-1
EndSplineSet
Validated: 1
EndChar
StartChar: psi
Encoding: 968 968 418
Width: 1229
GlyphClass: 2
Flags: W
LayerCount: 2
Back
Fore
SplineSet
682 1554 m 1,0,-1
 682 133 l 1,1,2
 983 161 983 161 983 569 c 0,3,4
 983 819 983 819 920 1098 c 1,5,-1
 1092 1098 l 1,6,7
 1155 822 1155 822 1155 575 c 0,8,9
 1155 8 1155 8 682 -18 c 1,10,-1
 682 -492 l 1,11,-1
 524 -492 l 1,12,-1
 524 -18 l 1,13,14
 291 -10 291 -10 185.5 125 c 128,-1,15
 80 260 80 260 80 555 c 2,16,-1
 80 1098 l 1,17,-1
 252 1098 l 1,18,-1
 252 569 l 2,19,20
 252 147 252 147 524 131 c 1,21,-1
 524 1554 l 1,22,-1
 682 1554 l 1,0,-1
EndSplineSet
EndChar
StartChar: omega
Encoding: 969 969 419
Width: 600
GlyphClass: 2
Flags: W
LayerCount: 2
Fore
SplineSet
95 536 m 1,0,-1
 176 536 l 1,1,2
 125 408 125 408 125 260 c 0,3,4
 125 64 125 64 193 64 c 0,5,6
 226 64 226 64 244 98.5 c 128,-1,7
 262 133 262 133 262 195 c 2,8,-1
 262 344 l 1,9,-1
 339 344 l 1,10,-1
 339 195 l 2,11,12
 339 132 339 132 358 98 c 128,-1,13
 377 64 377 64 408 64 c 0,14,15
 476 64 476 64 476 260 c 0,16,17
 476 409 476 409 425 536 c 1,18,-1
 506 536 l 1,19,20
 557 410 557 410 557 260 c 0,21,22
 557 -10 557 -10 416 -10 c 0,23,24
 328 -10 328 -10 303 77 c 1,25,-1
 298 77 l 1,26,27
 274 -10 274 -10 185 -10 c 0,28,29
 44 -10 44 -10 44 260 c 0,30,31
 44 407 44 407 95 536 c 1,0,-1
EndSplineSet
Validated: 1
EndChar
StartChar: uni03D1
Encoding: 977 977 425
Width: 600
GlyphClass: 2
Flags: W
LayerCount: 2
Fore
SplineSet
427 477 m 1,0,1
 421 530 421 530 407 571.5 c 128,-1,2
 393 613 393 613 374 641 c 128,-1,3
 355 669 355 669 333 684 c 128,-1,4
 311 699 311 699 287 699 c 0,5,6
 250 699 250 699 229 677.5 c 128,-1,7
 208 656 208 656 208 621 c 0,8,9
 208 594 208 594 219 568 c 128,-1,10
 230 542 230 542 256 522 c 128,-1,11
 282 502 282 502 324 489.5 c 128,-1,12
 366 477 366 477 427 477 c 1,0,1
520 410 m 1,13,14
 521 399 521 399 521.5 385 c 128,-1,15
 522 371 522 371 522 356 c 0,16,17
 522 278 522 278 506.5 211.5 c 128,-1,18
 491 145 491 145 459.5 95.5 c 128,-1,19
 428 46 428 46 380 18 c 128,-1,20
 332 -10 332 -10 268 -10 c 0,21,22
 214 -10 214 -10 178.5 3.5 c 128,-1,23
 143 17 143 17 122 40 c 128,-1,24
 101 63 101 63 92.5 94 c 128,-1,25
 84 125 84 125 84 158 c 0,26,27
 84 178 84 178 86.5 200.5 c 128,-1,28
 89 223 89 223 91.5 245 c 128,-1,29
 94 267 94 267 96.5 285 c 128,-1,30
 99 303 99 303 99 315 c 0,31,32
 99 337 99 337 91.5 345 c 128,-1,33
 84 353 84 353 69 353 c 0,34,35
 57 353 57 353 44 349.5 c 128,-1,36
 31 346 31 346 23 341 c 1,37,-1
 5 403 l 1,38,39
 23 411 23 411 47.5 417.5 c 128,-1,40
 72 424 72 424 98 424 c 0,41,42
 122 424 122 424 139 417 c 128,-1,43
 156 410 156 410 167 398 c 128,-1,44
 178 386 178 386 182.5 369.5 c 128,-1,45
 187 353 187 353 187 333 c 0,46,47
 187 316 187 316 184.5 295 c 128,-1,48
 182 274 182 274 179.5 251.5 c 128,-1,49
 177 229 177 229 174.5 205 c 128,-1,50
 172 181 172 181 172 159 c 0,51,52
 172 138 172 138 177 120.5 c 128,-1,53
 182 103 182 103 194 89.5 c 128,-1,54
 206 76 206 76 225 68.5 c 128,-1,55
 244 61 244 61 272 61 c 0,56,57
 352 61 352 61 392 135.5 c 128,-1,58
 432 210 432 210 432 359 c 0,59,60
 432 370 432 370 431.5 385 c 128,-1,61
 431 400 431 400 430 410 c 1,62,63
 345 411 345 411 286 429.5 c 128,-1,64
 227 448 227 448 190.5 477 c 128,-1,65
 154 506 154 506 137.5 544 c 128,-1,66
 121 582 121 582 121 621 c 0,67,68
 121 654 121 654 130.5 681 c 128,-1,69
 140 708 140 708 160 728.5 c 128,-1,70
 180 749 180 749 211 760 c 128,-1,71
 242 771 242 771 285 771 c 0,72,73
 336 771 336 771 375.5 750.5 c 128,-1,74
 415 730 415 730 443.5 692 c 128,-1,75
 472 654 472 654 490 599.5 c 128,-1,76
 508 545 508 545 517 477 c 1,77,-1
 587 477 l 1,78,-1
 587 410 l 1,79,-1
 520 410 l 1,13,14
EndSplineSet
Validated: 1
EndChar
StartChar: uni03D2
Encoding: 978 978 426
Width: 600
GlyphClass: 2
Flags: W
LayerCount: 2
Fore
SplineSet
299 357 m 1,0,1
 311 394 311 394 329.5 435 c 128,-1,2
 348 476 348 476 367 515 c 128,-1,3
 386 554 386 554 403.5 587.5 c 128,-1,4
 421 621 421 621 433 642 c 0,5,6
 444 662 444 662 455 676.5 c 128,-1,7
 466 691 466 691 479.5 700.5 c 128,-1,8
 493 710 493 710 508.5 715 c 128,-1,9
 524 720 524 720 544 720 c 0,10,11
 561 720 561 720 571.5 718 c 128,-1,12
 582 716 582 716 590 712 c 1,13,-1
 590 641 l 1,14,15
 584 642 584 642 576 643.5 c 128,-1,16
 568 645 568 645 562 645 c 0,17,18
 548 645 548 645 533 633.5 c 128,-1,19
 518 622 518 622 501 593 c 0,20,21
 495 583 495 583 483.5 562.5 c 128,-1,22
 472 542 472 542 458 515 c 128,-1,23
 444 488 444 488 428 456.5 c 128,-1,24
 412 425 412 425 396.5 392 c 128,-1,25
 381 359 381 359 367.5 326 c 128,-1,26
 354 293 354 293 344 264 c 1,27,-1
 344 0 l 1,28,-1
 253 0 l 1,29,-1
 253 273 l 1,30,-1
 15 714 l 1,31,-1
 114 714 l 1,32,-1
 299 357 l 1,0,1
EndSplineSet
Validated: 1
EndChar
StartChar: uni03D6
Encoding: 982 982 427
Width: 600
GlyphClass: 2
Flags: W
LayerCount: 2
Fore
SplineSet
185 -10 m 0,0,1
 146 -10 146 -10 119.5 6.5 c 128,-1,2
 93 23 93 23 76 54.5 c 128,-1,3
 59 86 59 86 51.5 130 c 128,-1,4
 44 174 44 174 44 230 c 0,5,6
 44 263 44 263 46.5 291 c 128,-1,7
 49 319 49 319 54.5 346 c 128,-1,8
 60 373 60 373 68.5 401 c 128,-1,9
 77 429 77 429 89 461 c 1,10,-1
 9 461 l 1,11,-1
 9 497 l 1,12,-1
 74 536 l 1,13,-1
 588 536 l 1,14,-1
 588 461 l 1,15,-1
 512 461 l 1,16,17
 524 429 524 429 532.5 401 c 128,-1,18
 541 373 541 373 546.5 346 c 128,-1,19
 552 319 552 319 554.5 291 c 128,-1,20
 557 263 557 263 557 230 c 0,21,22
 557 174 557 174 549.5 130 c 128,-1,23
 542 86 542 86 525 54.5 c 128,-1,24
 508 23 508 23 481.5 6.5 c 128,-1,25
 455 -10 455 -10 416 -10 c 0,26,27
 370 -10 370 -10 343 11.5 c 128,-1,28
 316 33 316 33 303 77 c 1,29,-1
 298 77 l 1,30,31
 285 33 285 33 258 11.5 c 128,-1,32
 231 -10 231 -10 185 -10 c 0,0,1
476 230 m 0,33,34
 476 260 476 260 473.5 288 c 128,-1,35
 471 316 471 316 465.5 343.5 c 128,-1,36
 460 371 460 371 451.5 399.5 c 128,-1,37
 443 428 443 428 431 461 c 1,38,-1
 170 461 l 1,39,40
 158 428 158 428 149.5 399.5 c 128,-1,41
 141 371 141 371 135.5 343.5 c 128,-1,42
 130 316 130 316 127.5 288 c 128,-1,43
 125 260 125 260 125 230 c 0,44,45
 125 186 125 186 129 154.5 c 128,-1,46
 133 123 133 123 141.5 103 c 128,-1,47
 150 83 150 83 162.5 73.5 c 128,-1,48
 175 64 175 64 193 64 c 256,49,50
 211 64 211 64 224 74 c 128,-1,51
 237 84 237 84 245.5 101.5 c 128,-1,52
 254 119 254 119 258 143 c 128,-1,53
 262 167 262 167 262 195 c 2,54,-1
 262 294 l 1,55,-1
 339 294 l 1,56,-1
 339 195 l 2,57,58
 339 132 339 132 358 98 c 128,-1,59
 377 64 377 64 408 64 c 0,60,61
 426 64 426 64 438.5 73.5 c 128,-1,62
 451 83 451 83 459.5 103 c 128,-1,63
 468 123 468 123 472 154.5 c 128,-1,64
 476 186 476 186 476 230 c 0,33,34
EndSplineSet
Validated: 1
EndChar
StartChar: afii10051
Encoding: 1026 1026 430
Width: 600
GlyphClass: 2
Flags: W
LayerCount: 2
Fore
SplineSet
324 2 m 1,0,-1
 324 80 l 1,1,2
 357 70 357 70 390 70 c 0,3,4
 478 70 478 70 478 180 c 2,5,-1
 478 245 l 2,6,7
 478 358 478 358 367 358 c 2,8,-1
 248 358 l 1,9,-1
 248 0 l 1,10,-1
 157 0 l 1,11,-1
 157 634 l 1,12,-1
 11 634 l 1,13,-1
 11 714 l 1,14,-1
 422 714 l 1,15,-1
 422 634 l 1,16,-1
 248 634 l 1,17,-1
 248 438 l 1,18,-1
 377 438 l 2,19,20
 468 438 468 438 518.5 391 c 128,-1,21
 569 344 569 344 569 257 c 2,22,-1
 569 190 l 2,23,24
 569 94 569 94 523 42 c 128,-1,25
 477 -10 477 -10 393 -10 c 0,26,27
 350 -10 350 -10 324 2 c 1,0,-1
EndSplineSet
Validated: 1
EndChar
StartChar: afii10053
Encoding: 1028 1028 432
Width: 1229
GlyphClass: 2
Flags: W
LayerCount: 2
Back
Fore
SplineSet
332 846 m 1,0,-1
 961 846 l 1,1,-1
 961 684 l 1,2,-1
 326 684 l 1,3,4
 349 143 349 143 797 143 c 0,5,6
 927 143 927 143 1124 201 c 1,7,-1
 1124 39 l 1,8,9
 978 -20 978 -20 766 -20 c 0,10,11
 457 -20 457 -20 293 176 c 128,-1,12
 129 372 129 372 129 733 c 0,13,14
 129 1079 129 1079 308 1281 c 128,-1,15
 487 1483 487 1483 797 1483 c 0,16,17
 1017 1483 1017 1483 1180 1397 c 1,18,-1
 1102 1241 l 1,19,20
 948 1319 948 1319 797 1319 c 0,21,22
 609 1319 609 1319 484 1194.5 c 128,-1,23
 359 1070 359 1070 332 846 c 1,0,-1
EndSplineSet
Validated: 1
EndChar
StartChar: afii10058
Encoding: 1033 1033 437
Width: 600
GlyphClass: 2
Flags: W
LayerCount: 2
Fore
SplineSet
183 634 m 1,0,-1
 173 366 l 2,1,2
 163 86 163 86 132.5 38 c 128,-1,3
 102 -10 102 -10 47 -10 c 0,4,5
 20 -10 20 -10 0 -1 c 1,6,-1
 0 70 l 1,7,8
 16 63 16 63 33 63 c 0,9,10
 50 63 50 63 63 80 c 128,-1,11
 76 97 76 97 82 142 c 128,-1,12
 88 187 88 187 98 398 c 128,-1,13
 108 609 108 609 110 714 c 1,14,-1
 353 714 l 1,15,-1
 353 413 l 1,16,-1
 372 413 l 2,17,18
 590 413 590 413 590 209 c 0,19,20
 590 107 590 107 534.5 53.5 c 128,-1,21
 479 0 479 0 373 0 c 2,22,-1
 272 0 l 1,23,-1
 272 634 l 1,24,-1
 183 634 l 1,0,-1
353 78 m 1,25,-1
 375 78 l 2,26,27
 506 78 506 78 506 209 c 0,28,29
 506 274 506 274 472 303.5 c 128,-1,30
 438 333 438 333 363 333 c 2,31,-1
 353 333 l 1,32,-1
 353 78 l 1,25,-1
EndSplineSet
Validated: 1
EndChar
StartChar: afii10059
Encoding: 1034 1034 438
Width: 600
GlyphClass: 2
Flags: W
LayerCount: 2
Fore
SplineSet
268 0 m 1,0,-1
 268 333 l 1,1,-1
 113 333 l 1,2,-1
 113 0 l 1,3,-1
 32 0 l 1,4,-1
 32 714 l 1,5,-1
 113 714 l 1,6,-1
 113 413 l 1,7,-1
 268 413 l 1,8,-1
 268 714 l 1,9,-1
 349 714 l 1,10,-1
 349 413 l 1,11,-1
 368 413 l 2,12,13
 475 413 475 413 530.5 360.5 c 128,-1,14
 586 308 586 308 586 209 c 0,15,16
 586 107 586 107 530.5 53.5 c 128,-1,17
 475 0 475 0 369 0 c 2,18,-1
 268 0 l 1,0,-1
349 78 m 1,19,-1
 371 78 l 2,20,21
 502 78 502 78 502 209 c 0,22,23
 502 274 502 274 468.5 303.5 c 128,-1,24
 435 333 435 333 359 333 c 2,25,-1
 349 333 l 1,26,-1
 349 78 l 1,19,-1
EndSplineSet
Validated: 1
EndChar
StartChar: afii10060
Encoding: 1035 1035 439
Width: 1229
GlyphClass: 2
Flags: W
LayerCount: 2
Back
Fore
SplineSet
508 897 m 1,0,-1
 772 897 l 2,1,2
 959 897 959 897 1062 800.5 c 128,-1,3
 1165 704 1165 704 1165 526 c 2,4,-1
 1165 0 l 1,5,-1
 979 0 l 1,6,-1
 979 502 l 2,7,8
 979 733 979 733 752 733 c 2,9,-1
 508 733 l 1,10,-1
 508 0 l 1,11,-1
 322 0 l 1,12,-1
 322 1298 l 1,13,-1
 23 1298 l 1,14,-1
 23 1462 l 1,15,-1
 864 1462 l 1,16,-1
 864 1298 l 1,17,-1
 508 1298 l 1,18,-1
 508 897 l 1,0,-1
EndSplineSet
EndChar
StartChar: afii10145
Encoding: 1039 1039 443
Width: 600
GlyphClass: 2
Flags: W
LayerCount: 2
Fore
SplineSet
534 0 m 1,0,-1
 342 0 l 1,1,-1
 342 -188 l 1,2,-1
 256 -188 l 1,3,-1
 256 0 l 1,4,-1
 66 0 l 1,5,-1
 66 714 l 1,6,-1
 157 714 l 1,7,-1
 157 81 l 1,8,-1
 443 81 l 1,9,-1
 443 714 l 1,10,-1
 534 714 l 1,11,-1
 534 0 l 1,0,-1
EndSplineSet
Validated: 1
EndChar
StartChar: afii10018
Encoding: 1041 1041 445
Width: 1229
GlyphClass: 2
Flags: W
LayerCount: 2
Back
Fore
SplineSet
135 0 m 1,0,-1
 135 1462 l 1,1,-1
 1047 1462 l 1,2,-1
 1047 1298 l 1,3,-1
 322 1298 l 1,4,-1
 322 846 l 1,5,-1
 594 846 l 2,6,7
 1135 846 1135 846 1135 428 c 0,8,9
 1135 220 1135 220 1003.5 110 c 128,-1,10
 872 0 872 0 621 0 c 2,11,-1
 135 0 l 1,0,-1
322 160 m 1,12,-1
 604 160 l 2,13,14
 942 160 942 160 942 428 c 0,15,16
 942 561 942 561 856.5 621.5 c 128,-1,17
 771 682 771 682 573 682 c 2,18,-1
 322 682 l 1,19,-1
 322 160 l 1,12,-1
EndSplineSet
Validated: 1
EndChar
StartChar: afii10021
Encoding: 1044 1044 448
Width: 1229
GlyphClass: 2
Flags: W
LayerCount: 2
Back
Fore
SplineSet
1221 -385 m 1,0,-1
 1044 -385 l 1,1,-1
 1044 0 l 1,2,-1
 182 0 l 1,3,-1
 182 -385 l 1,4,-1
 6 -385 l 1,5,-1
 6 166 l 1,6,-1
 119 166 l 1,7,8
 248 402 248 402 335 760 c 128,-1,9
 422 1118 422 1118 434 1462 c 1,10,-1
 1026 1462 l 1,11,-1
 1026 166 l 1,12,-1
 1221 166 l 1,13,-1
 1221 -385 l 1,0,-1
840 166 m 1,14,-1
 840 1296 l 1,15,-1
 598 1296 l 1,16,17
 581 1030 581 1030 499.5 699.5 c 128,-1,18
 418 369 418 369 311 166 c 1,19,-1
 840 166 l 1,14,-1
EndSplineSet
Validated: 1
EndChar
StartChar: afii10024
Encoding: 1046 1046 450
Width: 1229
GlyphClass: 2
Flags: W
LayerCount: 2
Back
Fore
SplineSet
373 754 m 1,0,-1
 12 1462 l 1,1,-1
 190 1462 l 1,2,-1
 539 754 l 1,3,-1
 539 1462 l 1,4,-1
 694 1462 l 1,5,-1
 694 754 l 1,6,-1
 1036 1462 l 1,7,-1
 1214 1462 l 1,8,-1
 858 754 l 1,9,-1
 1229 0 l 1,10,-1
 1044 0 l 1,11,-1
 694 741 l 1,12,-1
 694 0 l 1,13,-1
 539 0 l 1,14,-1
 539 741 l 1,15,-1
 182 0 l 1,16,-1
 0 0 l 1,17,-1
 373 754 l 1,0,-1
EndSplineSet
EndChar
StartChar: afii10025
Encoding: 1047 1047 451
Width: 600
GlyphClass: 2
Flags: W
LayerCount: 2
Fore
SplineSet
343 376 m 1,0,-1
 343 373 l 1,1,2
 430 362 430 362 476.5 317.5 c 128,-1,3
 523 273 523 273 523 203 c 0,4,5
 523 104 523 104 453.5 47 c 128,-1,6
 384 -10 384 -10 257 -10 c 0,7,8
 139 -10 139 -10 68 29 c 1,9,-1
 68 112 l 1,10,11
 158 65 158 65 255 65 c 0,12,13
 428 65 428 65 428 203 c 0,14,15
 428 332 428 332 236 332 c 2,16,-1
 143 332 l 1,17,-1
 143 406 l 1,18,-1
 229 406 l 2,19,20
 317 406 317 406 366 442 c 128,-1,21
 415 478 415 478 415 539 c 0,22,23
 415 589 415 589 381 619 c 128,-1,24
 347 649 347 649 289 649 c 0,25,26
 198 649 198 649 116 590 c 1,27,-1
 71 651 l 1,28,29
 166 724 166 724 293 724 c 0,30,31
 395 724 395 724 452.5 675.5 c 128,-1,32
 510 627 510 627 510 547 c 0,33,34
 510 480 510 480 466.5 434.5 c 128,-1,35
 423 389 423 389 343 376 c 1,0,-1
EndSplineSet
Validated: 1
EndChar
StartChar: afii10026
Encoding: 1048 1048 452
Width: 1229
GlyphClass: 2
Flags: W
LayerCount: 2
Back
Fore
SplineSet
137 1462 m 1,0,-1
 311 1462 l 1,1,-1
 311 662 l 2,2,3
 311 520 311 520 304 408 c 2,4,-1
 297 258 l 1,5,-1
 303 258 l 1,6,-1
 881 1462 l 1,7,-1
 1094 1462 l 1,8,-1
 1094 0 l 1,9,-1
 922 0 l 1,10,-1
 922 793 l 2,11,12
 922 933 922 933 940 1210 c 1,13,-1
 932 1210 l 1,14,-1
 352 0 l 1,15,-1
 137 0 l 1,16,-1
 137 1462 l 1,0,-1
EndSplineSet
Validated: 1
EndChar
StartChar: afii10028
Encoding: 1050 1050 454
Width: 600
GlyphClass: 2
Flags: W
LayerCount: 2
Fore
SplineSet
585 0 m 1,0,-1
 478 0 l 1,1,-1
 194 362 l 1,2,-1
 194 0 l 1,3,-1
 103 0 l 1,4,-1
 103 714 l 1,5,-1
 194 714 l 1,6,-1
 194 368 l 1,7,-1
 470 714 l 1,8,-1
 571 714 l 1,9,-1
 295 371 l 1,10,-1
 585 0 l 1,0,-1
EndSplineSet
Validated: 1
EndChar
StartChar: afii10029
Encoding: 1051 1051 455
Width: 600
GlyphClass: 2
Flags: W
LayerCount: 2
Fore
SplineSet
534 0 m 1,0,-1
 443 0 l 1,1,-1
 443 634 l 1,2,-1
 298 634 l 1,3,4
 241 157 241 157 197.5 73 c 128,-1,5
 154 -11 154 -11 69 -11 c 0,6,7
 34 -11 34 -11 2 1 c 1,8,-1
 2 74 l 1,9,10
 30 62 30 62 57 62 c 0,11,12
 107 62 107 62 134 150 c 128,-1,13
 161 238 161 238 222 714 c 1,14,-1
 534 714 l 1,15,-1
 534 0 l 1,0,-1
EndSplineSet
Validated: 1
EndChar
StartChar: afii10037
Encoding: 1059 1059 463
Width: 600
GlyphClass: 2
Flags: W
LayerCount: 2
Fore
SplineSet
586 714 m 1,0,-1
 377 211 l 2,1,2
 340 122 340 122 310.5 80 c 128,-1,3
 281 38 281 38 237.5 14 c 128,-1,4
 194 -10 194 -10 133 -10 c 0,5,6
 82 -10 82 -10 46 5 c 1,7,-1
 46 95 l 1,8,9
 88 73 88 73 133 73 c 0,10,11
 187 73 187 73 216.5 98.5 c 128,-1,12
 246 124 246 124 272 183 c 1,13,-1
 13 714 l 1,14,-1
 113 714 l 1,15,-1
 300 319 l 2,16,17
 306 307 306 307 310 296 c 0,18,19
 314 284 314 284 318 274 c 1,20,-1
 319 274 l 1,21,-1
 338 327 l 1,22,-1
 490 714 l 1,23,-1
 586 714 l 1,0,-1
EndSplineSet
Validated: 1
EndChar
StartChar: afii10040
Encoding: 1062 1062 466
Width: 600
GlyphClass: 2
Flags: W
LayerCount: 2
Fore
SplineSet
505 81 m 1,0,-1
 591 81 l 1,1,-1
 591 -188 l 1,2,-1
 505 -188 l 1,3,-1
 505 0 l 1,4,-1
 66 0 l 1,5,-1
 66 714 l 1,6,-1
 157 714 l 1,7,-1
 157 81 l 1,8,-1
 414 81 l 1,9,-1
 414 714 l 1,10,-1
 505 714 l 1,11,-1
 505 81 l 1,0,-1
EndSplineSet
Validated: 1
EndChar
StartChar: afii10041
Encoding: 1063 1063 467
Width: 1229
GlyphClass: 2
Flags: W
LayerCount: 2
Back
Fore
SplineSet
1094 0 m 1,0,-1
 907 0 l 1,1,-1
 907 598 l 1,2,3
 680 508 680 508 514 508 c 0,4,5
 135 508 135 508 135 879 c 2,6,-1
 135 1462 l 1,7,-1
 322 1462 l 1,8,-1
 322 903 l 2,9,10
 322 773 322 773 373.5 722.5 c 128,-1,11
 425 672 425 672 535 672 c 0,12,13
 688 672 688 672 907 752 c 1,14,-1
 907 1462 l 1,15,-1
 1094 1462 l 1,16,-1
 1094 0 l 1,0,-1
EndSplineSet
EndChar
StartChar: afii10042
Encoding: 1064 1064 468
Width: 1229
GlyphClass: 2
Flags: W
LayerCount: 2
Back
Fore
SplineSet
1110 0 m 1,0,-1
 121 0 l 1,1,-1
 121 1462 l 1,2,-1
 287 1462 l 1,3,-1
 287 166 l 1,4,-1
 532 166 l 1,5,-1
 532 1462 l 1,6,-1
 698 1462 l 1,7,-1
 698 166 l 1,8,-1
 944 166 l 1,9,-1
 944 1462 l 1,10,-1
 1110 1462 l 1,11,-1
 1110 0 l 1,0,-1
EndSplineSet
EndChar
StartChar: afii10043
Encoding: 1065 1065 469
Width: 1229
GlyphClass: 2
Flags: W
LayerCount: 2
Back
Fore
SplineSet
1051 166 m 1,0,-1
 1229 166 l 1,1,-1
 1229 -385 l 1,2,-1
 1053 -385 l 1,3,-1
 1053 0 l 1,4,-1
 61 0 l 1,5,-1
 61 1462 l 1,6,-1
 227 1462 l 1,7,-1
 227 166 l 1,8,-1
 473 166 l 1,9,-1
 473 1462 l 1,10,-1
 639 1462 l 1,11,-1
 639 166 l 1,12,-1
 885 166 l 1,13,-1
 885 1462 l 1,14,-1
 1051 1462 l 1,15,-1
 1051 166 l 1,0,-1
EndSplineSet
Validated: 1
EndChar
StartChar: afii10044
Encoding: 1066 1066 470
Width: 600
GlyphClass: 2
Flags: W
LayerCount: 2
Fore
SplineSet
159 0 m 1,0,-1
 159 634 l 1,1,-1
 13 634 l 1,2,-1
 13 714 l 1,3,-1
 250 714 l 1,4,-1
 250 413 l 1,5,-1
 283 413 l 2,6,7
 415 413 415 413 486 360 c 128,-1,8
 557 307 557 307 557 209 c 0,9,10
 557 110 557 110 489.5 55 c 128,-1,11
 422 0 422 0 296 0 c 2,12,-1
 159 0 l 1,0,-1
250 78 m 1,13,-1
 298 78 l 2,14,15
 463 78 463 78 463 209 c 0,16,17
 463 273 463 273 421 303 c 128,-1,18
 379 333 379 333 283 333 c 2,19,-1
 250 333 l 1,20,-1
 250 78 l 1,13,-1
EndSplineSet
Validated: 1
EndChar
StartChar: afii10045
Encoding: 1067 1067 471
Width: 600
GlyphClass: 2
Flags: W
LayerCount: 2
Fore
SplineSet
47 0 m 1,0,-1
 47 714 l 1,1,-1
 128 714 l 1,2,-1
 128 413 l 1,3,-1
 151 413 l 2,4,5
 415 413 415 413 415 209 c 0,6,7
 415 107 415 107 351 53.5 c 128,-1,8
 287 0 287 0 164 0 c 2,9,-1
 47 0 l 1,0,-1
128 78 m 1,10,-1
 166 78 l 2,11,12
 331 78 331 78 331 209 c 0,13,14
 331 274 331 274 289.5 303.5 c 128,-1,15
 248 333 248 333 151 333 c 2,16,-1
 128 333 l 1,17,-1
 128 78 l 1,10,-1
472 0 m 1,18,-1
 472 714 l 1,19,-1
 553 714 l 1,20,-1
 553 0 l 1,21,-1
 472 0 l 1,18,-1
EndSplineSet
Validated: 1
EndChar
StartChar: afii10046
Encoding: 1068 1068 472
Width: 1229
GlyphClass: 2
Flags: W
LayerCount: 2
Back
Fore
SplineSet
176 0 m 1,0,-1
 176 1462 l 1,1,-1
 362 1462 l 1,2,-1
 362 846 l 1,3,-1
 553 846 l 2,4,5
 1094 846 1094 846 1094 428 c 0,6,7
 1094 220 1094 220 962.5 110 c 128,-1,8
 831 0 831 0 580 0 c 2,9,-1
 176 0 l 1,0,-1
362 160 m 1,10,-1
 563 160 l 2,11,12
 901 160 901 160 901 428 c 0,13,14
 901 561 901 561 815.5 621.5 c 128,-1,15
 730 682 730 682 532 682 c 2,16,-1
 362 682 l 1,17,-1
 362 160 l 1,10,-1
EndSplineSet
Validated: 1
EndChar
StartChar: afii10047
Encoding: 1069 1069 473
Width: 600
GlyphClass: 2
Flags: W
LayerCount: 2
Fore
SplineSet
71 606 m 1,0,-1
 33 682 l 1,1,2
 112 724 112 724 220 724 c 0,3,4
 368 724 368 724 452.5 629 c 128,-1,5
 537 534 537 534 537 370 c 0,6,7
 537 188 537 188 453.5 89 c 128,-1,8
 370 -10 370 -10 216 -10 c 0,9,10
 112 -10 112 -10 41 19 c 1,11,-1
 41 98 l 1,12,13
 137 70 137 70 201 70 c 0,14,15
 432 70 432 70 440 334 c 1,16,-1
 133 334 l 1,17,-1
 133 413 l 1,18,-1
 438 413 l 1,19,20
 429 521 429 521 371 582.5 c 128,-1,21
 313 644 313 644 220 644 c 0,22,23
 146 644 146 644 71 606 c 1,0,-1
EndSplineSet
Validated: 1
EndChar
StartChar: afii10048
Encoding: 1070 1070 474
Width: 600
GlyphClass: 2
Flags: W
LayerCount: 2
Fore
SplineSet
197 333 m 1,0,-1
 129 333 l 1,1,-1
 129 0 l 1,2,-1
 48 0 l 1,3,-1
 48 714 l 1,4,-1
 129 714 l 1,5,-1
 129 413 l 1,6,-1
 199 413 l 1,7,8
 208 583 208 583 250.5 654 c 128,-1,9
 293 725 293 725 383 725 c 0,10,11
 477 725 477 725 521.5 639 c 128,-1,12
 566 553 566 553 566 358 c 0,13,14
 566 164 566 164 521 77 c 128,-1,15
 476 -10 476 -10 382 -10 c 0,16,17
 289 -10 289 -10 245.5 67 c 128,-1,18
 202 144 202 144 197 333 c 1,0,-1
382 70 m 0,19,20
 434 70 434 70 457 127 c 128,-1,21
 480 184 480 184 480 358 c 0,22,23
 480 534 480 534 456.5 589.5 c 128,-1,24
 433 645 433 645 382 645 c 0,25,26
 329 645 329 645 306 587 c 128,-1,27
 283 529 283 529 283 358 c 0,28,29
 283 188 283 188 306 129 c 128,-1,30
 329 70 329 70 382 70 c 0,19,20
EndSplineSet
Validated: 1
EndChar
StartChar: afii10049
Encoding: 1071 1071 475
Width: 600
GlyphClass: 2
Flags: W
LayerCount: 2
Fore
SplineSet
298 295 m 1,0,-1
 135 0 l 1,1,-1
 28 0 l 1,2,-1
 214 320 l 1,3,4
 81 368 81 368 81 519 c 0,5,6
 81 714 81 714 327 714 c 2,7,-1
 509 714 l 1,8,-1
 509 0 l 1,9,-1
 418 0 l 1,10,-1
 418 295 l 1,11,-1
 298 295 l 1,0,-1
418 636 m 1,12,-1
 326 636 l 2,13,14
 175 636 175 636 175 511 c 0,15,16
 175 444 175 444 215 408 c 128,-1,17
 255 372 255 372 330 372 c 2,18,-1
 418 372 l 1,19,-1
 418 636 l 1,12,-1
EndSplineSet
Validated: 1
EndChar
StartChar: afii10066
Encoding: 1073 1073 477
Width: 1229
GlyphClass: 2
Flags: W
LayerCount: 2
Back
Fore
SplineSet
1040 1571 m 1,0,-1
 1073 1411 l 1,1,2
 676 1344 676 1344 573.5 1311.5 c 128,-1,3
 471 1279 471 1279 407.5 1170.5 c 128,-1,4
 344 1062 344 1062 336 852 c 1,5,-1
 348 852 l 1,6,7
 464 1022 464 1022 684 1022 c 0,8,9
 870 1022 870 1022 976.5 890.5 c 128,-1,10
 1083 759 1083 759 1083 530 c 0,11,12
 1083 270 1083 270 958 125 c 128,-1,13
 833 -20 833 -20 612 -20 c 0,14,15
 393 -20 393 -20 268 160 c 128,-1,16
 143 340 143 340 143 659 c 0,17,18
 143 871 143 871 174 1015 c 128,-1,19
 205 1159 205 1159 257 1247 c 128,-1,20
 309 1335 309 1335 378 1388 c 128,-1,21
 447 1441 447 1441 548 1469.5 c 128,-1,22
 649 1498 649 1498 1040 1571 c 1,0,-1
332 655 m 1,23,24
 332 131 332 131 625 131 c 0,25,26
 891 131 891 131 891 506 c 0,27,28
 891 870 891 870 651 870 c 0,29,30
 556 870 556 870 467.5 806.5 c 128,-1,31
 379 743 379 743 332 655 c 1,23,24
EndSplineSet
EndChar
StartChar: afii10067
Encoding: 1074 1074 478
Width: 1229
GlyphClass: 2
Flags: W
LayerCount: 2
Back
Fore
SplineSet
844 582 m 1,0,-1
 844 575 l 1,1,2
 1108 540 1108 540 1108 317 c 0,3,4
 1108 168 1108 168 1002 84 c 128,-1,5
 896 0 896 0 688 0 c 2,6,-1
 176 0 l 1,7,-1
 176 1098 l 1,8,-1
 686 1098 l 2,9,10
 1073 1098 1073 1098 1073 821 c 0,11,12
 1073 624 1073 624 844 582 c 1,0,-1
358 944 m 1,13,-1
 358 647 l 1,14,-1
 651 647 l 2,15,16
 785 647 785 647 842 683 c 128,-1,17
 899 719 899 719 899 803 c 0,18,19
 899 944 899 944 682 944 c 2,20,-1
 358 944 l 1,13,-1
358 494 m 1,21,-1
 358 150 l 1,22,-1
 676 150 l 2,23,24
 930 150 930 150 930 330 c 0,25,26
 930 422 930 422 865 458 c 128,-1,27
 800 494 800 494 672 494 c 2,28,-1
 358 494 l 1,21,-1
EndSplineSet
EndChar
StartChar: afii10068
Encoding: 1075 1075 479
Width: 600
GlyphClass: 2
Flags: W
LayerCount: 2
Fore
SplineSet
507 461 m 1,0,-1
 231 461 l 1,1,-1
 231 0 l 1,2,-1
 142 0 l 1,3,-1
 142 536 l 1,4,-1
 507 536 l 1,5,-1
 507 461 l 1,0,-1
EndSplineSet
Validated: 1
EndChar
StartChar: afii10069
Encoding: 1076 1076 480
Width: 1229
GlyphClass: 2
Flags: W
LayerCount: 2
Back
Fore
SplineSet
1128 -381 m 1,0,-1
 952 -381 l 1,1,-1
 952 0 l 1,2,-1
 209 0 l 1,3,-1
 209 -381 l 1,4,-1
 33 -381 l 1,5,-1
 33 154 l 1,6,-1
 119 154 l 1,7,8
 381 543 381 543 385 1098 c 1,9,-1
 977 1098 l 1,10,-1
 977 154 l 1,11,-1
 1128 154 l 1,12,-1
 1128 -381 l 1,0,-1
795 154 m 1,13,-1
 795 958 l 1,14,-1
 545 958 l 1,15,16
 509 477 509 477 311 154 c 1,17,-1
 795 154 l 1,13,-1
EndSplineSet
EndChar
StartChar: afii10072
Encoding: 1078 1078 482
Width: 1229
GlyphClass: 2
Flags: W
LayerCount: 2
Back
Fore
SplineSet
535 565 m 1,0,-1
 535 1098 l 1,1,-1
 694 1098 l 1,2,-1
 694 565 l 1,3,-1
 1044 1098 l 1,4,-1
 1229 1098 l 1,5,-1
 862 565 l 1,6,-1
 1227 0 l 1,7,-1
 1032 0 l 1,8,-1
 694 557 l 1,9,-1
 694 0 l 1,10,-1
 535 0 l 1,11,-1
 535 557 l 1,12,-1
 197 0 l 1,13,-1
 2 0 l 1,14,-1
 369 565 l 1,15,-1
 0 1098 l 1,16,-1
 184 1098 l 1,17,-1
 535 565 l 1,0,-1
EndSplineSet
Validated: 1
EndChar
StartChar: afii10073
Encoding: 1079 1079 483
Width: 1229
GlyphClass: 2
Flags: W
LayerCount: 2
Back
Fore
SplineSet
506 647 m 2,0,1
 678 647 678 647 750.5 686.5 c 128,-1,2
 823 726 823 726 823 813 c 0,3,4
 823 967 823 967 573 967 c 0,5,6
 439 967 439 967 264 895 c 1,7,-1
 201 1042 l 1,8,9
 361 1118 361 1118 571 1118 c 0,10,11
 776 1118 776 1118 886.5 1043.5 c 128,-1,12
 997 969 997 969 997 829 c 0,13,14
 997 643 997 643 805 586 c 1,15,-1
 805 575 l 1,16,17
 1032 510 1032 510 1032 303 c 0,18,19
 1032 152 1032 152 911.5 66 c 128,-1,20
 791 -20 791 -20 567 -20 c 0,21,22
 332 -20 332 -20 205 49 c 1,23,-1
 205 215 l 1,24,25
 385 129 385 129 571 129 c 0,26,27
 854 129 854 129 854 309 c 0,28,29
 854 494 854 494 543 494 c 2,30,-1
 393 494 l 1,31,-1
 393 647 l 1,32,-1
 506 647 l 2,0,1
EndSplineSet
EndChar
StartChar: afii10074
Encoding: 1080 1080 484
Width: 1229
GlyphClass: 2
Flags: W
LayerCount: 2
Back
Fore
SplineSet
332 1098 m 1,0,-1
 332 430 l 1,1,-1
 319 178 l 1,2,-1
 836 1098 l 1,3,-1
 1069 1098 l 1,4,-1
 1069 0 l 1,5,-1
 897 0 l 1,6,-1
 897 647 l 1,7,-1
 907 918 l 1,8,-1
 393 0 l 1,9,-1
 160 0 l 1,10,-1
 160 1098 l 1,11,-1
 332 1098 l 1,0,-1
EndSplineSet
Validated: 1
EndChar
StartChar: afii10076
Encoding: 1082 1082 486
Width: 1229
GlyphClass: 2
Flags: W
LayerCount: 2
Back
Fore
SplineSet
913 1098 m 1,0,-1
 1135 1098 l 1,1,-1
 608 571 l 1,2,-1
 1174 0 l 1,3,-1
 942 0 l 1,4,-1
 395 557 l 1,5,-1
 395 0 l 1,6,-1
 215 0 l 1,7,-1
 215 1098 l 1,8,-1
 395 1098 l 1,9,-1
 395 565 l 1,10,-1
 913 1098 l 1,0,-1
EndSplineSet
Validated: 1
EndChar
StartChar: afii10077
Encoding: 1083 1083 487
Width: 1229
GlyphClass: 2
Flags: W
LayerCount: 2
Back
Fore
SplineSet
1040 0 m 1,0,-1
 858 0 l 1,1,-1
 858 944 l 1,2,-1
 518 944 l 1,3,4
 481 451 481 451 392 218.5 c 128,-1,5
 303 -14 303 -14 123 -14 c 0,6,7
 61 -14 61 -14 31 -2 c 1,8,-1
 31 129 l 1,9,10
 52 123 52 123 80 123 c 0,11,12
 191 123 191 123 258.5 360.5 c 128,-1,13
 326 598 326 598 362 1098 c 1,14,-1
 1040 1098 l 1,15,-1
 1040 0 l 1,0,-1
EndSplineSet
EndChar
StartChar: afii10078
Encoding: 1084 1084 488
Width: 1229
GlyphClass: 2
Flags: W
LayerCount: 2
Back
Fore
SplineSet
1114 0 m 1,0,-1
 963 0 l 1,1,-1
 963 897 l 1,2,3
 955 870 955 870 930 770 c 0,4,5
 908 685 908 685 895 647 c 2,6,-1
 682 0 l 1,7,-1
 547 0 l 1,8,-1
 334 647 l 2,9,10
 326 672 326 672 266 897 c 1,11,-1
 266 0 l 1,12,-1
 115 0 l 1,13,-1
 115 1098 l 1,14,-1
 326 1098 l 1,15,-1
 541 442 l 2,16,17
 566 365 566 365 614 174 c 1,18,19
 619 187 619 187 667 365 c 0,20,21
 677 404 677 404 688 438 c 2,22,-1
 907 1098 l 1,23,-1
 1114 1098 l 1,24,-1
 1114 0 l 1,0,-1
EndSplineSet
Validated: 1
EndChar
StartChar: afii10079
Encoding: 1085 1085 489
Width: 600
GlyphClass: 2
Flags: W
LayerCount: 2
Fore
SplineSet
167 536 m 1,0,-1
 167 314 l 1,1,-1
 433 314 l 1,2,-1
 433 536 l 1,3,-1
 522 536 l 1,4,-1
 522 0 l 1,5,-1
 433 0 l 1,6,-1
 433 239 l 1,7,-1
 167 239 l 1,8,-1
 167 0 l 1,9,-1
 78 0 l 1,10,-1
 78 536 l 1,11,-1
 167 536 l 1,0,-1
EndSplineSet
Validated: 1
EndChar
StartChar: afii10081
Encoding: 1087 1087 491
Width: 600
GlyphClass: 2
Flags: W
LayerCount: 2
Fore
SplineSet
167 0 m 1,0,-1
 78 0 l 1,1,-1
 78 536 l 1,2,-1
 522 536 l 1,3,-1
 522 0 l 1,4,-1
 433 0 l 1,5,-1
 433 461 l 1,6,-1
 167 461 l 1,7,-1
 167 0 l 1,0,-1
EndSplineSet
Validated: 1
EndChar
StartChar: afii10084
Encoding: 1090 1090 494
Width: 600
GlyphClass: 2
Flags: W
LayerCount: 2
Fore
SplineSet
540 461 m 1,0,-1
 344 461 l 1,1,-1
 344 0 l 1,2,-1
 255 0 l 1,3,-1
 255 461 l 1,4,-1
 59 461 l 1,5,-1
 59 536 l 1,6,-1
 540 536 l 1,7,-1
 540 461 l 1,0,-1
EndSplineSet
Validated: 1
EndChar
StartChar: afii10086
Encoding: 1092 1092 496
Width: 1229
GlyphClass: 2
Flags: W
LayerCount: 2
Back
Fore
SplineSet
694 1114 m 1,0,1
 1153 1064 1153 1064 1153 551 c 0,2,3
 1153 26 1153 26 694 -16 c 1,4,-1
 694 -492 l 1,5,-1
 537 -492 l 1,6,-1
 537 -16 l 1,7,8
 74 29 74 29 74 551 c 256,9,10
 74 1073 74 1073 537 1114 c 1,11,-1
 537 1556 l 1,12,-1
 694 1556 l 1,13,-1
 694 1114 l 1,0,1
537 135 m 1,14,-1
 537 963 l 1,15,16
 242 934 242 934 242 551 c 0,17,18
 242 165 242 165 537 135 c 1,14,-1
694 961 m 1,19,-1
 694 135 l 1,20,21
 985 168 985 168 985 551 c 0,22,23
 985 928 985 928 694 961 c 1,19,-1
EndSplineSet
Validated: 1
EndChar
StartChar: afii10088
Encoding: 1094 1094 498
Width: 600
GlyphClass: 2
Flags: W
LayerCount: 2
Fore
SplineSet
576 -186 m 1,0,-1
 490 -186 l 1,1,-1
 490 0 l 1,2,-1
 74 0 l 1,3,-1
 74 536 l 1,4,-1
 163 536 l 1,5,-1
 163 75 l 1,6,-1
 409 75 l 1,7,-1
 409 536 l 1,8,-1
 498 536 l 1,9,-1
 498 75 l 1,10,-1
 576 75 l 1,11,-1
 576 -186 l 1,0,-1
EndSplineSet
Validated: 1
EndChar
StartChar: afii10089
Encoding: 1095 1095 499
Width: 600
GlyphClass: 2
Flags: W
LayerCount: 2
Fore
SplineSet
163 536 m 1,0,-1
 163 336 l 2,1,2
 163 251 163 251 263 251 c 0,3,4
 346 251 346 251 429 307 c 1,5,-1
 429 536 l 1,6,-1
 518 536 l 1,7,-1
 518 0 l 1,8,-1
 429 0 l 1,9,-1
 429 239 l 1,10,11
 341 177 341 177 243 177 c 0,12,13
 165 177 165 177 119.5 219.5 c 128,-1,14
 74 262 74 262 74 330 c 2,15,-1
 74 536 l 1,16,-1
 163 536 l 1,0,-1
EndSplineSet
Validated: 1
EndChar
StartChar: afii10090
Encoding: 1096 1096 500
Width: 1229
GlyphClass: 2
Flags: W
LayerCount: 2
Back
Fore
SplineSet
696 154 m 1,0,-1
 944 154 l 1,1,-1
 944 1098 l 1,2,-1
 1106 1098 l 1,3,-1
 1106 0 l 1,4,-1
 125 0 l 1,5,-1
 125 1098 l 1,6,-1
 287 1098 l 1,7,-1
 287 154 l 1,8,-1
 535 154 l 1,9,-1
 535 1098 l 1,10,-1
 696 1098 l 1,11,-1
 696 154 l 1,0,-1
EndSplineSet
Validated: 1
EndChar
StartChar: afii10091
Encoding: 1097 1097 501
Width: 600
GlyphClass: 2
Flags: W
LayerCount: 2
Fore
SplineSet
332 75 m 1,0,-1
 453 75 l 1,1,-1
 453 536 l 1,2,-1
 532 536 l 1,3,-1
 532 75 l 1,4,-1
 590 75 l 1,5,-1
 590 -186 l 1,6,-1
 511 -186 l 1,7,-1
 511 0 l 1,8,-1
 53 0 l 1,9,-1
 53 536 l 1,10,-1
 132 536 l 1,11,-1
 132 75 l 1,12,-1
 253 75 l 1,13,-1
 253 536 l 1,14,-1
 332 536 l 1,15,-1
 332 75 l 1,0,-1
EndSplineSet
Validated: 1
EndChar
StartChar: afii10092
Encoding: 1098 1098 502
Width: 600
GlyphClass: 2
Flags: W
LayerCount: 2
Fore
SplineSet
286 316 m 1,0,-1
 361 316 l 2,1,2
 564 316 564 316 564 164 c 0,3,4
 564 0 564 0 359 0 c 2,5,-1
 197 0 l 1,6,-1
 197 461 l 1,7,-1
 21 461 l 1,8,-1
 21 536 l 1,9,-1
 286 536 l 1,10,-1
 286 316 l 1,0,-1
286 241 m 1,11,-1
 286 73 l 1,12,-1
 353 73 l 2,13,14
 477 73 477 73 477 157 c 0,15,16
 477 201 477 201 448 221 c 128,-1,17
 419 241 419 241 351 241 c 2,18,-1
 286 241 l 1,11,-1
EndSplineSet
Validated: 1
EndChar
StartChar: afii10093
Encoding: 1099 1099 503
Width: 600
GlyphClass: 2
Flags: W
LayerCount: 2
Fore
SplineSet
134 316 m 1,0,-1
 199 316 l 2,1,2
 402 316 402 316 402 164 c 0,3,4
 402 0 402 0 197 0 c 2,5,-1
 55 0 l 1,6,-1
 55 536 l 1,7,-1
 134 536 l 1,8,-1
 134 316 l 1,0,-1
134 241 m 1,9,-1
 134 73 l 1,10,-1
 201 73 l 2,11,12
 325 73 325 73 325 157 c 0,13,14
 325 201 325 201 296.5 221 c 128,-1,15
 268 241 268 241 199 241 c 2,16,-1
 134 241 l 1,9,-1
544 0 m 1,17,-1
 465 0 l 1,18,-1
 465 536 l 1,19,-1
 544 536 l 1,20,-1
 544 0 l 1,17,-1
EndSplineSet
Validated: 1
EndChar
StartChar: afii10094
Encoding: 1100 1100 504
Width: 600
GlyphClass: 2
Flags: W
LayerCount: 2
Fore
SplineSet
195 316 m 1,0,-1
 330 316 l 2,1,2
 533 316 533 316 533 164 c 0,3,4
 533 0 533 0 328 0 c 2,5,-1
 106 0 l 1,6,-1
 106 536 l 1,7,-1
 195 536 l 1,8,-1
 195 316 l 1,0,-1
195 241 m 1,9,-1
 195 73 l 1,10,-1
 322 73 l 2,11,12
 446 73 446 73 446 157 c 0,13,14
 446 201 446 201 417 221 c 128,-1,15
 388 241 388 241 320 241 c 2,16,-1
 195 241 l 1,9,-1
EndSplineSet
Validated: 1
EndChar
StartChar: afii10095
Encoding: 1101 1101 505
Width: 600
GlyphClass: 2
Flags: W
LayerCount: 2
Fore
SplineSet
93 20 m 1,0,-1
 93 98 l 1,1,2
 173 68 173 68 247 68 c 0,3,4
 418 68 418 68 427 238 c 1,5,-1
 164 238 l 1,6,-1
 164 313 l 1,7,-1
 426 313 l 1,8,9
 413 468 413 468 248 468 c 0,10,11
 195 468 195 468 120 440 c 1,12,-1
 90 517 l 1,13,14
 165 546 165 546 252 546 c 0,15,16
 382 546 382 546 450 474.5 c 128,-1,17
 518 403 518 403 518 265 c 0,18,19
 518 133 518 133 448 61.5 c 128,-1,20
 378 -10 378 -10 249 -10 c 0,21,22
 158 -10 158 -10 93 20 c 1,0,-1
EndSplineSet
Validated: 1
EndChar
StartChar: afii10096
Encoding: 1102 1102 506
Width: 600
GlyphClass: 2
Flags: W
LayerCount: 2
Fore
SplineSet
212 239 m 1,0,-1
 139 239 l 1,1,-1
 139 0 l 1,2,-1
 60 0 l 1,3,-1
 60 536 l 1,4,-1
 139 536 l 1,5,-1
 139 314 l 1,6,-1
 213 314 l 1,7,8
 230 546 230 546 392 546 c 0,9,10
 475 546 475 546 522 473.5 c 128,-1,11
 569 401 569 401 569 269 c 0,12,13
 569 -10 569 -10 389 -10 c 0,14,15
 226 -10 226 -10 212 239 c 1,0,-1
391 64 m 0,16,17
 441 64 441 64 464 111.5 c 128,-1,18
 487 159 487 159 487 269 c 0,19,20
 487 375 487 375 464.5 423.5 c 128,-1,21
 442 472 442 472 390 472 c 0,22,23
 339 472 339 472 316.5 425 c 128,-1,24
 294 378 294 378 294 269 c 0,25,26
 294 161 294 161 316.5 112.5 c 128,-1,27
 339 64 339 64 391 64 c 0,16,17
EndSplineSet
Validated: 1
EndChar
StartChar: afii10097
Encoding: 1103 1103 507
Width: 1229
GlyphClass: 2
Flags: W
LayerCount: 2
Back
Fore
SplineSet
313 0 m 1,0,-1
 115 0 l 1,1,-1
 406 461 l 1,2,3
 172 528 172 528 172 776 c 0,4,5
 172 926 172 926 274 1012 c 128,-1,6
 376 1098 376 1098 549 1098 c 2,7,-1
 1034 1098 l 1,8,-1
 1034 0 l 1,9,-1
 852 0 l 1,10,-1
 852 432 l 1,11,-1
 567 432 l 1,12,-1
 313 0 l 1,0,-1
852 586 m 1,13,-1
 852 944 l 1,14,-1
 557 944 l 2,15,16
 346 944 346 944 346 772 c 0,17,18
 346 586 346 586 584 586 c 2,19,-1
 852 586 l 1,13,-1
EndSplineSet
EndChar
StartChar: afii10099
Encoding: 1106 1106 510
Width: 1229
GlyphClass: 2
Flags: W
LayerCount: 2
Back
Fore
SplineSet
645 -467 m 1,0,-1
 645 -319 l 1,1,2
 699 -340 699 -340 760 -340 c 0,3,4
 887 -340 887 -340 887 -170 c 2,5,-1
 887 666 l 2,6,7
 887 926 887 926 651 926 c 0,8,9
 489 926 489 926 415.5 832.5 c 128,-1,10
 342 739 342 739 342 528 c 2,11,-1
 342 0 l 1,12,-1
 160 0 l 1,13,-1
 160 1237 l 1,14,-1
 4 1237 l 1,15,-1
 4 1374 l 1,16,-1
 160 1374 l 1,17,-1
 160 1556 l 1,18,-1
 342 1556 l 1,19,-1
 342 1374 l 1,20,-1
 721 1374 l 1,21,-1
 721 1237 l 1,22,-1
 342 1237 l 1,23,-1
 342 1053 l 1,24,-1
 334 909 l 1,25,-1
 344 909 l 1,26,27
 450 1077 450 1077 678 1077 c 0,28,29
 1069 1077 1069 1077 1069 676 c 2,30,-1
 1069 -158 l 2,31,32
 1069 -492 1069 -492 778 -492 c 0,33,34
 697 -492 697 -492 645 -467 c 1,0,-1
EndSplineSet
EndChar
StartChar: afii10101
Encoding: 1108 1108 512
Width: 600
GlyphClass: 2
Flags: W
LayerCount: 2
Fore
SplineSet
518 517 m 1,0,-1
 488 440 l 1,1,2
 415 468 415 468 360 468 c 0,3,4
 191 468 191 468 176 313 c 1,5,-1
 438 313 l 1,6,-1
 438 238 l 1,7,-1
 175 238 l 1,8,9
 185 68 185 68 355 68 c 0,10,11
 430 68 430 68 509 98 c 1,12,-1
 509 20 l 1,13,14
 444 -10 444 -10 353 -10 c 0,15,16
 224 -10 224 -10 154 61.5 c 128,-1,17
 84 133 84 133 84 265 c 0,18,19
 84 403 84 403 155 474.5 c 128,-1,20
 226 546 226 546 357 546 c 0,21,22
 444 546 444 546 518 517 c 1,0,-1
EndSplineSet
Validated: 1
EndChar
StartChar: afii10106
Encoding: 1113 1113 517
Width: 600
GlyphClass: 2
Flags: W
LayerCount: 2
Fore
SplineSet
348 316 m 1,0,-1
 373 316 l 2,1,2
 576 316 576 316 576 164 c 0,3,4
 576 0 576 0 371 0 c 2,5,-1
 269 0 l 1,6,-1
 269 461 l 1,7,-1
 178 461 l 1,8,9
 162 230 162 230 149.5 137.5 c 128,-1,10
 137 45 137 45 114.5 19 c 128,-1,11
 92 -7 92 -7 45 -7 c 0,12,13
 15 -7 15 -7 0 -1 c 1,14,-1
 0 63 l 1,15,16
 11 60 11 60 24 60 c 0,17,18
 44 60 44 60 56 80.5 c 128,-1,19
 68 101 68 101 79 194.5 c 128,-1,20
 90 288 90 288 107 536 c 1,21,-1
 348 536 l 1,22,-1
 348 316 l 1,0,-1
348 241 m 1,23,-1
 348 73 l 1,24,-1
 375 73 l 2,25,26
 499 73 499 73 499 157 c 0,27,28
 499 201 499 201 470 221 c 128,-1,29
 441 241 441 241 373 241 c 2,30,-1
 348 241 l 1,23,-1
EndSplineSet
Validated: 1
EndChar
StartChar: afii10107
Encoding: 1114 1114 518
Width: 600
GlyphClass: 2
Flags: W
LayerCount: 2
Fore
SplineSet
131 536 m 1,0,-1
 131 314 l 1,1,-1
 277 314 l 1,2,-1
 277 536 l 1,3,-1
 356 536 l 1,4,-1
 356 316 l 1,5,-1
 381 316 l 2,6,7
 584 316 584 316 584 164 c 0,8,9
 584 0 584 0 379 0 c 2,10,-1
 277 0 l 1,11,-1
 277 239 l 1,12,-1
 131 239 l 1,13,-1
 131 0 l 1,14,-1
 52 0 l 1,15,-1
 52 536 l 1,16,-1
 131 536 l 1,0,-1
356 241 m 1,17,-1
 356 73 l 1,18,-1
 383 73 l 2,19,20
 507 73 507 73 507 157 c 0,21,22
 507 201 507 201 478 221 c 128,-1,23
 449 241 449 241 381 241 c 2,24,-1
 356 241 l 1,17,-1
EndSplineSet
Validated: 1
EndChar
StartChar: afii10193
Encoding: 1119 1119 523
Width: 600
GlyphClass: 2
Flags: W
LayerCount: 2
Fore
SplineSet
167 75 m 1,0,-1
 433 75 l 1,1,-1
 433 536 l 1,2,-1
 522 536 l 1,3,-1
 522 0 l 1,4,-1
 349 0 l 1,5,-1
 349 -186 l 1,6,-1
 260 -186 l 1,7,-1
 260 0 l 1,8,-1
 78 0 l 1,9,-1
 78 536 l 1,10,-1
 167 536 l 1,11,-1
 167 75 l 1,0,-1
EndSplineSet
Validated: 1
EndChar
StartChar: uni0460
Encoding: 1120 1120 524
Width: 1229
GlyphClass: 2
Flags: W
LayerCount: 2
Back
Fore
SplineSet
700 186 m 1,0,1
 739 143 739 143 795 143 c 0,2,3
 843 143 843 143 876.5 187.5 c 128,-1,4
 910 232 910 232 931 314 c 128,-1,5
 952 396 952 396 961.5 510.5 c 128,-1,6
 971 625 971 625 971 766 c 0,7,8
 971 1041 971 1041 932 1179 c 128,-1,9
 893 1317 893 1317 827 1317 c 0,10,11
 772 1317 772 1317 731 1288 c 1,12,-1
 684 1440 l 1,13,14
 718 1463 718 1463 762 1472 c 128,-1,15
 806 1481 806 1481 854 1481 c 0,16,17
 1000 1481 1000 1481 1073.5 1301.5 c 128,-1,18
 1147 1122 1147 1122 1147 764 c 0,19,20
 1147 572 1147 572 1130 425.5 c 128,-1,21
 1113 279 1113 279 1074 180 c 128,-1,22
 1035 81 1035 81 971 30.5 c 128,-1,23
 907 -20 907 -20 813 -20 c 0,24,25
 780 -20 780 -20 753 -13.5 c 128,-1,26
 726 -7 726 -7 703 5 c 128,-1,27
 680 17 680 17 658.5 35.5 c 128,-1,28
 637 54 637 54 614 78 c 1,29,30
 592 54 592 54 571 35.5 c 128,-1,31
 550 17 550 17 527 5 c 128,-1,32
 504 -7 504 -7 477.5 -13.5 c 128,-1,33
 451 -20 451 -20 418 -20 c 0,34,35
 324 -20 324 -20 260 30.5 c 128,-1,36
 196 81 196 81 156.5 180 c 128,-1,37
 117 279 117 279 99.5 425.5 c 128,-1,38
 82 572 82 572 82 764 c 0,39,40
 82 1122 82 1122 155.5 1301.5 c 128,-1,41
 229 1481 229 1481 375 1481 c 0,42,43
 423 1481 423 1481 467 1472 c 128,-1,44
 511 1463 511 1463 545 1440 c 1,45,-1
 498 1288 l 1,46,47
 457 1317 457 1317 401 1317 c 0,48,49
 335 1317 335 1317 296.5 1179 c 128,-1,50
 258 1041 258 1041 258 766 c 0,51,52
 258 625 258 625 267.5 510.5 c 128,-1,53
 277 396 277 396 298.5 314 c 128,-1,54
 320 232 320 232 354 187.5 c 128,-1,55
 388 143 388 143 436 143 c 0,56,57
 493 143 493 143 530 186 c 1,58,-1
 530 662 l 1,59,-1
 700 662 l 1,60,-1
 700 186 l 1,0,1
EndSplineSet
Validated: 1
EndChar
StartChar: uni0461
Encoding: 1121 1121 525
Width: 600
GlyphClass: 2
Flags: W
LayerCount: 2
Fore
SplineSet
138 0 m 1,0,-1
 -2 536 l 1,1,-1
 76 536 l 1,2,-1
 156 206 l 2,3,4
 166 164 166 164 174 126 c 128,-1,5
 182 88 182 88 186 63 c 1,6,-1
 188 63 l 1,7,8
 190 72 190 72 194 85.5 c 128,-1,9
 198 99 198 99 202.5 115 c 128,-1,10
 207 131 207 131 211.5 147.5 c 128,-1,11
 216 164 216 164 221 178 c 2,12,-1
 263 311 l 1,13,-1
 210 536 l 1,14,-1
 283 536 l 1,15,-1
 350 247 l 2,16,17
 354 231 354 231 359.5 207.5 c 128,-1,18
 365 184 365 184 370.5 159 c 128,-1,19
 376 134 376 134 381.5 110.5 c 128,-1,20
 387 87 387 87 390 71 c 1,21,-1
 393 71 l 1,22,23
 424 122 424 122 443 173 c 128,-1,24
 462 224 462 224 473 280 c 128,-1,25
 484 336 484 336 488 399 c 128,-1,26
 492 462 492 462 492 536 c 1,27,-1
 567 536 l 1,28,29
 567 456 567 456 560.5 386 c 128,-1,30
 554 316 554 316 538 251 c 128,-1,31
 522 186 522 186 494.5 124 c 128,-1,32
 467 62 467 62 424 0 c 1,33,-1
 344 0 l 1,34,-1
 303 166 l 2,35,36
 300 179 300 179 297 192.5 c 128,-1,37
 294 206 294 206 293 216 c 1,38,39
 291 206 291 206 287 191 c 128,-1,40
 283 176 283 176 279 165 c 2,41,-1
 227 0 l 1,42,-1
 138 0 l 1,0,-1
EndSplineSet
Validated: 1
EndChar
StartChar: uni0462
Encoding: 1122 1122 526
Width: 600
GlyphClass: 2
Flags: W
LayerCount: 2
Fore
SplineSet
247 413 m 1,0,-1
 293 413 l 2,1,2
 367 413 367 413 417.5 397 c 128,-1,3
 468 381 468 381 499 353.5 c 128,-1,4
 530 326 530 326 543.5 288.5 c 128,-1,5
 557 251 557 251 557 209 c 0,6,7
 557 162 557 162 542.5 123 c 128,-1,8
 528 84 528 84 497 57 c 128,-1,9
 466 30 466 30 419 15 c 128,-1,10
 372 0 372 0 306 0 c 2,11,-1
 156 0 l 1,12,-1
 156 547 l 1,13,-1
 10 547 l 1,14,-1
 10 627 l 1,15,-1
 156 627 l 1,16,-1
 156 760 l 1,17,-1
 247 760 l 1,18,-1
 247 627 l 1,19,-1
 439 627 l 1,20,-1
 439 547 l 1,21,-1
 247 547 l 1,22,-1
 247 413 l 1,0,-1
247 78 m 1,23,-1
 298 78 l 2,24,25
 383 78 383 78 423 110.5 c 128,-1,26
 463 143 463 143 463 209 c 0,27,28
 463 243 463 243 451.5 267 c 128,-1,29
 440 291 440 291 418 305.5 c 128,-1,30
 396 320 396 320 362.5 326.5 c 128,-1,31
 329 333 329 333 283 333 c 2,32,-1
 247 333 l 1,33,-1
 247 78 l 1,23,-1
EndSplineSet
Validated: 1
EndChar
StartChar: uni0463
Encoding: 1123 1123 527
Width: 600
GlyphClass: 2
Flags: W
LayerCount: 2
Fore
SplineSet
361 461 m 1,0,-1
 215 461 l 1,1,-1
 215 316 l 1,2,-1
 340 316 l 2,3,4
 444 316 444 316 493.5 278 c 128,-1,5
 543 240 543 240 543 164 c 0,6,7
 543 126 543 126 531.5 96 c 128,-1,8
 520 66 520 66 495.5 44.5 c 128,-1,9
 471 23 471 23 432 11.5 c 128,-1,10
 393 0 393 0 338 0 c 2,11,-1
 126 0 l 1,12,-1
 126 461 l 1,13,-1
 10 461 l 1,14,-1
 10 536 l 1,15,-1
 126 536 l 1,16,-1
 126 644 l 1,17,-1
 215 644 l 1,18,-1
 215 536 l 1,19,-1
 361 536 l 1,20,-1
 361 461 l 1,0,-1
215 241 m 1,21,-1
 215 73 l 1,22,-1
 332 73 l 2,23,24
 359 73 359 73 381.5 77.5 c 128,-1,25
 404 82 404 82 421 92 c 128,-1,26
 438 102 438 102 447 118 c 128,-1,27
 456 134 456 134 456 157 c 0,28,29
 456 181 456 181 448 197 c 128,-1,30
 440 213 440 213 424 223 c 128,-1,31
 408 233 408 233 384.5 237 c 128,-1,32
 361 241 361 241 330 241 c 2,33,-1
 215 241 l 1,21,-1
EndSplineSet
Validated: 1
EndChar
StartChar: uni0464
Encoding: 1124 1124 528
Width: 600
GlyphClass: 2
Flags: W
LayerCount: 2
Fore
SplineSet
446 644 m 0,0,1
 413 644 413 644 385 628.5 c 128,-1,2
 357 613 357 613 336 583 c 128,-1,3
 315 553 315 553 302 510 c 128,-1,4
 289 467 289 467 284 413 c 1,5,-1
 512 413 l 1,6,-1
 512 334 l 1,7,-1
 282 334 l 1,8,9
 283 271 283 271 294.5 221.5 c 128,-1,10
 306 172 306 172 326.5 138.5 c 128,-1,11
 347 105 347 105 377.5 87.5 c 128,-1,12
 408 70 408 70 448 70 c 0,13,14
 480 70 480 70 508.5 78.5 c 128,-1,15
 537 87 537 87 565 98 c 1,16,-1
 565 19 l 1,17,18
 550 12 550 12 535.5 6 c 128,-1,19
 521 0 521 0 505.5 -3 c 128,-1,20
 490 -6 490 -6 472.5 -8 c 128,-1,21
 455 -10 455 -10 433 -10 c 0,22,23
 374 -10 374 -10 331 14.5 c 128,-1,24
 288 39 288 39 258.5 84 c 128,-1,25
 229 129 229 129 214 192 c 128,-1,26
 199 255 199 255 197 333 c 1,27,-1
 129 333 l 1,28,-1
 129 0 l 1,29,-1
 48 0 l 1,30,-1
 48 714 l 1,31,-1
 129 714 l 1,32,-1
 129 413 l 1,33,-1
 199 413 l 1,34,35
 204 483 204 483 223 540.5 c 128,-1,36
 242 598 242 598 273 638.5 c 128,-1,37
 304 679 304 679 347.5 701.5 c 128,-1,38
 391 724 391 724 446 724 c 0,39,40
 487 724 487 724 523.5 713.5 c 128,-1,41
 560 703 560 703 589 682 c 1,42,-1
 553 606 l 1,43,44
 531 622 531 622 505.5 633 c 128,-1,45
 480 644 480 644 446 644 c 0,0,1
EndSplineSet
Validated: 1
EndChar
StartChar: uni0465
Encoding: 1125 1125 529
Width: 600
GlyphClass: 2
Flags: W
LayerCount: 2
Fore
SplineSet
437 -10 m 0,0,1
 395 -10 395 -10 359 4.5 c 128,-1,2
 323 19 323 19 295 49 c 128,-1,3
 267 79 267 79 250 126 c 128,-1,4
 233 173 233 173 230 239 c 1,5,-1
 157 239 l 1,6,-1
 157 0 l 1,7,-1
 78 0 l 1,8,-1
 78 536 l 1,9,-1
 157 536 l 1,10,-1
 157 314 l 1,11,-1
 231 314 l 1,12,13
 236 376 236 376 254.5 420.5 c 128,-1,14
 273 465 273 465 301 493 c 128,-1,15
 329 521 329 521 364.5 533.5 c 128,-1,16
 400 546 400 546 441 546 c 0,17,18
 458 546 458 546 474.5 544 c 128,-1,19
 491 542 491 542 506.5 538 c 128,-1,20
 522 534 522 534 536 528.5 c 128,-1,21
 550 523 550 523 560 517 c 1,22,-1
 537 442 l 1,23,24
 527 447 527 447 514.5 451.5 c 128,-1,25
 502 456 502 456 489.5 459.5 c 128,-1,26
 477 463 477 463 464.5 465.5 c 128,-1,27
 452 468 452 468 441 468 c 0,28,29
 381 468 381 468 349.5 431 c 128,-1,30
 318 394 318 394 312 313 c 1,31,-1
 516 313 l 1,32,-1
 516 238 l 1,33,-1
 311 238 l 1,34,35
 313 193 313 193 322 160.5 c 128,-1,36
 331 128 331 128 346.5 107.5 c 128,-1,37
 362 87 362 87 384.5 77.5 c 128,-1,38
 407 68 407 68 437 68 c 0,39,40
 472 68 472 68 500 77 c 128,-1,41
 528 86 528 86 552 98 c 1,42,-1
 552 19 l 1,43,44
 529 5 529 5 502 -2.5 c 128,-1,45
 475 -10 475 -10 437 -10 c 0,0,1
EndSplineSet
Validated: 1
EndChar
StartChar: uni0466
Encoding: 1126 1126 530
Width: 600
GlyphClass: 2
Flags: W
LayerCount: 2
Fore
SplineSet
258 333 m 1,0,-1
 203 333 l 1,1,-1
 87 0 l 1,2,-1
 0 0 l 1,3,-1
 254 714 l 1,4,-1
 345 714 l 1,5,-1
 600 0 l 1,6,-1
 511 0 l 1,7,-1
 395 333 l 1,8,-1
 339 333 l 1,9,-1
 339 0 l 1,10,-1
 258 0 l 1,11,-1
 258 333 l 1,0,-1
231 408 m 1,12,-1
 370 408 l 1,13,-1
 351 462 l 2,14,15
 333 513 333 513 320.5 554.5 c 128,-1,16
 308 596 308 596 299 633 c 1,17,18
 290 596 290 596 275.5 551.5 c 128,-1,19
 261 507 261 507 247 462 c 2,20,-1
 231 408 l 1,12,-1
EndSplineSet
Validated: 1
EndChar
StartChar: uni0467
Encoding: 1127 1127 531
Width: 1229
GlyphClass: 2
Flags: W
LayerCount: 2
Back
Fore
SplineSet
729 1098 m 1,0,-1
 1165 0 l 1,1,-1
 977 0 l 1,2,-1
 793 489 l 1,3,-1
 694 489 l 1,4,-1
 694 0 l 1,5,-1
 532 0 l 1,6,-1
 532 489 l 1,7,-1
 428 489 l 1,8,-1
 244 0 l 1,9,-1
 61 0 l 1,10,-1
 498 1098 l 1,11,-1
 729 1098 l 1,0,-1
705.5 723 m 128,-1,13
 688 768 688 768 670.5 814.5 c 128,-1,14
 653 861 653 861 638.5 904 c 128,-1,15
 624 947 624 947 616 977 c 1,16,-1
 604 977 l 1,17,18
 596 948 596 948 581 904.5 c 128,-1,19
 566 861 566 861 549 814.5 c 128,-1,20
 532 768 532 768 515 722.5 c 128,-1,21
 498 677 498 677 485 643 c 1,22,-1
 737 643 l 1,23,12
 723 678 723 678 705.5 723 c 128,-1,13
EndSplineSet
Validated: 1
EndChar
StartChar: uni0468
Encoding: 1128 1128 532
Width: 600
GlyphClass: 2
Flags: W
LayerCount: 2
Fore
SplineSet
355 333 m 1,0,-1
 332 333 l 1,1,-1
 250 0 l 1,2,-1
 168 0 l 1,3,-1
 254 333 l 1,4,-1
 129 333 l 1,5,-1
 129 0 l 1,6,-1
 48 0 l 1,7,-1
 48 714 l 1,8,-1
 129 714 l 1,9,-1
 129 411 l 1,10,-1
 273 411 l 1,11,-1
 352 714 l 1,12,-1
 437 714 l 1,13,-1
 623 0 l 1,14,-1
 541 0 l 1,15,-1
 457 333 l 1,16,-1
 435 333 l 1,17,-1
 435 0 l 1,18,-1
 355 0 l 1,19,-1
 355 333 l 1,0,-1
351 411 m 1,20,-1
 440 411 l 1,21,-1
 431 452 l 2,22,23
 420 499 420 499 410.5 536.5 c 128,-1,24
 401 574 401 574 395 611 c 1,25,26
 389 574 389 574 380 537 c 128,-1,27
 371 500 371 500 361 455 c 2,28,-1
 351 411 l 1,20,-1
EndSplineSet
Validated: 1
EndChar
StartChar: uni0469
Encoding: 1129 1129 533
Width: 600
GlyphClass: 2
Flags: W
LayerCount: 2
Fore
SplineSet
452 536 m 1,0,-1
 630 0 l 1,1,-1
 548 0 l 1,2,-1
 472 239 l 1,3,-1
 444 239 l 1,4,-1
 444 0 l 1,5,-1
 365 0 l 1,6,-1
 365 239 l 1,7,-1
 337 239 l 1,8,-1
 260 0 l 1,9,-1
 179 0 l 1,10,-1
 259 239 l 1,11,-1
 139 239 l 1,12,-1
 139 0 l 1,13,-1
 60 0 l 1,14,-1
 60 536 l 1,15,-1
 139 536 l 1,16,-1
 139 314 l 1,17,-1
 283 314 l 1,18,-1
 357 536 l 1,19,-1
 452 536 l 1,0,-1
397 445 m 128,-1,21
 392 424 392 424 385.5 400.5 c 128,-1,22
 379 377 379 377 372.5 354 c 128,-1,23
 366 331 366 331 360 314 c 1,24,-1
 449 314 l 1,25,26
 443 331 443 331 436.5 354 c 128,-1,27
 430 377 430 377 423.5 400.5 c 128,-1,28
 417 424 417 424 412 445 c 128,-1,29
 407 466 407 466 405 478 c 1,30,-1
 404 478 l 1,31,20
 402 466 402 466 397 445 c 128,-1,21
EndSplineSet
Validated: 1
EndChar
StartChar: uni046A
Encoding: 1130 1130 534
Width: 600
GlyphClass: 2
Flags: W
LayerCount: 2
Fore
SplineSet
0 0 m 1,0,-1
 55 221 l 2,1,2
 65 263 65 263 77 296 c 128,-1,3
 89 329 89 329 107.5 353 c 128,-1,4
 126 377 126 377 154 391 c 128,-1,5
 182 405 182 405 224 408 c 1,6,-1
 61 646 l 1,7,-1
 61 714 l 1,8,-1
 540 714 l 1,9,-1
 540 646 l 1,10,-1
 377 408 l 1,11,12
 420 405 420 405 448 391.5 c 128,-1,13
 476 378 476 378 494 354 c 128,-1,14
 512 330 512 330 523.5 296.5 c 128,-1,15
 535 263 535 263 545 221 c 2,16,-1
 600 0 l 1,17,-1
 517 0 l 1,18,-1
 462 219 l 2,19,20
 453 254 453 254 445 277.5 c 128,-1,21
 437 301 437 301 425 315 c 128,-1,22
 413 329 413 329 395.5 334.5 c 128,-1,23
 378 340 378 340 352 340 c 2,24,-1
 341 340 l 1,25,-1
 341 0 l 1,26,-1
 259 0 l 1,27,-1
 259 340 l 1,28,-1
 248 340 l 2,29,30
 222 340 222 340 205 334.5 c 128,-1,31
 188 329 188 329 176 315 c 128,-1,32
 164 301 164 301 155.5 277.5 c 128,-1,33
 147 254 147 254 138 219 c 2,34,-1
 83 0 l 1,35,-1
 0 0 l 1,0,-1
302 422 m 1,36,-1
 445 634 l 1,37,-1
 158 634 l 1,38,-1
 302 422 l 1,36,-1
EndSplineSet
Validated: 1
EndChar
StartChar: uni046B
Encoding: 1131 1131 535
Width: 600
GlyphClass: 2
Flags: W
LayerCount: 2
Fore
SplineSet
5 0 m 1,0,-1
 63 166 l 2,1,2
 73 196 73 196 83.5 220.5 c 128,-1,3
 94 245 94 245 110 264 c 128,-1,4
 126 283 126 283 150.5 295 c 128,-1,5
 175 307 175 307 214 311 c 1,6,-1
 69 485 l 1,7,-1
 69 536 l 1,8,-1
 532 536 l 1,9,-1
 532 485 l 1,10,-1
 385 311 l 1,11,12
 424 307 424 307 448.5 295 c 128,-1,13
 473 283 473 283 489 264.5 c 128,-1,14
 505 246 505 246 515.5 221 c 128,-1,15
 526 196 526 196 537 166 c 2,16,-1
 595 0 l 1,17,-1
 507 0 l 1,18,-1
 449 164 l 2,19,20
 439 190 439 190 430.5 208 c 128,-1,21
 422 226 422 226 410.5 236.5 c 128,-1,22
 399 247 399 247 383 251 c 128,-1,23
 367 255 367 255 342 255 c 2,24,-1
 340 255 l 1,25,-1
 340 0 l 1,26,-1
 260 0 l 1,27,-1
 260 255 l 1,28,-1
 258 255 l 2,29,30
 233 255 233 255 217 251 c 128,-1,31
 201 247 201 247 189 236.5 c 128,-1,32
 177 226 177 226 168.5 208 c 128,-1,33
 160 190 160 190 150 164 c 2,34,-1
 92 0 l 1,35,-1
 5 0 l 1,0,-1
299 314 m 1,36,-1
 419 461 l 1,37,-1
 181 461 l 1,38,-1
 299 314 l 1,36,-1
EndSplineSet
Validated: 1
EndChar
StartChar: uni046C
Encoding: 1132 1132 536
Width: 1229
GlyphClass: 2
Flags: W
LayerCount: 2
Back
Fore
SplineSet
352 0 m 1,0,-1
 408 453 l 2,1,2
 417 534 417 534 426.5 588 c 128,-1,3
 436 642 436 642 459 682 c 1,4,-1
 258 682 l 1,5,-1
 258 0 l 1,6,-1
 92 0 l 1,7,-1
 92 1462 l 1,8,-1
 258 1462 l 1,9,-1
 258 842 l 1,10,-1
 641 842 l 1,11,-1
 395 1323 l 1,12,-1
 395 1462 l 1,13,-1
 1221 1462 l 1,14,-1
 1221 1323 l 1,15,-1
 963 836 l 1,16,17
 1028 830 1028 830 1069.5 802 c 128,-1,18
 1111 774 1111 774 1137 725.5 c 128,-1,19
 1163 677 1163 677 1177.5 608.5 c 128,-1,20
 1192 540 1192 540 1202 453 c 2,21,-1
 1257 0 l 1,22,-1
 1087 0 l 1,23,-1
 1032 449 l 2,24,25
 1023 522 1023 522 1015 569.5 c 128,-1,26
 1007 617 1007 617 993 645 c 128,-1,27
 979 673 979 673 956 684.5 c 128,-1,28
 933 696 933 696 895 696 c 2,29,-1
 887 696 l 1,30,-1
 887 0 l 1,31,-1
 723 0 l 1,32,-1
 723 696 l 1,33,-1
 715 696 l 2,34,35
 676 696 676 696 653.5 684.5 c 128,-1,36
 631 673 631 673 617 645 c 128,-1,37
 603 617 603 617 595 569.5 c 128,-1,38
 587 522 587 522 578 449 c 2,39,-1
 522 0 l 1,40,-1
 352 0 l 1,0,-1
805 858 m 1,41,-1
 1028 1298 l 1,42,-1
 582 1298 l 1,43,-1
 805 858 l 1,41,-1
EndSplineSet
Validated: 1
EndChar
StartChar: uni046D
Encoding: 1133 1133 537
Width: 600
GlyphClass: 2
Flags: W
LayerCount: 2
Fore
SplineSet
181 0 m 1,0,-1
 217 166 l 2,1,2
 222 190 222 190 228.5 206.5 c 128,-1,3
 235 223 235 223 243 239 c 1,4,-1
 139 239 l 1,5,-1
 139 0 l 1,6,-1
 60 0 l 1,7,-1
 60 536 l 1,8,-1
 139 536 l 1,9,-1
 139 314 l 1,10,-1
 327 314 l 1,11,-1
 215 485 l 1,12,-1
 215 536 l 1,13,-1
 595 536 l 1,14,-1
 595 485 l 1,15,-1
 479 312 l 1,16,17
 509 308 509 308 528 296 c 128,-1,18
 547 284 547 284 559.5 265.5 c 128,-1,19
 572 247 572 247 579.5 221.5 c 128,-1,20
 587 196 587 196 594 166 c 2,21,-1
 630 0 l 1,22,-1
 550 0 l 1,23,-1
 514 164 l 2,24,25
 508 190 508 190 503.5 207.5 c 128,-1,26
 499 225 499 225 492 235.5 c 128,-1,27
 485 246 485 246 475 250.5 c 128,-1,28
 465 255 465 255 449 255 c 2,29,-1
 445 255 l 1,30,-1
 445 0 l 1,31,-1
 366 0 l 1,32,-1
 366 255 l 1,33,-1
 362 255 l 2,34,35
 346 255 346 255 336 250.5 c 128,-1,36
 326 246 326 246 319 235.5 c 128,-1,37
 312 225 312 225 307.5 207.5 c 128,-1,38
 303 190 303 190 297 164 c 2,39,-1
 260 0 l 1,40,-1
 181 0 l 1,0,-1
405 314 m 1,41,-1
 499 461 l 1,42,-1
 310 461 l 1,43,-1
 405 314 l 1,41,-1
EndSplineSet
Validated: 1
EndChar
StartChar: uni046E
Encoding: 1134 1134 538
Width: 1229
GlyphClass: 2
Flags: W
LayerCount: 2
Back
Fore
SplineSet
541 -20 m 0,0,1
 470 -20 470 -20 424.5 -29 c 128,-1,2
 379 -38 379 -38 353 -54 c 128,-1,3
 327 -70 327 -70 317 -90.5 c 128,-1,4
 307 -111 307 -111 307 -135 c 0,5,6
 307 -157 307 -157 314 -175 c 128,-1,7
 321 -193 321 -193 339 -206 c 128,-1,8
 357 -219 357 -219 387.5 -226 c 128,-1,9
 418 -233 418 -233 465 -233 c 0,10,11
 530 -233 530 -233 578.5 -231 c 128,-1,12
 627 -229 627 -229 669 -227 c 128,-1,13
 711 -225 711 -225 751.5 -223 c 128,-1,14
 792 -221 792 -221 842 -221 c 0,15,16
 928 -221 928 -221 975 -233 c 128,-1,17
 1022 -245 1022 -245 1047 -260 c 1,18,-1
 1047 -442 l 1,19,20
 1039 -435 1039 -435 1023 -426 c 128,-1,21
 1007 -417 1007 -417 980.5 -409 c 128,-1,22
 954 -401 954 -401 915 -395 c 128,-1,23
 876 -389 876 -389 823 -389 c 0,24,25
 774 -389 774 -389 738.5 -390.5 c 128,-1,26
 703 -392 703 -392 666 -393.5 c 128,-1,27
 629 -395 629 -395 583 -396 c 128,-1,28
 537 -397 537 -397 467 -397 c 0,29,30
 363 -397 363 -397 295.5 -376.5 c 128,-1,31
 228 -356 228 -356 188 -320 c 128,-1,32
 148 -284 148 -284 132.5 -236 c 128,-1,33
 117 -188 117 -188 117 -133 c 0,34,35
 117 -73 117 -73 141.5 -24 c 128,-1,36
 166 25 166 25 217 60 c 128,-1,37
 268 95 268 95 346.5 114 c 128,-1,38
 425 133 425 133 532 133 c 0,39,40
 621 133 621 133 685 152 c 128,-1,41
 749 171 749 171 789.5 207 c 128,-1,42
 830 243 830 243 849 296 c 128,-1,43
 868 349 868 349 868 416 c 0,44,45
 868 487 868 487 840 537.5 c 128,-1,46
 812 588 812 588 760 619.5 c 128,-1,47
 708 651 708 651 636 665.5 c 128,-1,48
 564 680 564 680 475 680 c 2,49,-1
 285 680 l 1,50,-1
 285 831 l 1,51,-1
 461 831 l 2,52,53
 553 831 553 831 624 850.5 c 128,-1,54
 695 870 695 870 743.5 906 c 128,-1,55
 792 942 792 942 817 992.5 c 128,-1,56
 842 1043 842 1043 842 1104 c 0,57,58
 842 1158 842 1158 823 1199.5 c 128,-1,59
 804 1241 804 1241 770 1270 c 128,-1,60
 736 1299 736 1299 688.5 1314 c 128,-1,61
 641 1329 641 1329 584 1329 c 0,62,63
 529 1329 529 1329 480.5 1320 c 128,-1,64
 432 1311 432 1311 389 1295.5 c 128,-1,65
 346 1280 346 1280 306.5 1257.5 c 128,-1,66
 267 1235 267 1235 229 1208 c 1,67,-1
 137 1333 l 1,68,69
 196 1381 196 1381 279.5 1418.5 c 128,-1,70
 363 1456 363 1456 465 1473 c 1,71,72
 441 1503 441 1503 413.5 1536 c 128,-1,73
 386 1569 386 1569 359 1600.5 c 128,-1,74
 332 1632 332 1632 307 1660.5 c 128,-1,75
 282 1689 282 1689 262 1712 c 1,76,-1
 262 1739 l 1,77,-1
 383 1739 l 1,78,79
 434 1705 434 1705 483 1656.5 c 128,-1,80
 532 1608 532 1608 586 1552 c 1,81,82
 612 1588 612 1588 641 1623 c 128,-1,83
 670 1658 670 1658 703.5 1686 c 128,-1,84
 737 1714 737 1714 774.5 1731.5 c 128,-1,85
 812 1749 812 1749 854 1749 c 0,86,87
 885 1749 885 1749 908.5 1744.5 c 128,-1,88
 932 1740 932 1740 946 1735 c 1,89,-1
 946 1616 l 1,90,91
 935 1621 935 1621 918.5 1624.5 c 128,-1,92
 902 1628 902 1628 885 1628 c 0,93,94
 863 1628 863 1628 838.5 1616.5 c 128,-1,95
 814 1605 814 1605 790 1584.5 c 128,-1,96
 766 1564 766 1564 743 1536 c 128,-1,97
 720 1508 720 1508 700 1475 c 1,98,99
 783 1462 783 1462 845.5 1430.5 c 128,-1,100
 908 1399 908 1399 950.5 1353 c 128,-1,101
 993 1307 993 1307 1014.5 1248 c 128,-1,102
 1036 1189 1036 1189 1036 1120 c 0,103,104
 1036 1047 1036 1047 1010.5 987 c 128,-1,105
 985 927 985 927 939.5 883 c 128,-1,106
 894 839 894 839 831.5 810.5 c 128,-1,107
 769 782 769 782 694 770 c 1,108,-1
 694 764 l 1,109,110
 782 753 782 753 850.5 724.5 c 128,-1,111
 919 696 919 696 966.5 651.5 c 128,-1,112
 1014 607 1014 607 1038.5 547.5 c 128,-1,113
 1063 488 1063 488 1063 416 c 0,114,115
 1063 320 1063 320 1030 240 c 128,-1,116
 997 160 997 160 931 102 c 128,-1,117
 865 44 865 44 767.5 12 c 128,-1,118
 670 -20 670 -20 541 -20 c 0,0,1
EndSplineSet
Validated: 1
EndChar
StartChar: uni046F
Encoding: 1135 1135 539
Width: 1229
GlyphClass: 2
Flags: W
LayerCount: 2
Back
Fore
SplineSet
893 1362 m 0,0,1
 915 1362 915 1362 930.5 1360 c 128,-1,2
 946 1358 946 1358 963 1352 c 1,3,-1
 963 1235 l 1,4,5
 949 1238 949 1238 938 1239.5 c 128,-1,6
 927 1241 927 1241 913 1241 c 0,7,8
 867 1241 867 1241 821 1203.5 c 128,-1,9
 775 1166 775 1166 733 1104 c 1,10,11
 792 1092 792 1092 841 1069 c 128,-1,12
 890 1046 890 1046 924.5 1012 c 128,-1,13
 959 978 959 978 978 932 c 128,-1,14
 997 886 997 886 997 827 c 0,15,16
 997 777 997 777 983 738 c 128,-1,17
 969 699 969 699 944 669.5 c 128,-1,18
 919 640 919 640 883.5 619.5 c 128,-1,19
 848 599 848 599 805 586 c 1,20,-1
 805 575 l 1,21,22
 852 562 852 562 893.5 540.5 c 128,-1,23
 935 519 935 519 965.5 486 c 128,-1,24
 996 453 996 453 1014 407 c 128,-1,25
 1032 361 1032 361 1032 299 c 0,26,27
 1032 232 1032 232 1004.5 173.5 c 128,-1,28
 977 115 977 115 916.5 72 c 128,-1,29
 856 29 856 29 760.5 4.5 c 128,-1,30
 665 -20 665 -20 530 -20 c 0,31,32
 456 -20 456 -20 411.5 -27 c 128,-1,33
 367 -34 367 -34 343.5 -47 c 128,-1,34
 320 -60 320 -60 312.5 -79 c 128,-1,35
 305 -98 305 -98 305 -121 c 0,36,37
 305 -143 305 -143 312.5 -160.5 c 128,-1,38
 320 -178 320 -178 338.5 -190 c 128,-1,39
 357 -202 357 -202 389 -208.5 c 128,-1,40
 421 -215 421 -215 469 -215 c 0,41,42
 523 -215 523 -215 577.5 -213.5 c 128,-1,43
 632 -212 632 -212 683 -210 c 128,-1,44
 734 -208 734 -208 779 -206.5 c 128,-1,45
 824 -205 824 -205 860 -205 c 0,46,47
 932 -205 932 -205 971 -216 c 128,-1,48
 1010 -227 1010 -227 1024 -246 c 1,49,-1
 1024 -397 l 1,50,51
 1014 -387 1014 -387 996 -379.5 c 128,-1,52
 978 -372 978 -372 956.5 -367 c 128,-1,53
 935 -362 935 -362 912 -359 c 128,-1,54
 889 -356 889 -356 868 -356 c 0,55,56
 834 -356 834 -356 788 -357.5 c 128,-1,57
 742 -359 742 -359 688 -360.5 c 128,-1,58
 634 -362 634 -362 574.5 -363.5 c 128,-1,59
 515 -365 515 -365 455 -365 c 0,60,61
 360 -365 360 -365 299 -343.5 c 128,-1,62
 238 -322 238 -322 203.5 -287.5 c 128,-1,63
 169 -253 169 -253 156 -209.5 c 128,-1,64
 143 -166 143 -166 143 -121 c 0,65,66
 143 -70 143 -70 160.5 -25 c 128,-1,67
 178 20 178 20 220.5 53.5 c 128,-1,68
 263 87 263 87 335.5 107 c 128,-1,69
 408 127 408 127 518 127 c 0,70,71
 599 127 599 127 661.5 136.5 c 128,-1,72
 724 146 724 146 766.5 167.5 c 128,-1,73
 809 189 809 189 831.5 223.5 c 128,-1,74
 854 258 854 258 854 309 c 0,75,76
 854 403 854 403 777 448.5 c 128,-1,77
 700 494 700 494 541 494 c 2,78,-1
 393 494 l 1,79,-1
 393 647 l 1,80,-1
 514 647 l 2,81,82
 573 647 573 647 628.5 652.5 c 128,-1,83
 684 658 684 658 727 675.5 c 128,-1,84
 770 693 770 693 796.5 726 c 128,-1,85
 823 759 823 759 823 813 c 0,86,87
 823 890 823 890 758.5 928.5 c 128,-1,88
 694 967 694 967 573 967 c 0,89,90
 494 967 494 967 420.5 948 c 128,-1,91
 347 929 347 929 264 895 c 1,92,-1
 201 1042 l 1,93,94
 263 1070 263 1070 322 1087 c 128,-1,95
 381 1104 381 1104 451 1112 c 1,96,97
 430 1140 430 1140 406.5 1168.5 c 128,-1,98
 383 1197 383 1197 359 1225 c 128,-1,99
 335 1253 335 1253 312.5 1278.5 c 128,-1,100
 290 1304 290 1304 270 1325 c 1,101,-1
 270 1352 l 1,102,-1
 391 1352 l 1,103,104
 445 1317 445 1317 495.5 1269 c 128,-1,105
 546 1221 546 1221 602 1165 c 1,106,107
 630 1199 630 1199 660.5 1234 c 128,-1,108
 691 1269 691 1269 726.5 1297.5 c 128,-1,109
 762 1326 762 1326 803.5 1344 c 128,-1,110
 845 1362 845 1362 893 1362 c 0,0,1
EndSplineSet
EndChar
StartChar: uni0472
Encoding: 1138 1138 542
Width: 600
GlyphClass: 2
Flags: W
LayerCount: 2
Fore
SplineSet
560 358 m 0,0,1
 560 275 560 275 544.5 207.5 c 128,-1,2
 529 140 529 140 496.5 91.5 c 128,-1,3
 464 43 464 43 415.5 16.5 c 128,-1,4
 367 -10 367 -10 301 -10 c 0,5,6
 232 -10 232 -10 182.5 16.5 c 128,-1,7
 133 43 133 43 101.5 91.5 c 128,-1,8
 70 140 70 140 55.5 208 c 128,-1,9
 41 276 41 276 41 359 c 256,10,11
 41 442 41 442 55.5 509.5 c 128,-1,12
 70 577 70 577 101.5 625 c 128,-1,13
 133 673 133 673 182.5 699 c 128,-1,14
 232 725 232 725 302 725 c 0,15,16
 368 725 368 725 416.5 699 c 128,-1,17
 465 673 465 673 497 625 c 128,-1,18
 529 577 529 577 544.5 509 c 128,-1,19
 560 441 560 441 560 358 c 0,0,1
301 70 m 0,20,21
 343 70 343 70 373 87 c 128,-1,22
 403 104 403 104 422.5 137 c 128,-1,23
 442 170 442 170 451.5 217.5 c 128,-1,24
 461 265 461 265 463 324 c 1,25,-1
 138 324 l 1,26,27
 140 264 140 264 150 217 c 128,-1,28
 160 170 160 170 179.5 137 c 128,-1,29
 199 104 199 104 229 87 c 128,-1,30
 259 70 259 70 301 70 c 0,20,21
302 645 m 0,31,32
 260 645 260 645 230.5 628.5 c 128,-1,33
 201 612 201 612 181 581 c 128,-1,34
 161 550 161 550 151 505 c 128,-1,35
 141 460 141 460 138 403 c 1,36,-1
 463 403 l 1,37,38
 461 460 461 460 450.5 505 c 128,-1,39
 440 550 440 550 420.5 581 c 128,-1,40
 401 612 401 612 372 628.5 c 128,-1,41
 343 645 343 645 302 645 c 0,31,32
EndSplineSet
Validated: 1
EndChar
StartChar: uni0473
Encoding: 1139 1139 543
Width: 600
GlyphClass: 2
Flags: W
LayerCount: 2
Fore
SplineSet
543 269 m 0,0,1
 543 202 543 202 525 150 c 128,-1,2
 507 98 507 98 474.5 62.5 c 128,-1,3
 442 27 442 27 397 8.5 c 128,-1,4
 352 -10 352 -10 298 -10 c 0,5,6
 248 -10 248 -10 204 8.5 c 128,-1,7
 160 27 160 27 127 62.5 c 128,-1,8
 94 98 94 98 75 150 c 128,-1,9
 56 202 56 202 56 269 c 0,10,11
 56 335 56 335 74 386.5 c 128,-1,12
 92 438 92 438 124 473.5 c 128,-1,13
 156 509 156 509 201.5 527.5 c 128,-1,14
 247 546 247 546 301 546 c 0,15,16
 351 546 351 546 395 527.5 c 128,-1,17
 439 509 439 509 472 473.5 c 128,-1,18
 505 438 505 438 524 386.5 c 128,-1,19
 543 335 543 335 543 269 c 0,0,1
300 64 m 0,20,21
 438 64 438 64 450 238 c 1,22,-1
 149 238 l 1,23,24
 154 151 154 151 192.5 107.5 c 128,-1,25
 231 64 231 64 300 64 c 0,20,21
299 472 m 256,26,27
 166 472 166 472 150 313 c 1,28,-1
 449 313 l 1,29,30
 432 472 432 472 299 472 c 256,26,27
EndSplineSet
Validated: 1
EndChar
StartChar: uni0474
Encoding: 1140 1140 544
Width: 1229
GlyphClass: 2
Flags: W
LayerCount: 2
Back
Fore
SplineSet
1204 1325 m 0,0,1
 1169 1325 1169 1325 1142.5 1306.5 c 128,-1,2
 1116 1288 1116 1288 1095 1252 c 128,-1,3
 1074 1216 1074 1216 1056 1164.5 c 128,-1,4
 1038 1113 1038 1113 1020 1047 c 2,5,-1
 723 0 l 1,6,-1
 514 0 l 1,7,-1
 63 1462 l 1,8,-1
 260 1462 l 1,9,-1
 526 547 l 2,10,11
 552 454 552 454 574.5 361.5 c 128,-1,12
 597 269 597 269 614 190 c 1,13,14
 628 268 628 268 649 362 c 128,-1,15
 670 456 670 456 696 553 c 2,16,-1
 838 1065 l 2,17,18
 870 1178 870 1178 900 1256 c 128,-1,19
 930 1334 930 1334 968 1383 c 128,-1,20
 1006 1432 1006 1432 1057.5 1453.5 c 128,-1,21
 1109 1475 1109 1475 1184 1475 c 0,22,23
 1219 1475 1219 1475 1253 1468.5 c 128,-1,24
 1287 1462 1287 1462 1313 1454 c 1,25,-1
 1313 1303 l 1,26,27
 1290 1312 1290 1312 1263 1318.5 c 128,-1,28
 1236 1325 1236 1325 1204 1325 c 0,0,1
EndSplineSet
Validated: 1
EndChar
StartChar: uni0475
Encoding: 1141 1141 545
Width: 600
GlyphClass: 2
Flags: W
LayerCount: 2
Fore
SplineSet
40 536 m 1,0,-1
 132 536 l 1,1,-1
 241 240 l 2,2,3
 245 229 245 229 250 214 c 128,-1,4
 255 199 255 199 261 182 c 128,-1,5
 267 165 267 165 273 146.5 c 128,-1,6
 279 128 279 128 284 112 c 128,-1,7
 289 96 289 96 292.5 82 c 128,-1,8
 296 68 296 68 298 59 c 1,9,-1
 301 59 l 1,10,11
 304 74 304 74 310 96.5 c 128,-1,12
 316 119 316 119 323.5 144 c 128,-1,13
 331 169 331 169 338.5 194 c 128,-1,14
 346 219 346 219 352 237 c 2,15,-1
 402 393 l 2,16,17
 417 438 417 438 429.5 467 c 128,-1,18
 442 496 442 496 458 512 c 128,-1,19
 474 528 474 528 494.5 534 c 128,-1,20
 515 540 515 540 544 540 c 0,21,22
 557 540 557 540 567.5 538.5 c 128,-1,23
 578 537 578 537 585 535 c 1,24,-1
 585 469 l 1,25,26
 580 470 580 470 572 471.5 c 128,-1,27
 564 473 564 473 555 473 c 0,28,29
 542 473 542 473 532.5 468.5 c 128,-1,30
 523 464 523 464 515 454 c 128,-1,31
 507 444 507 444 500 428.5 c 128,-1,32
 493 413 493 413 486 390 c 2,33,-1
 356 0 l 1,34,-1
 243 0 l 1,35,-1
 40 536 l 1,0,-1
EndSplineSet
Validated: 1
EndChar
StartChar: uni0478
Encoding: 1144 1144 548
Width: 600
GlyphClass: 2
Flags: W
LayerCount: 2
Fore
SplineSet
302 358 m 0,0,1
 302 269 302 269 298 200.5 c 128,-1,2
 294 132 294 132 280.5 85.5 c 128,-1,3
 267 39 267 39 240 14.5 c 128,-1,4
 213 -10 213 -10 168 -10 c 256,5,6
 123 -10 123 -10 96 14 c 128,-1,7
 69 38 69 38 55.5 85 c 128,-1,8
 42 132 42 132 38 201 c 128,-1,9
 34 270 34 270 34 359 c 0,10,11
 34 445 34 445 38 513.5 c 128,-1,12
 42 582 42 582 56 629 c 128,-1,13
 70 676 70 676 96.5 700.5 c 128,-1,14
 123 725 123 725 169 725 c 0,15,16
 214 725 214 725 240.5 700.5 c 128,-1,17
 267 676 267 676 280.5 629 c 128,-1,18
 294 582 294 582 298 513.5 c 128,-1,19
 302 445 302 445 302 358 c 0,0,1
111 358 m 256,20,21
 111 291 111 291 113.5 237.5 c 128,-1,22
 116 184 116 184 122 146.5 c 128,-1,23
 128 109 128 109 139.5 89.5 c 128,-1,24
 151 70 151 70 168 70 c 0,25,26
 186 70 186 70 197 89.5 c 128,-1,27
 208 109 208 109 214 146.5 c 128,-1,28
 220 184 220 184 222.5 237.5 c 128,-1,29
 225 291 225 291 225 358 c 256,30,31
 225 425 225 425 223 478.5 c 128,-1,32
 221 532 221 532 214.5 568.5 c 128,-1,33
 208 605 208 605 197 625 c 128,-1,34
 186 645 186 645 169 645 c 0,35,36
 151 645 151 645 140 625 c 128,-1,37
 129 605 129 605 122.5 568.5 c 128,-1,38
 116 532 116 532 113.5 478.5 c 128,-1,39
 111 425 111 425 111 358 c 256,20,21
322 536 m 1,40,-1
 398 536 l 1,41,-1
 447 239 l 2,42,43
 449 228 449 228 451 214 c 128,-1,44
 453 200 453 200 455.5 185 c 128,-1,45
 458 170 458 170 459.5 155 c 128,-1,46
 461 140 461 140 463 125 c 1,47,-1
 465 125 l 1,48,49
 466 137 466 137 467 152 c 128,-1,50
 468 167 468 167 470 183 c 128,-1,51
 472 199 472 199 473.5 213.5 c 128,-1,52
 475 228 475 228 477 239 c 2,53,-1
 529 536 l 1,54,-1
 605 536 l 1,55,-1
 487 -82 l 2,56,57
 480 -120 480 -120 469.5 -149.5 c 128,-1,58
 459 -179 459 -179 444 -199 c 128,-1,59
 429 -219 429 -219 407.5 -229.5 c 128,-1,60
 386 -240 386 -240 356 -240 c 0,61,62
 338 -240 338 -240 326 -237.5 c 128,-1,63
 314 -235 314 -235 304 -232 c 1,64,-1
 304 -161 l 1,65,66
 314 -163 314 -163 325.5 -165 c 128,-1,67
 337 -167 337 -167 349 -167 c 0,68,69
 373 -167 373 -167 388.5 -146 c 128,-1,70
 404 -125 404 -125 413 -76 c 2,71,-1
 425 -10 l 1,72,-1
 322 536 l 1,40,-1
EndSplineSet
Validated: 1
EndChar
StartChar: uni0479
Encoding: 1145 1145 549
Width: 600
GlyphClass: 2
Flags: W
LayerCount: 2
Fore
SplineSet
306 269 m 256,0,1
 306 187 306 187 297 133 c 128,-1,2
 288 79 288 79 270.5 47.5 c 128,-1,3
 253 16 253 16 228 3 c 128,-1,4
 203 -10 203 -10 172 -10 c 0,5,6
 142 -10 142 -10 117.5 3 c 128,-1,7
 93 16 93 16 75.5 47.5 c 128,-1,8
 58 79 58 79 48.5 133 c 128,-1,9
 39 187 39 187 39 269 c 256,10,11
 39 351 39 351 49 404.5 c 128,-1,12
 59 458 59 458 76.5 489.5 c 128,-1,13
 94 521 94 521 119 533.5 c 128,-1,14
 144 546 144 546 173 546 c 0,15,16
 201 546 201 546 225.5 533.5 c 128,-1,17
 250 521 250 521 267.5 489.5 c 128,-1,18
 285 458 285 458 295.5 404.5 c 128,-1,19
 306 351 306 351 306 269 c 256,0,1
116 269 m 0,20,21
 116 166 116 166 130.5 115 c 128,-1,22
 145 64 145 64 173 64 c 0,23,24
 230 64 230 64 230 269 c 0,25,26
 230 372 230 372 215.5 422 c 128,-1,27
 201 472 201 472 173 472 c 0,28,29
 116 472 116 472 116 269 c 0,20,21
317 536 m 1,30,-1
 393 536 l 1,31,-1
 442 239 l 2,32,33
 444 228 444 228 446 214 c 128,-1,34
 448 200 448 200 450.5 185 c 128,-1,35
 453 170 453 170 455 155 c 128,-1,36
 457 140 457 140 458 125 c 1,37,-1
 460 125 l 1,38,39
 461 137 461 137 462 152 c 128,-1,40
 463 167 463 167 464.5 183 c 128,-1,41
 466 199 466 199 468 213.5 c 128,-1,42
 470 228 470 228 472 239 c 2,43,-1
 524 536 l 1,44,-1
 600 536 l 1,45,-1
 482 -82 l 2,46,47
 475 -120 475 -120 465 -149.5 c 128,-1,48
 455 -179 455 -179 439.5 -199 c 128,-1,49
 424 -219 424 -219 402.5 -229.5 c 128,-1,50
 381 -240 381 -240 351 -240 c 0,51,52
 333 -240 333 -240 321.5 -237.5 c 128,-1,53
 310 -235 310 -235 299 -232 c 1,54,-1
 299 -161 l 1,55,56
 309 -163 309 -163 320.5 -165 c 128,-1,57
 332 -167 332 -167 344 -167 c 0,58,59
 368 -167 368 -167 383.5 -146 c 128,-1,60
 399 -125 399 -125 408 -76 c 2,61,-1
 420 -10 l 1,62,-1
 317 536 l 1,30,-1
EndSplineSet
Validated: 1
EndChar
StartChar: uni047A
Encoding: 1146 1146 550
Width: 600
GlyphClass: 2
Flags: W
LayerCount: 2
Fore
SplineSet
560 358 m 0,0,1
 560 287 560 287 548.5 226.5 c 128,-1,2
 537 166 537 166 513 119.5 c 128,-1,3
 489 73 489 73 453 42.5 c 128,-1,4
 417 12 417 12 369 -1 c 1,5,6
 362 -31 362 -31 344 -44 c 128,-1,7
 326 -57 326 -57 300 -57 c 0,8,9
 272 -57 272 -57 254.5 -44 c 128,-1,10
 237 -31 237 -31 230 -1 c 1,11,12
 180 12 180 12 144 42.5 c 128,-1,13
 108 73 108 73 85 119.5 c 128,-1,14
 62 166 62 166 51.5 226.5 c 128,-1,15
 41 287 41 287 41 359 c 0,16,17
 41 430 41 430 51.5 490 c 128,-1,18
 62 550 62 550 85 596.5 c 128,-1,19
 108 643 108 643 144 673.5 c 128,-1,20
 180 704 180 704 230 716 c 1,21,22
 237 746 237 746 254 758 c 128,-1,23
 271 770 271 770 300 770 c 0,24,25
 326 770 326 770 344 758 c 128,-1,26
 362 746 362 746 369 717 c 1,27,28
 417 704 417 704 453 673.5 c 128,-1,29
 489 643 489 643 513 596.5 c 128,-1,30
 537 550 537 550 548.5 490 c 128,-1,31
 560 430 560 430 560 358 c 0,0,1
137 358 m 256,32,33
 137 305 137 305 142.5 260.5 c 128,-1,34
 148 216 148 216 159.5 181.5 c 128,-1,35
 171 147 171 147 189.5 122.5 c 128,-1,36
 208 98 208 98 234 84 c 1,37,38
 242 106 242 106 258.5 115 c 128,-1,39
 275 124 275 124 300 124 c 0,40,41
 323 124 323 124 340 114.5 c 128,-1,42
 357 105 357 105 365 83 c 1,43,44
 392 96 392 96 411 120.5 c 128,-1,45
 430 145 430 145 441.5 179.5 c 128,-1,46
 453 214 453 214 458.5 259 c 128,-1,47
 464 304 464 304 464 358 c 256,48,49
 464 412 464 412 458.5 456.5 c 128,-1,50
 453 501 453 501 441.5 536 c 128,-1,51
 430 571 430 571 411 595 c 128,-1,52
 392 619 392 619 365 632 c 1,53,54
 357 609 357 609 340 599 c 128,-1,55
 323 589 323 589 300 589 c 0,56,57
 275 589 275 589 258 598 c 128,-1,58
 241 607 241 607 233 630 c 1,59,60
 207 617 207 617 189 592 c 128,-1,61
 171 567 171 567 159.5 533 c 128,-1,62
 148 499 148 499 142.5 455 c 128,-1,63
 137 411 137 411 137 358 c 256,32,33
EndSplineSet
Validated: 1
EndChar
StartChar: uni047B
Encoding: 1147 1147 551
Width: 1229
GlyphClass: 2
Flags: W
LayerCount: 2
Back
Fore
SplineSet
1112 551 m 0,0,1
 1112 434 1112 434 1085 340 c 128,-1,2
 1058 246 1058 246 1009 175.5 c 128,-1,3
 960 105 960 105 890.5 59 c 128,-1,4
 821 13 821 13 735 -6 c 1,5,6
 726 -60 726 -60 696 -82 c 128,-1,7
 666 -104 666 -104 612 -104 c 0,8,9
 554 -104 554 -104 524.5 -82 c 128,-1,10
 495 -60 495 -60 487 -6 c 1,11,12
 406 14 406 14 338 60 c 128,-1,13
 270 106 270 106 220.5 176.5 c 128,-1,14
 171 247 171 247 143 341 c 128,-1,15
 115 435 115 435 115 551 c 0,16,17
 115 666 115 666 141.5 759.5 c 128,-1,18
 168 853 168 853 216.5 923.5 c 128,-1,19
 265 994 265 994 334 1039.5 c 128,-1,20
 403 1085 403 1085 487 1104 c 1,21,22
 497 1158 497 1158 526 1178 c 128,-1,23
 555 1198 555 1198 612 1198 c 0,24,25
 639 1198 639 1198 660 1193.5 c 128,-1,26
 681 1189 681 1189 696 1178.5 c 128,-1,27
 711 1168 711 1168 721 1150 c 128,-1,28
 731 1132 731 1132 735 1104 c 1,29,30
 816 1085 816 1085 885.5 1039.5 c 128,-1,31
 955 994 955 994 1005 923.5 c 128,-1,32
 1055 853 1055 853 1083.5 759.5 c 128,-1,33
 1112 666 1112 666 1112 551 c 0,0,1
303 551 m 0,34,35
 303 223 303 223 494 152 c 1,36,37
 505 190 505 190 533 204.5 c 128,-1,38
 561 219 561 219 612 219 c 0,39,40
 660 219 660 219 688.5 203.5 c 128,-1,41
 717 188 717 188 729 150 c 1,42,43
 924 221 924 221 924 551 c 0,44,45
 924 716 924 716 874.5 814.5 c 128,-1,46
 825 913 825 913 729 948 c 1,47,48
 717 906 717 906 688.5 891.5 c 128,-1,49
 660 877 660 877 612 877 c 0,50,51
 561 877 561 877 533.5 892.5 c 128,-1,52
 506 908 506 908 494 948 c 1,53,54
 303 877 303 877 303 551 c 0,34,35
EndSplineSet
EndChar
StartChar: uni047C
Encoding: 1148 1148 552
Width: 1229
GlyphClass: 2
Flags: W
LayerCount: 2
Back
Fore
SplineSet
989 1995 m 1,0,-1
 989 1866 l 1,1,-1
 975 1866 l 2,2,3
 895 1866 895 1866 827.5 1884 c 128,-1,4
 760 1902 760 1902 703 1923 c 128,-1,5
 646 1944 646 1944 599 1962 c 128,-1,6
 552 1980 552 1980 514 1980 c 0,7,8
 471 1980 471 1980 443.5 1957.5 c 128,-1,9
 416 1935 416 1935 416 1882 c 2,10,-1
 416 1866 l 1,11,-1
 283 1866 l 1,12,-1
 283 1901 l 2,13,14
 283 2008 283 2008 342 2058.5 c 128,-1,15
 401 2109 401 2109 504 2109 c 0,16,17
 558 2109 558 2109 611 2091 c 128,-1,18
 664 2073 664 2073 720 2052 c 128,-1,19
 776 2031 776 2031 838.5 2013 c 128,-1,20
 901 1995 901 1995 975 1995 c 2,21,-1
 989 1995 l 1,0,-1
743 1769 m 0,22,23
 743 1692 743 1692 683.5 1634.5 c 128,-1,24
 624 1577 624 1577 502 1546 c 1,25,-1
 502 1622 l 1,26,27
 562 1644 562 1644 590 1666.5 c 128,-1,28
 618 1689 618 1689 618 1714 c 0,29,30
 618 1733 618 1733 602.5 1742 c 128,-1,31
 587 1751 587 1751 569 1759 c 128,-1,32
 551 1767 551 1767 535.5 1780 c 128,-1,33
 520 1793 520 1793 520 1821 c 0,34,35
 520 1858 520 1858 545 1877 c 128,-1,36
 570 1896 570 1896 616 1896 c 0,37,38
 675 1896 675 1896 709 1861 c 128,-1,39
 743 1826 743 1826 743 1769 c 0,22,23
618 266 m 1,40,41
 654 209 654 209 699 176 c 128,-1,42
 744 143 744 143 795 143 c 0,43,44
 843 143 843 143 876.5 187.5 c 128,-1,45
 910 232 910 232 931 314 c 128,-1,46
 952 396 952 396 961.5 510.5 c 128,-1,47
 971 625 971 625 971 766 c 0,48,49
 971 1041 971 1041 932 1179 c 128,-1,50
 893 1317 893 1317 827 1317 c 0,51,52
 772 1317 772 1317 731 1288 c 1,53,-1
 684 1440 l 1,54,55
 718 1463 718 1463 762 1472 c 128,-1,56
 806 1481 806 1481 854 1481 c 0,57,58
 1000 1481 1000 1481 1073.5 1301.5 c 128,-1,59
 1147 1122 1147 1122 1147 764 c 0,60,61
 1147 572 1147 572 1130 425.5 c 128,-1,62
 1113 279 1113 279 1074 180 c 128,-1,63
 1035 81 1035 81 971 30.5 c 128,-1,64
 907 -20 907 -20 813 -20 c 0,65,66
 780 -20 780 -20 753 -15.5 c 128,-1,67
 726 -11 726 -11 703 -1 c 128,-1,68
 680 9 680 9 658.5 25.5 c 128,-1,69
 637 42 637 42 614 66 c 1,70,71
 592 42 592 42 571 25.5 c 128,-1,72
 550 9 550 9 527 -1 c 128,-1,73
 504 -11 504 -11 477.5 -15.5 c 128,-1,74
 451 -20 451 -20 418 -20 c 0,75,76
 324 -20 324 -20 260 30.5 c 128,-1,77
 196 81 196 81 156.5 180 c 128,-1,78
 117 279 117 279 99.5 425.5 c 128,-1,79
 82 572 82 572 82 764 c 0,80,81
 82 1122 82 1122 155.5 1301.5 c 128,-1,82
 229 1481 229 1481 375 1481 c 0,83,84
 423 1481 423 1481 467 1472 c 128,-1,85
 511 1463 511 1463 545 1440 c 1,86,-1
 498 1288 l 1,87,88
 457 1317 457 1317 401 1317 c 0,89,90
 335 1317 335 1317 296.5 1179 c 128,-1,91
 258 1041 258 1041 258 766 c 0,92,93
 258 625 258 625 267.5 510.5 c 128,-1,94
 277 396 277 396 298.5 314 c 128,-1,95
 320 232 320 232 354 187.5 c 128,-1,96
 388 143 388 143 436 143 c 0,97,98
 463 143 463 143 485.5 151.5 c 128,-1,99
 508 160 508 160 528.5 176 c 128,-1,100
 549 192 549 192 569 215 c 128,-1,101
 589 238 589 238 610 266 c 1,102,-1
 618 266 l 1,40,41
EndSplineSet
Validated: 1
EndChar
StartChar: uni047D
Encoding: 1149 1149 553
Width: 600
GlyphClass: 2
Flags: W
LayerCount: 2
Fore
SplineSet
389 -10 m 0,0,1
 359 -10 359 -10 336.5 -1.5 c 128,-1,2
 314 7 314 7 299 23 c 1,3,4
 283 7 283 7 261.5 -1.5 c 128,-1,5
 240 -10 240 -10 211 -10 c 0,6,7
 174 -10 174 -10 143 5 c 128,-1,8
 112 20 112 20 89.5 52 c 128,-1,9
 67 84 67 84 55 136.5 c 128,-1,10
 43 189 43 189 43 265 c 0,11,12
 43 342 43 342 52.5 395.5 c 128,-1,13
 62 449 62 449 81 482.5 c 128,-1,14
 100 516 100 516 126.5 531 c 128,-1,15
 153 546 153 546 186 546 c 0,16,17
 208 546 208 546 231.5 541 c 128,-1,18
 255 536 255 536 272 524 c 1,19,-1
 247 453 l 1,20,21
 223 468 223 468 193 468 c 0,22,23
 157 468 157 468 140.5 419 c 128,-1,24
 124 370 124 370 124 266 c 0,25,26
 124 163 124 163 149 115.5 c 128,-1,27
 174 68 174 68 220 68 c 0,28,29
 233 68 233 68 244 71.5 c 128,-1,30
 255 75 255 75 265 80.5 c 128,-1,31
 275 86 275 86 283.5 93.5 c 128,-1,32
 292 101 292 101 299 109 c 1,33,34
 307 101 307 101 315.5 93.5 c 128,-1,35
 324 86 324 86 333.5 80.5 c 128,-1,36
 343 75 343 75 354.5 71.5 c 128,-1,37
 366 68 366 68 380 68 c 0,38,39
 426 68 426 68 450.5 115.5 c 128,-1,40
 475 163 475 163 475 266 c 0,41,42
 475 370 475 370 458.5 419 c 128,-1,43
 442 468 442 468 406 468 c 0,44,45
 378 468 378 468 353 453 c 1,46,-1
 328 524 l 1,47,48
 345 536 345 536 368 541 c 128,-1,49
 391 546 391 546 413 546 c 0,50,51
 447 546 447 546 473.5 531 c 128,-1,52
 500 516 500 516 518.5 482.5 c 128,-1,53
 537 449 537 449 546.5 395.5 c 128,-1,54
 556 342 556 342 556 265 c 0,55,56
 556 192 556 192 543.5 140 c 128,-1,57
 531 88 531 88 509 54.5 c 128,-1,58
 487 21 487 21 456.5 5.5 c 128,-1,59
 426 -10 426 -10 389 -10 c 0,0,1
477 823 m 1,60,-1
 477 760 l 1,61,-1
 473 760 l 2,62,63
 434 760 434 760 402.5 768.5 c 128,-1,64
 371 777 371 777 344 787.5 c 128,-1,65
 317 798 317 798 294 807 c 128,-1,66
 271 816 271 816 248 816 c 0,67,68
 227 816 227 816 213.5 804.5 c 128,-1,69
 200 793 200 793 200 768 c 2,70,-1
 200 760 l 1,71,-1
 135 760 l 1,72,-1
 135 771 l 2,73,74
 135 824 135 824 163.5 851.5 c 128,-1,75
 192 879 192 879 243 879 c 0,76,77
 273 879 273 879 299.5 870 c 128,-1,78
 326 861 326 861 352.5 851 c 128,-1,79
 379 841 379 841 408 832 c 128,-1,80
 437 823 437 823 473 823 c 2,81,-1
 477 823 l 1,60,-1
360 713 m 0,82,83
 360 675 360 675 330.5 647 c 128,-1,84
 301 619 301 619 242 604 c 1,85,-1
 242 641 l 1,86,87
 299 661 299 661 299 686 c 0,88,89
 299 695 299 695 291.5 699.5 c 128,-1,90
 284 704 284 704 275 708 c 128,-1,91
 266 712 266 712 258.5 718.5 c 128,-1,92
 251 725 251 725 251 738 c 0,93,94
 251 757 251 757 263 766 c 128,-1,95
 275 775 275 775 298 775 c 0,96,97
 327 775 327 775 343.5 758 c 128,-1,98
 360 741 360 741 360 713 c 0,82,83
EndSplineSet
Validated: 1
EndChar
StartChar: uni047E
Encoding: 1150 1150 554
Width: 600
GlyphClass: 2
Flags: W
LayerCount: 2
Fore
SplineSet
483 877 m 1,0,-1
 483 864 l 1,1,-1
 443 780 l 1,2,-1
 426 780 l 1,3,-1
 402 830 l 1,4,-1
 332 830 l 1,5,-1
 308 780 l 1,6,-1
 291 780 l 1,7,-1
 267 830 l 1,8,-1
 197 830 l 1,9,-1
 173 780 l 1,10,-1
 156 780 l 1,11,-1
 117 864 l 1,12,-1
 117 877 l 1,13,-1
 483 877 l 1,0,-1
342 91 m 1,14,15
 361 70 361 70 388 70 c 0,16,17
 411 70 411 70 427.5 91.5 c 128,-1,18
 444 113 444 113 454.5 153 c 128,-1,19
 465 193 465 193 469.5 249 c 128,-1,20
 474 305 474 305 474 374 c 0,21,22
 474 508 474 508 455 575.5 c 128,-1,23
 436 643 436 643 404 643 c 0,24,25
 377 643 377 643 357 629 c 1,26,-1
 334 703 l 1,27,28
 351 714 351 714 372.5 718.5 c 128,-1,29
 394 723 394 723 417 723 c 0,30,31
 488 723 488 723 524 635.5 c 128,-1,32
 560 548 560 548 560 373 c 0,33,34
 560 279 560 279 551.5 207.5 c 128,-1,35
 543 136 543 136 524 88 c 128,-1,36
 505 40 505 40 474 15 c 128,-1,37
 443 -10 443 -10 397 -10 c 0,38,39
 381 -10 381 -10 367.5 -6.5 c 128,-1,40
 354 -3 354 -3 343 2.5 c 128,-1,41
 332 8 332 8 321.5 17 c 128,-1,42
 311 26 311 26 300 38 c 1,43,44
 289 26 289 26 279 17 c 128,-1,45
 269 8 269 8 257.5 2.5 c 128,-1,46
 246 -3 246 -3 233 -6.5 c 128,-1,47
 220 -10 220 -10 204 -10 c 0,48,49
 158 -10 158 -10 127 15 c 128,-1,50
 96 40 96 40 76.5 88 c 128,-1,51
 57 136 57 136 48.5 207.5 c 128,-1,52
 40 279 40 279 40 373 c 0,53,54
 40 548 40 548 76 635.5 c 128,-1,55
 112 723 112 723 183 723 c 0,56,57
 206 723 206 723 228 718.5 c 128,-1,58
 250 714 250 714 266 703 c 1,59,-1
 243 629 l 1,60,61
 223 643 223 643 196 643 c 0,62,63
 164 643 164 643 145 575.5 c 128,-1,64
 126 508 126 508 126 374 c 0,65,66
 126 305 126 305 130.5 249 c 128,-1,67
 135 193 135 193 145.5 153 c 128,-1,68
 156 113 156 113 172.5 91.5 c 128,-1,69
 189 70 189 70 213 70 c 0,70,71
 241 70 241 70 259 91 c 1,72,-1
 259 323 l 1,73,-1
 342 323 l 1,74,-1
 342 91 l 1,14,15
EndSplineSet
Validated: 1
EndChar
StartChar: uni047F
Encoding: 1151 1151 555
Width: 600
GlyphClass: 2
Flags: W
LayerCount: 2
Fore
SplineSet
476 705 m 1,0,-1
 476 692 l 1,1,-1
 436 608 l 1,2,-1
 419 608 l 1,3,-1
 395 658 l 1,4,-1
 325 658 l 1,5,-1
 301 608 l 1,6,-1
 284 608 l 1,7,-1
 260 658 l 1,8,-1
 190 658 l 1,9,-1
 166 608 l 1,10,-1
 149 608 l 1,11,-1
 110 692 l 1,12,-1
 110 705 l 1,13,-1
 476 705 l 1,0,-1
138 0 m 1,14,-1
 -2 536 l 1,15,-1
 76 536 l 1,16,-1
 156 206 l 2,17,18
 166 164 166 164 174 126 c 128,-1,19
 182 88 182 88 186 63 c 1,20,-1
 188 63 l 1,21,22
 190 72 190 72 194 85.5 c 128,-1,23
 198 99 198 99 202.5 115 c 128,-1,24
 207 131 207 131 211.5 147.5 c 128,-1,25
 216 164 216 164 221 178 c 2,26,-1
 263 311 l 1,27,-1
 210 536 l 1,28,-1
 283 536 l 1,29,-1
 350 247 l 2,30,31
 354 231 354 231 359.5 207.5 c 128,-1,32
 365 184 365 184 370.5 159 c 128,-1,33
 376 134 376 134 381.5 110.5 c 128,-1,34
 387 87 387 87 390 71 c 1,35,-1
 393 71 l 1,36,37
 424 122 424 122 443 173 c 128,-1,38
 462 224 462 224 473 280 c 128,-1,39
 484 336 484 336 488 399 c 128,-1,40
 492 462 492 462 492 536 c 1,41,-1
 567 536 l 1,42,43
 567 456 567 456 560.5 386 c 128,-1,44
 554 316 554 316 538 251 c 128,-1,45
 522 186 522 186 494.5 124 c 128,-1,46
 467 62 467 62 424 0 c 1,47,-1
 344 0 l 1,48,-1
 303 166 l 2,49,50
 300 179 300 179 297 192.5 c 128,-1,51
 294 206 294 206 293 216 c 1,52,53
 291 206 291 206 287 191 c 128,-1,54
 283 176 283 176 279 165 c 2,55,-1
 227 0 l 1,56,-1
 138 0 l 1,14,-1
EndSplineSet
Validated: 1
EndChar
